<?xml version="1.0" encoding="utf-8"?>
<!-- Generator: Adobe Illustrator 17.0.0, SVG Export Plug-In . SVG Version: 6.00 Build 0)  -->
<!DOCTYPE svg PUBLIC "-//W3C//DTD SVG 1.1//EN" "http://www.w3.org/Graphics/SVG/1.1/DTD/svg11.dtd">
<svg version="1.1" id="Layer_1" xmlns="http://www.w3.org/2000/svg" xmlns:xlink="http://www.w3.org/1999/xlink" x="0px" y="0px"
	 width="1280px" height="800px" viewBox="0 0 1280 800" enable-background="new 0 0 1280 800" xml:space="preserve">
<rect x="-1" y="-4" width="1280" height="805"/>
<g opacity="0.3">
	<path fill="#DD5226" d="M16.28,9.98c4.166,0,8.102,0.001,12.039,0c3.909-0.001,3.91-0.001,3.911-3.797
		c0.001-4.023,0-8.047,0-12.356c1.015-0.068,1.88-0.171,2.745-0.175c3.866-0.02,7.734-0.073,11.598,0.016
		c1.713,0.039,2.343-0.585,2.31-2.286c-0.073-3.782,0.107-7.573-0.064-11.349c-0.101-2.237,0.701-2.824,2.827-2.73
		c3.612,0.16,7.245-0.104,10.853,0.094c2.465,0.135,3.105-0.787,2.988-3.101c-0.174-3.446-0.056-6.907-0.038-10.362
		c0.004-0.883,0.097-1.765,0.165-2.919c1.748,0,3.294,0,4.839,0c8.472,0,16.945,0.048,25.417-0.035
		c1.904-0.019,2.632,0.521,2.566,2.5c-0.126,3.779,0.038,7.568-0.061,11.349c-0.05,1.901,0.569,2.611,2.546,2.557
		c4.584-0.126,9.174-0.04,14.12-0.04c0,4.515-0.002,8.763,0.001,13.01c0.003,3.277,0.006,3.282,3.19,3.286
		c4.351,0.005,8.702,0.001,13.472,0.001c0,3.795,0,7.384,0,10.972c0,5.365,0,5.365,5.302,5.365c3.432,0,6.863,0,10.541,0
		c0,5.529,0,10.76,0,16.547c1.83,0,3.422-0.001,5.015,0c3.455,0.002,6.913-0.077,10.361,0.074c0.681,0.03,1.894,0.939,1.899,1.453
		c0.113,10.354,0.084,20.709,0.084,31.291c-1.221,0.074-2.262,0.192-3.303,0.193c-14.23,0.01-28.461,0.003-42.691,0.003
		c-3.189,0-3.195,0.007-3.204,3.285c-0.01,3.537-0.052,7.075,0.011,10.611c0.027,1.548-0.481,2.233-2.121,2.203
		c-4.029-0.074-8.062-0.073-12.091,0.001c-1.573,0.029-2.187-0.47-2.148-2.115c0.093-3.946-0.028-7.897,0.047-11.844
		c0.03-1.582-0.497-2.172-2.119-2.163c-9.459,0.054-18.919,0.06-28.378,0c-1.692-0.011-2.109,0.718-2.091,2.219
		c0.047,3.865-0.042,7.733,0.031,11.597c0.032,1.673-0.524,2.347-2.269,2.314c-4.583-0.087-9.168-0.03-14.08-0.03
		c0-4.563-0.129-8.818,0.051-13.06c0.1-2.349-0.586-3.082-2.994-3.065C32.506,59.595,17.453,59.542,2.4,59.54
		c-0.972,0-1.944,0-3.143,0c-0.085-1.04-0.203-1.823-0.204-2.607c-0.012-9.213,0.056-18.426-0.052-27.638
		c-0.025-2.175,0.642-2.893,2.803-2.807c3.696,0.146,7.406-0.074,11.101,0.079c2.37,0.098,3.42-0.485,3.236-3.128
		c-0.245-3.52-0.071-7.07-0.051-10.607C16.095,11.955,16.204,11.078,16.28,9.98z M65.415,26.457c0-5.321,0.042-10.318-0.069-15.312
		c-0.011-0.472-0.976-1.307-1.515-1.321c-4.354-0.111-8.713-0.123-13.065,0.001c-0.581,0.017-1.613,0.95-1.628,1.48
		c-0.127,4.599-0.099,9.204-0.016,13.805c0.008,0.455,0.688,1.282,1.068,1.288C55.175,26.487,60.162,26.457,65.415,26.457z
		 M114.627,26.461c0-5.392,0.047-10.464-0.088-15.531c-0.011-0.409-1.255-1.106-1.94-1.124c-4.022-0.109-8.049-0.016-12.073-0.079
		c-1.415-0.022-2.143,0.376-2.127,1.918c0.044,4.353-0.032,8.708,0.069,13.059c0.014,0.595,0.754,1.671,1.179,1.682
		C104.548,26.504,109.454,26.461,114.627,26.461z"/>
	<path fill="#DD5226" d="M66.561,92.205c0.118-4.322,0.266-8.644,0.343-12.967c0.058-3.238,0.017-3.244,3.21-3.244
		c8.856-0.002,17.712,0.058,26.567-0.041c2.077-0.023,2.664,0.66,2.602,2.672c-0.14,4.588-0.062,9.182-0.073,13.773l0.071-0.067
		c-9.863-0.016-19.727-0.028-29.59-0.055c-1.065-0.003-2.13-0.091-3.194-0.139L66.561,92.205z"/>
	<path fill="#DD5226" d="M132.245,92.509c5.479,0,10.958,0,16.761,0c0,5.086,0.043,9.987-0.072,14.884
		c-0.011,0.451-1.016,1.245-1.574,1.258c-4.349,0.106-8.703,0.031-13.054,0.074c-1.513,0.015-1.726-0.839-1.718-2.054
		c0.025-3.859,0.024-7.718-0.006-11.578c-0.007-0.89-0.172-1.779-0.264-2.668L132.245,92.509z"/>
	<path fill="#DD5226" d="M50.443,92.289c-5.318,0-10.636,0-16.391,0c0-3.966-0.03-7.703,0.007-11.44
		c0.055-5.557-0.705-4.786,4.818-4.848c3.036-0.034,6.075,0.081,9.107-0.037c1.806-0.07,2.446,0.495,2.401,2.366
		c-0.112,4.674-0.021,9.353-0.011,14.03L50.443,92.289z"/>
	<path fill="#DD5226" d="M132.319,92.425c-5.243,0-10.487,0-16.054,0c-0.064-1.202-0.152-2.143-0.156-3.084
		c-0.016-3.775,0.019-7.55-0.017-11.324c-0.012-1.235,0.209-2.045,1.718-2.027c4.267,0.05,8.536-0.049,12.799,0.096
		c0.598,0.02,1.651,1.067,1.664,1.656c0.103,4.918,0.012,9.84-0.024,14.764C132.245,92.509,132.319,92.425,132.319,92.425z"/>
	<path fill="#DD5226" d="M17.442,92.439c5.212,0,10.051-0.044,14.887,0.068c0.484,0.011,1.342,0.958,1.355,1.487
		c0.108,4.355,0.126,8.717-0.028,13.069c-0.02,0.571-1.155,1.555-1.8,1.577c-4.189,0.145-8.385,0.065-12.578,0.084
		c-1.137,0.005-1.868-0.244-1.854-1.632C17.472,102.336,17.442,97.579,17.442,92.439z"/>
	<path fill="#DD5226" d="M66.497,92.136c0.096,5.074,0.235,10.149,0.216,15.223c-0.002,0.45-1.022,1.271-1.586,1.285
		c-4.35,0.108-8.704,0.033-13.057,0.072c-1.616,0.015-1.575-1.01-1.576-2.138c-0.003-4.763-0.033-9.526-0.053-14.289l-0.069,0.07
		c5.399-0.047,10.799-0.094,16.193-0.148C66.561,92.205,66.497,92.136,66.497,92.136z"/>
	<path fill="#DD5226" d="M99.211,92.398c4.684,0.009,9.37,0.089,14.053-0.007c1.77-0.036,2.525,0.422,2.471,2.321
		c-0.112,3.942-0.075,7.889-0.015,11.833c0.024,1.554-0.506,2.224-2.133,2.195c-3.944-0.071-7.891-0.092-11.833,0.011
		c-1.796,0.047-2.449-0.493-2.411-2.374c0.095-4.68-0.025-9.365-0.06-14.047L99.211,92.398z"/>
</g>
<g opacity="0.3">
	<path fill="#7287C3" d="M1029.83,754.466c0.049-27.434,0.1-54.867,0.135-82.301c0.001-0.545-0.196-1.091-0.349-1.888
		c-114.816,0-229.535,0-344.572,0c0,28.135,0,56.059,0,84.339c28.089,0,55.916,0,84.145,0c0,28.391,0,56.429,0,84.761
		c-28.022,0-55.969,0-84.472,0c0-27.968,0-55.9,0-84.528c-2.214,0-3.881,0-5.548,0c-24.838,0-49.676-0.077-74.513,0.079
		c-3.851,0.024-5.174-0.854-5.141-4.982c0.201-24.692,0.1-49.386,0.101-74.08c0-1.714,0-3.429,0-5.505c-27.287,0-54.195,0-81.841,0
		c0,55.452,0,110.913,0,166.581c-28.707,0-56.677,0-85.318,0c0-1.881,0-3.562,0-5.243c0-108.738,0.027-217.477-0.098-326.215
		c-0.005-4.399,1.136-5.556,5.536-5.518c25.269,0.218,50.541,0.106,75.813,0.105c1.718,0,3.435,0,5.769,0
		c0-27.532,0-54.717,0-82.281c27.709,0,54.805,0,82.661,0c0-2.033,0-3.689,0-5.344c0.002-24.116,0.095-48.233-0.086-72.347
		c-0.029-3.904,1.157-4.821,4.899-4.798c25.27,0.155,50.542,0.081,75.813,0.081c1.725,0,3.45,0,5.574,0c0-27.592,0-54.928,0-82.933
		c-1.643,0-3.322,0-5.001,0c-24.838-0.002-49.676-0.083-74.513,0.075c-3.901,0.025-5.129-0.954-5.097-5.027
		c0.194-25.125,0.094-50.253,0.106-75.38c0.001-1.407,0.126-2.814,0.207-4.504c28.232,0,56.169,0,84.818,0
		c0,27.808,0,55.555,0,83.712c28.523,0,56.341,0,84.715,0c0,28.035,0,55.661,0,83.67c56.77,0,112.982,0,169.662,0
		c0-27.601,0-55.254,0-83.407c28.399,0,56.34,0,84.924,0c0-28.241,0-55.99,0-84.004c28.586,0,56.527,0,84.804,0
		c0,28.178,0,56.227,0,84.811c-28.062,0-55.995,0-84.233,0c0,27.74,0,54.949,0,82.839c27.426,0,54.882,0,82.868,0
		c0,27.733,0,54.795,0,82.393c28.598,0,56.665,0,85.267,0c0,27.605,0,54.675,0,82.249c28.323,0,56.11,0,84.206,0
		c0,110.009,0,219.508,0,329.281c-28.136,0-56.087,0-84.526,0c0-52.838,0-105.614,0-158.774c-27.365,0-54.244,0-81.484,0
		c0,28.052,0,55.874,0,83.991c-1.403,0.185-2.491,0.454-3.58,0.455c-26.138,0.024-52.275,0.025-78.413-0.002
		c-1.117-0.001-2.234-0.315-3.352-0.483L1029.83,754.466z M1026.597,499.827c0.147-1.159,0.314-1.864,0.314-2.569
		c0.018-24.391-0.033-48.782,0.085-73.173c0.016-3.342-1.538-3.675-4.24-3.668c-25.401,0.066-50.803,0.125-76.203-0.049
		c-3.887-0.027-4.821,1.136-4.794,4.89c0.167,23.38,0.082,46.761,0.096,70.142c0.001,1.402,0.133,2.803,0.215,4.427
		C970.355,499.827,998.288,499.827,1026.597,499.827z M689.757,420.671c0,26.662,0,52.841,0,79.049c27.479,0,54.644,0,81.824,0
		c0-26.513,0-52.674,0-79.049C744.195,420.671,717.136,420.671,689.757,420.671z"/>
	<path fill="#7287C3" d="M1029.714,754.342c0.143,0.982,0.411,1.963,0.412,2.945c0.022,26.253,0.019,52.505,0.008,78.758
		c0,0.988-0.125,1.976-0.214,3.288c-28.167,0-56.194,0-84.521,0c0-28.123,0-56.15,0-84.854c28.289,0,56.368,0,84.438-0.007
		C1029.83,754.466,1029.714,754.342,1029.714,754.342z"/>
</g>
<g opacity="0.4">
	<path fill="#328A96" d="M249.742,258.904c0,2.197,0,4.394,0,6.659c9.091,0,18.033,0,27.251,0c0-2.265,0-4.487,0-6.709l-0.026,0.024
		c2.133,0,4.267,0,6.511,0c0.037,0.538,0.085,0.922,0.086,1.305c0.006,3.413-0.004,6.826,0.006,10.239
		c0.006,2.072-0.208,1.764,1.736,1.782c1.633,0.015,3.266,0.003,5.057,0.003c0,1.786-0.001,3.479,0,5.172
		c0.001,1.41,0.001,1.411,1.414,1.411c1.734,0.001,3.469,0,5.277,0c0,8.749,0,17.392,0,26.103c-2.205,0-4.364,0-6.664,0
		c0-4.183,0-8.342,0-12.567c-2.201,0-4.261,0-6.524,0c0,0.811,0,1.628,0,2.444c0,1.138-0.03,2.276,0.01,3.413
		c0.023,0.66-0.221,0.872-0.871,0.867c-1.973-0.015-3.946,0.024-5.919,0.041l0.026,0.034c0-2.258,0-4.516,0-6.749
		c-0.238-0.059-0.333-0.103-0.427-0.103c-8.786-0.007-17.572-0.005-26.358-0.025c-0.664-0.001-0.761,0.313-0.757,0.863
		c0.016,2.004,0.003,4.009,0.001,6.013l0.026-0.03c-1.906-0.018-3.813-0.08-5.718-0.036c-0.86,0.02-1.085-0.286-1.057-1.098
		c0.054-1.571-0.012-3.146,0.028-4.718c0.018-0.706-0.144-1.025-0.938-1.002c-1.83,0.054-3.663,0.017-5.607,0.017
		c0,4.448,0,8.781,0,13.213c-2.291,0-4.471,0-6.718,0c0-8.861,0-17.706,0-26.681c1.884,0,3.715,0.001,5.546,0
		c1.316-0.001,1.318-0.002,1.32-1.307c0.003-1.472,0.026-2.945-0.005-4.417c-0.014-0.649,0.212-0.881,0.87-0.869
		c1.835,0.034,3.672,0.012,5.679,0.012c0-4.433,0-8.786,0-13.277c2.372,0,4.572,0,6.773,0L249.742,258.904z M273.582,272.384
		c-0.937,0-1.874,0.015-2.81-0.006c-0.504-0.011-0.724,0.166-0.718,0.695c0.019,1.672,0.018,3.345-0.001,5.017
		c-0.006,0.524,0.208,0.707,0.714,0.703c1.806-0.015,3.613-0.014,5.419,0c0.5,0.004,0.728-0.169,0.722-0.698
		c-0.019-1.672-0.019-3.345-0.001-5.017c0.006-0.526-0.209-0.712-0.716-0.699C275.321,272.4,274.451,272.384,273.582,272.384z
		 M249.96,272.386c0,2.063-0.015,3.995,0.027,5.926c0.003,0.162,0.381,0.448,0.59,0.453c1.773,0.037,3.547,0.014,5.321,0.029
		c0.519,0.005,0.709-0.212,0.704-0.721c-0.017-1.673,0.017-3.347-0.035-5.019c-0.007-0.229-0.391-0.633-0.609-0.638
		C254.02,272.365,252.081,272.386,249.96,272.386z"/>
	<path fill="#328A96" d="M277.086,299.092c0,4.436,0,8.873,0,13.377c-2.3,0-4.457,0-6.745,0c0-2.176,0-4.362,0-6.63
		c-4.686,0-9.243,0-13.937,0c0,2.198,0,4.381,0,6.63c-2.294,0-4.451,0-6.807,0c0-4.453,0-8.913,0-13.374l-0.026,0.03
		c0.299-0.024,0.597-0.068,0.896-0.069c8.583-0.003,17.166-0.003,25.748,0.002c0.299,0,0.598,0.044,0.897,0.067L277.086,299.092z"/>
	<path fill="#328A96" d="M276.993,258.854c-2.256,0-4.513,0-6.829,0c0-2.151,0-4.275,0-6.492c2.209,0,4.387,0,6.796,0
		c0,2.205,0,4.363,0.003,6.519C276.967,258.878,276.993,258.854,276.993,258.854z"/>
	<path fill="#328A96" d="M249.771,258.931c0-2.162,0-4.323,0-6.662c1.537,0,2.956,0,4.375,0c2.405,0,2.407,0,2.404,2.406
		c-0.002,1.301-0.011,2.601-0.025,3.902c-0.001,0.092-0.064,0.183-0.118,0.328c-2.216,0-4.44,0-6.665-0.001
		C249.742,258.904,249.771,258.931,249.771,258.931z"/>
</g>
</svg>
