<?xml version="1.0" encoding="utf-8"?>
<!-- Generator: Adobe Illustrator 17.0.0, SVG Export Plug-In . SVG Version: 6.00 Build 0)  -->
<!DOCTYPE svg PUBLIC "-//W3C//DTD SVG 1.1//EN" "http://www.w3.org/Graphics/SVG/1.1/DTD/svg11.dtd">
<svg version="1.1" id="Layer_1" xmlns="http://www.w3.org/2000/svg" xmlns:xlink="http://www.w3.org/1999/xlink" x="0px" y="0px"
	 width="1224px" height="1584px" viewBox="0 0 1224 1584" enable-background="new 0 0 1224 1584" xml:space="preserve">
<rect x="2" y="0" width="1224" height="1584"/>
<g>
	<g>
		<g>
			<rect x="194" y="143" fill="#DC5426" width="20" height="18"/>
			<rect x="194" y="128" fill="#DC5426" width="20" height="15"/>
			<rect x="194" y="110" fill="#DC5426" width="20" height="18"/>
			<rect x="194" y="85" fill="#DC5426" width="20" height="25"/>
			<rect x="257" y="143" fill="#DC5426" width="13" height="18"/>
			<rect x="257" y="128" fill="#DC5426" width="13" height="15"/>
			<rect x="257" y="110" fill="#DC5426" width="13" height="18"/>
			<rect x="257" y="85" fill="#DC5426" width="13" height="25"/>
			<rect x="270" y="143" fill="#DFC852" width="20" height="18"/>
			<rect x="270" y="128" fill="#DFC852" width="20" height="15"/>
			<rect x="270" y="110" fill="#DFC852" width="20" height="18"/>
			<rect x="270" y="85" fill="#DFC852" width="20" height="25"/>
			<rect x="179" y="143" fill="#DFC852" width="15" height="18"/>
			<rect x="179" y="128" fill="#DFC852" width="15" height="15"/>
			<rect x="179" y="110" fill="#DFC852" width="15" height="18"/>
			<rect x="179" y="85" fill="#DFC852" width="15" height="25"/>
			<rect x="194" y="67" fill="#DFC852" width="20" height="18"/>
			<rect x="257" y="67" fill="#DFC852" width="13" height="18"/>
			<rect x="237" y="52" fill="#DFC852" width="20" height="15"/>
			<rect x="214" y="52" fill="#DFC852" width="23" height="15"/>
			<rect x="214" y="128" fill="#DC5426" width="23" height="15"/>
			<rect x="237" y="128" fill="#DC5426" width="20" height="15"/>
			<rect x="237" y="67" fill="#DC5426" width="20" height="18"/>
			<rect x="214" y="67" fill="#DC5426" width="23" height="18"/>
		</g>
	</g>
	<g>
		<g>
			<rect x="834" y="644" fill="#DC5426" width="20" height="20"/>
			<rect x="834" y="588" fill="#DC5426" width="20" height="18"/>
			<rect x="778" y="644" fill="#DC5426" width="18" height="20"/>
			<rect x="816" y="626" fill="#DC5426" width="18" height="18"/>
			<rect x="796" y="606" fill="#DC5426" width="20" height="20"/>
			<rect x="778" y="588" fill="#DC5426" width="18" height="18"/>
			<rect x="816" y="606" fill="#DFC852" width="18" height="20"/>
			<rect x="796" y="588" fill="#DFC852" width="20" height="18"/>
			<rect x="834" y="626" fill="#DFC852" width="20" height="18"/>
			<rect x="816" y="664" fill="#DC5426" width="18" height="18"/>
			<rect x="796" y="664" fill="#DC5426" width="20" height="18"/>
			<rect x="816" y="568" fill="#DC5426" width="18" height="20"/>
			<rect x="796" y="568" fill="#DC5426" width="20" height="20"/>
		</g>
	</g>
	<g>
		<g>
			<rect x="437" y="67" fill="#DC5426" width="20" height="18"/>
			<rect x="457" y="128" fill="#DFC852" width="20" height="15"/>
			<rect x="437" y="85" fill="#DFC852" width="20" height="25"/>
			<rect x="424" y="128" fill="#DC5426" width="13" height="15"/>
			<rect x="437" y="110" fill="#DC5426" width="20" height="18"/>
			<rect x="404" y="128" fill="#DC5426" width="20" height="15"/>
			<rect x="404" y="110" fill="#DC5426" width="20" height="18"/>
			<rect x="404" y="85" fill="#DC5426" width="20" height="25"/>
			<rect x="386" y="67" fill="#DFC852" width="18" height="18"/>
			<rect x="424" y="85" fill="#DC5426" width="13" height="25"/>
			<rect x="457" y="67" fill="#DFC852" width="20" height="18"/>
			<rect x="457" y="110" fill="#DFC852" width="20" height="18"/>
			<rect x="437" y="128" fill="#DC5426" width="20" height="15"/>
			<rect x="437" y="143" fill="#DFC852" width="20" height="18"/>
			<rect x="424" y="143" fill="#DFC852" width="13" height="18"/>
			<rect x="404" y="143" fill="#DFC852" width="20" height="18"/>
			<rect x="386" y="143" fill="#DFC852" width="18" height="18"/>
			<rect x="386" y="128" fill="#DFC852" width="18" height="15"/>
			<rect x="386" y="110" fill="#DFC852" width="18" height="18"/>
			<rect x="386" y="85" fill="#DFC852" width="18" height="25"/>
			<rect x="404" y="67" fill="#DC5426" width="20" height="18"/>
			<rect x="386" y="52" fill="#DFC852" width="18" height="15"/>
			<rect x="404" y="52" fill="#DFC852" width="20" height="15"/>
			<rect x="424" y="52" fill="#DFC852" width="13" height="15"/>
			<rect x="437" y="52" fill="#DFC852" width="20" height="15"/>
		</g>
	</g>
	<g>
		<g>
			<rect x="634" y="67" fill="#DC5426" width="18" height="18"/>
			<rect x="652" y="67" fill="#DFC852" width="20" height="18"/>
			<rect x="634" y="52" fill="#DFC852" width="18" height="15"/>
			<rect x="614" y="52" fill="#DFC852" width="20" height="15"/>
			<rect x="596" y="52" fill="#DFC852" width="18" height="15"/>
			<rect x="596" y="67" fill="#DC5426" width="18" height="18"/>
			<rect x="576" y="67" fill="#DFC852" width="20" height="18"/>
			<rect x="576" y="85" fill="#DFC852" width="20" height="25"/>
			<rect x="576" y="110" fill="#DFC852" width="20" height="18"/>
			<rect x="576" y="128" fill="#DFC852" width="20" height="15"/>
			<rect x="596" y="85" fill="#DC5426" width="18" height="25"/>
			<rect x="596" y="110" fill="#DC5426" width="18" height="18"/>
			<rect x="596" y="128" fill="#DC5426" width="18" height="15"/>
			<rect x="596" y="143" fill="#DFC852" width="18" height="18"/>
			<rect x="614" y="143" fill="#DFC852" width="20" height="18"/>
			<rect x="634" y="143" fill="#DFC852" width="18" height="18"/>
			<rect x="634" y="128" fill="#DC5426" width="18" height="15"/>
			<rect x="652" y="128" fill="#DFC852" width="20" height="15"/>
		</g>
	</g>
	<g>
		<g>
			<rect x="955" y="295" fill="#DC5426" width="18" height="15"/>
			<rect x="973" y="310" fill="#DC5426" width="25" height="20"/>
			<rect x="998" y="310" fill="#DC5426" width="18" height="20"/>
			<rect x="998" y="295" fill="#DFC852" width="18" height="15"/>
			<rect x="1016" y="295" fill="#DC5426" width="15" height="15"/>
			<rect x="1016" y="277" fill="#DC5426" width="15" height="18"/>
			<rect x="1016" y="252" fill="#DC5426" width="15" height="25"/>
			<rect x="1016" y="234" fill="#DC5426" width="15" height="18"/>
			<rect x="998" y="277" fill="#DFC852" width="18" height="18"/>
			<rect x="998" y="252" fill="#DFC852" width="18" height="25"/>
			<rect x="998" y="234" fill="#DFC852" width="18" height="18"/>
			<rect x="1016" y="219" fill="#DC5426" width="15" height="15"/>
			<rect x="998" y="219" fill="#DFC852" width="18" height="15"/>
			<rect x="973" y="295" fill="#DFC852" width="25" height="15"/>
		</g>
	</g>
	<g>
		<g>
			<rect x="237" y="411" fill="#DC5426" width="20" height="18"/>
			<rect x="219" y="429" fill="#DC5426" width="18" height="25"/>
			<rect x="257" y="396" fill="#DC5426" width="13" height="15"/>
			<rect x="199" y="487" fill="#DC5426" width="20" height="20"/>
			<rect x="179" y="472" fill="#DFC852" width="20" height="15"/>
			<rect x="179" y="487" fill="#DFC852" width="20" height="20"/>
			<rect x="199" y="472" fill="#DC5426" width="20" height="15"/>
			<rect x="199" y="454" fill="#DC5426" width="20" height="18"/>
			<rect x="199" y="429" fill="#DC5426" width="20" height="25"/>
			<rect x="199" y="411" fill="#DC5426" width="20" height="18"/>
			<rect x="179" y="454" fill="#DFC852" width="20" height="18"/>
			<rect x="179" y="429" fill="#DFC852" width="20" height="25"/>
			<rect x="179" y="411" fill="#DFC852" width="20" height="18"/>
			<rect x="199" y="396" fill="#DC5426" width="20" height="15"/>
			<rect x="179" y="396" fill="#DFC852" width="20" height="15"/>
			<rect x="237" y="396" fill="#DFC852" width="20" height="15"/>
			<rect x="219" y="411" fill="#DFC852" width="18" height="18"/>
			<rect x="257" y="472" fill="#DC5426" width="13" height="15"/>
			<rect x="270" y="487" fill="#DC5426" width="20" height="20"/>
			<rect x="237" y="454" fill="#DC5426" width="20" height="18"/>
			<rect x="237" y="472" fill="#DFC852" width="20" height="15"/>
			<rect x="219" y="454" fill="#DFC852" width="18" height="18"/>
			<rect x="257" y="487" fill="#DFC852" width="13" height="20"/>
		</g>
	</g>
	<g>
		<g>
			<rect x="859" y="85" fill="#DC5426" width="18" height="25"/>
			<rect x="859" y="110" fill="#DC5426" width="18" height="18"/>
			<rect x="783" y="128" fill="#DC5426" width="18" height="15"/>
			<rect x="763" y="85" fill="#DFC852" width="20" height="25"/>
			<rect x="783" y="110" fill="#DC5426" width="18" height="18"/>
			<rect x="839" y="128" fill="#DC5426" width="20" height="15"/>
			<rect x="839" y="67" fill="#DC5426" width="20" height="18"/>
			<rect x="821" y="67" fill="#DFC852" width="18" height="18"/>
			<rect x="783" y="67" fill="#DC5426" width="18" height="18"/>
			<rect x="801" y="67" fill="#DFC852" width="20" height="18"/>
			<rect x="839" y="110" fill="#DFC852" width="20" height="18"/>
			<rect x="801" y="143" fill="#DC5426" width="20" height="18"/>
			<rect x="821" y="143" fill="#DC5426" width="18" height="18"/>
			<rect x="839" y="85" fill="#DFC852" width="20" height="25"/>
			<rect x="821" y="128" fill="#DFC852" width="18" height="15"/>
			<rect x="801" y="128" fill="#DFC852" width="20" height="15"/>
			<rect x="763" y="110" fill="#DFC852" width="20" height="18"/>
			<rect x="763" y="128" fill="#DFC852" width="20" height="15"/>
			<rect x="783" y="143" fill="#DC5426" width="18" height="18"/>
			<rect x="763" y="143" fill="#DFC852" width="20" height="18"/>
			<rect x="783" y="85" fill="#DC5426" width="18" height="25"/>
			<rect x="763" y="67" fill="#DFC852" width="20" height="18"/>
			<rect x="763" y="52" fill="#DFC852" width="20" height="15"/>
			<rect x="783" y="52" fill="#DC5426" width="18" height="15"/>
			<rect x="801" y="52" fill="#DC5426" width="20" height="15"/>
			<rect x="821" y="52" fill="#DC5426" width="18" height="15"/>
		</g>
	</g>
	<g>
		<g>
			<rect x="993" y="128" fill="#DC5426" width="18" height="15"/>
			<rect x="973" y="85" fill="#DFC852" width="20" height="25"/>
			<rect x="993" y="110" fill="#DC5426" width="18" height="18"/>
			<rect x="1036" y="85" fill="#DC5426" width="13" height="25"/>
			<rect x="993" y="67" fill="#DC5426" width="18" height="18"/>
			<rect x="1011" y="85" fill="#DC5426" width="25" height="25"/>
			<rect x="1011" y="143" fill="#DFC852" width="25" height="18"/>
			<rect x="1036" y="143" fill="#DFC852" width="13" height="18"/>
			<rect x="973" y="110" fill="#DFC852" width="20" height="18"/>
			<rect x="973" y="128" fill="#DFC852" width="20" height="15"/>
			<rect x="993" y="143" fill="#DFC852" width="18" height="18"/>
			<rect x="973" y="143" fill="#DFC852" width="20" height="18"/>
			<rect x="993" y="85" fill="#DC5426" width="18" height="25"/>
			<rect x="973" y="67" fill="#DFC852" width="20" height="18"/>
			<rect x="973" y="52" fill="#DFC852" width="20" height="15"/>
			<rect x="993" y="52" fill="#DFC852" width="18" height="15"/>
			<rect x="1011" y="52" fill="#DFC852" width="25" height="15"/>
			<rect x="1036" y="52" fill="#DFC852" width="13" height="15"/>
		</g>
	</g>
	<g>
		<g>
			<rect x="553" y="290" fill="#DFC852" width="13" height="20"/>
			<rect x="566" y="252" fill="#DC5426" width="20" height="20"/>
			<rect x="553" y="272" fill="#DFC852" width="13" height="18"/>
			<rect x="553" y="310" fill="#DFC852" width="13" height="20"/>
			<rect x="553" y="234" fill="#DFC852" width="13" height="18"/>
			<rect x="553" y="219" fill="#DFC852" width="13" height="15"/>
			<rect x="606" y="272" fill="#DC5426" width="18" height="18"/>
			<rect x="624" y="310" fill="#DFC852" width="20" height="20"/>
			<rect x="624" y="290" fill="#DFC852" width="20" height="20"/>
			<rect x="624" y="272" fill="#DC5426" width="20" height="18"/>
			<rect x="624" y="252" fill="#DC5426" width="20" height="20"/>
			<rect x="624" y="234" fill="#DFC852" width="20" height="18"/>
			<rect x="566" y="272" fill="#DC5426" width="20" height="18"/>
			<rect x="566" y="290" fill="#DC5426" width="20" height="20"/>
			<rect x="586" y="272" fill="#DC5426" width="20" height="18"/>
			<rect x="566" y="310" fill="#DC5426" width="20" height="20"/>
			<rect x="553" y="252" fill="#DFC852" width="13" height="20"/>
			<rect x="644" y="290" fill="#DC5426" width="18" height="20"/>
			<rect x="644" y="272" fill="#DC5426" width="18" height="18"/>
			<rect x="644" y="310" fill="#DC5426" width="18" height="20"/>
			<rect x="644" y="234" fill="#DC5426" width="18" height="18"/>
			<rect x="644" y="219" fill="#DC5426" width="18" height="15"/>
			<rect x="644" y="252" fill="#DC5426" width="18" height="20"/>
			<rect x="566" y="234" fill="#DC5426" width="20" height="18"/>
			<rect x="566" y="219" fill="#DC5426" width="20" height="15"/>
			<rect x="586" y="252" fill="#DC5426" width="20" height="20"/>
			<rect x="606" y="252" fill="#DC5426" width="18" height="20"/>
			<rect x="624" y="219" fill="#DFC852" width="20" height="15"/>
		</g>
	</g>
	<g>
		<g>
			<rect x="796" y="219" fill="#DC5426" width="25" height="15"/>
			<rect x="796" y="234" fill="#DC5426" width="25" height="18"/>
			<rect x="796" y="252" fill="#DC5426" width="25" height="20"/>
			<rect x="796" y="272" fill="#DC5426" width="25" height="18"/>
			<rect x="796" y="290" fill="#DC5426" width="25" height="20"/>
			<rect x="783" y="234" fill="#DFC852" width="13" height="18"/>
			<rect x="783" y="252" fill="#DFC852" width="13" height="20"/>
			<rect x="783" y="219" fill="#DFC852" width="13" height="15"/>
			<rect x="783" y="290" fill="#DFC852" width="13" height="20"/>
			<rect x="783" y="310" fill="#DFC852" width="13" height="20"/>
			<rect x="783" y="272" fill="#DFC852" width="13" height="18"/>
			<rect x="796" y="310" fill="#DC5426" width="25" height="20"/>
		</g>
	</g>
	<g>
		<g>
			<rect x="199" y="290" fill="#DC5426" width="20" height="20"/>
			<rect x="179" y="252" fill="#DFC852" width="20" height="20"/>
			<rect x="199" y="272" fill="#DC5426" width="20" height="18"/>
			<rect x="242" y="252" fill="#DC5426" width="15" height="20"/>
			<rect x="199" y="234" fill="#DC5426" width="20" height="18"/>
			<rect x="219" y="252" fill="#DC5426" width="23" height="20"/>
			<rect x="179" y="272" fill="#DFC852" width="20" height="18"/>
			<rect x="179" y="290" fill="#DFC852" width="20" height="20"/>
			<rect x="199" y="310" fill="#DC5426" width="20" height="20"/>
			<rect x="179" y="310" fill="#DFC852" width="20" height="20"/>
			<rect x="199" y="252" fill="#DC5426" width="20" height="20"/>
			<rect x="179" y="234" fill="#DFC852" width="20" height="18"/>
			<rect x="179" y="219" fill="#DFC852" width="20" height="15"/>
			<rect x="199" y="219" fill="#DFC852" width="20" height="15"/>
			<rect x="219" y="219" fill="#DFC852" width="23" height="15"/>
			<rect x="242" y="219" fill="#DFC852" width="15" height="15"/>
		</g>
	</g>
	<g>
		<g>
			<rect x="596" y="649" fill="#DFC852" width="18" height="15"/>
			<rect x="576" y="606" fill="#DC5426" width="20" height="25"/>
			<rect x="596" y="631" fill="#DFC852" width="18" height="18"/>
			<rect x="634" y="631" fill="#DC5426" width="18" height="18"/>
			<rect x="596" y="588" fill="#DFC852" width="18" height="18"/>
			<rect x="614" y="631" fill="#DC5426" width="20" height="18"/>
			<rect x="576" y="631" fill="#DC5426" width="20" height="18"/>
			<rect x="576" y="649" fill="#DC5426" width="20" height="15"/>
			<rect x="596" y="664" fill="#DFC852" width="18" height="18"/>
			<rect x="576" y="664" fill="#DC5426" width="20" height="18"/>
			<rect x="596" y="606" fill="#DFC852" width="18" height="25"/>
			<rect x="576" y="588" fill="#DC5426" width="20" height="18"/>
			<rect x="576" y="573" fill="#DC5426" width="20" height="15"/>
			<rect x="596" y="573" fill="#DC5426" width="18" height="15"/>
			<rect x="614" y="573" fill="#DC5426" width="20" height="15"/>
			<rect x="634" y="573" fill="#DC5426" width="18" height="15"/>
			<rect x="652" y="588" fill="#DC5426" width="20" height="18"/>
			<rect x="652" y="606" fill="#DC5426" width="20" height="25"/>
			<rect x="652" y="664" fill="#DC5426" width="20" height="18"/>
			<rect x="652" y="649" fill="#DC5426" width="20" height="15"/>
		</g>
	</g>
	<g>
		<g>
			<rect x="424" y="234" fill="#DC5426" width="13" height="18"/>
			<rect x="437" y="234" fill="#DFC852" width="20" height="18"/>
			<rect x="424" y="219" fill="#DFC852" width="13" height="15"/>
			<rect x="404" y="219" fill="#DFC852" width="20" height="15"/>
			<rect x="386" y="219" fill="#DFC852" width="18" height="15"/>
			<rect x="386" y="234" fill="#DC5426" width="18" height="18"/>
			<rect x="366" y="234" fill="#DFC852" width="20" height="18"/>
			<rect x="366" y="252" fill="#DFC852" width="20" height="20"/>
			<rect x="366" y="272" fill="#DFC852" width="20" height="18"/>
			<rect x="366" y="290" fill="#DFC852" width="20" height="20"/>
			<rect x="386" y="252" fill="#DC5426" width="18" height="20"/>
			<rect x="386" y="272" fill="#DC5426" width="18" height="18"/>
			<rect x="386" y="290" fill="#DC5426" width="18" height="20"/>
			<rect x="386" y="310" fill="#DFC852" width="18" height="20"/>
			<rect x="404" y="310" fill="#DFC852" width="20" height="20"/>
			<rect x="424" y="310" fill="#DFC852" width="13" height="20"/>
			<rect x="424" y="290" fill="#DC5426" width="13" height="20"/>
			<rect x="404" y="290" fill="#DC5426" width="20" height="20"/>
			<rect x="404" y="234" fill="#DC5426" width="20" height="18"/>
			<rect x="437" y="290" fill="#DFC852" width="20" height="20"/>
			<rect x="437" y="272" fill="#DFC852" width="20" height="18"/>
			<rect x="424" y="272" fill="#DFC852" width="13" height="18"/>
		</g>
	</g>
	<g>
		<g>
			<rect x="404" y="472" fill="#DC5426" width="20" height="15"/>
			<rect x="386" y="429" fill="#DFC852" width="18" height="25"/>
			<rect x="404" y="454" fill="#DC5426" width="20" height="18"/>
			<rect x="442" y="472" fill="#DC5426" width="20" height="15"/>
			<rect x="404" y="411" fill="#DC5426" width="20" height="18"/>
			<rect x="424" y="472" fill="#DC5426" width="18" height="15"/>
			<rect x="424" y="487" fill="#DFC852" width="18" height="20"/>
			<rect x="442" y="487" fill="#DFC852" width="20" height="20"/>
			<rect x="386" y="454" fill="#DFC852" width="18" height="18"/>
			<rect x="386" y="472" fill="#DFC852" width="18" height="15"/>
			<rect x="404" y="487" fill="#DFC852" width="20" height="20"/>
			<rect x="386" y="487" fill="#DFC852" width="18" height="20"/>
			<rect x="404" y="429" fill="#DC5426" width="20" height="25"/>
			<rect x="386" y="411" fill="#DFC852" width="18" height="18"/>
			<rect x="386" y="396" fill="#DFC852" width="18" height="15"/>
			<rect x="404" y="396" fill="#DC5426" width="20" height="15"/>
		</g>
	</g>
	<g>
		<g>
			<rect x="566" y="472" fill="#DC5426" width="20" height="15"/>
			<rect x="548" y="429" fill="#DFC852" width="18" height="25"/>
			<rect x="566" y="454" fill="#DC5426" width="20" height="18"/>
			<rect x="606" y="454" fill="#DC5426" width="13" height="18"/>
			<rect x="566" y="411" fill="#DC5426" width="20" height="18"/>
			<rect x="586" y="429" fill="#DC5426" width="20" height="25"/>
			<rect x="586" y="411" fill="#DFC852" width="20" height="18"/>
			<rect x="606" y="429" fill="#DFC852" width="13" height="25"/>
			<rect x="548" y="454" fill="#DFC852" width="18" height="18"/>
			<rect x="548" y="472" fill="#DFC852" width="18" height="15"/>
			<rect x="566" y="487" fill="#DC5426" width="20" height="20"/>
			<rect x="548" y="487" fill="#DFC852" width="18" height="20"/>
			<rect x="566" y="429" fill="#DC5426" width="20" height="25"/>
			<rect x="548" y="411" fill="#DFC852" width="18" height="18"/>
			<rect x="548" y="396" fill="#DFC852" width="18" height="15"/>
			<rect x="566" y="396" fill="#DFC852" width="20" height="15"/>
			<rect x="644" y="472" fill="#DC5426" width="18" height="15"/>
			<rect x="662" y="429" fill="#DFC852" width="20" height="25"/>
			<rect x="644" y="454" fill="#DC5426" width="18" height="18"/>
			<rect x="644" y="411" fill="#DC5426" width="18" height="18"/>
			<rect x="619" y="429" fill="#DC5426" width="25" height="25"/>
			<rect x="619" y="411" fill="#DFC852" width="25" height="18"/>
			<rect x="662" y="454" fill="#DFC852" width="20" height="18"/>
			<rect x="662" y="472" fill="#DFC852" width="20" height="15"/>
			<rect x="644" y="487" fill="#DC5426" width="18" height="20"/>
			<rect x="662" y="487" fill="#DFC852" width="20" height="20"/>
			<rect x="644" y="429" fill="#DC5426" width="18" height="25"/>
			<rect x="662" y="411" fill="#DFC852" width="20" height="18"/>
			<rect x="662" y="396" fill="#DFC852" width="20" height="15"/>
			<rect x="644" y="396" fill="#DFC852" width="18" height="15"/>
		</g>
	</g>
	<g>
		<g>
			<rect x="649" y="745" fill="#DFC852" width="23" height="15"/>
			<rect x="672" y="783" fill="#DC5426" width="15" height="15"/>
			<rect x="649" y="760" fill="#DFC852" width="23" height="23"/>
			<rect x="614" y="760" fill="#DFC852" width="20" height="23"/>
			<rect x="649" y="798" fill="#DFC852" width="23" height="23"/>
			<rect x="634" y="783" fill="#DFC852" width="15" height="15"/>
			<rect x="634" y="798" fill="#DC5426" width="15" height="23"/>
			<rect x="614" y="783" fill="#DC5426" width="20" height="15"/>
			<rect x="672" y="760" fill="#DC5426" width="15" height="23"/>
			<rect x="672" y="745" fill="#DC5426" width="15" height="15"/>
			<rect x="649" y="725" fill="#DFC852" width="23" height="20"/>
			<rect x="672" y="725" fill="#DC5426" width="15" height="20"/>
			<rect x="649" y="783" fill="#DFC852" width="23" height="15"/>
			<rect x="672" y="798" fill="#DC5426" width="15" height="23"/>
			<rect x="672" y="821" fill="#DC5426" width="15" height="15"/>
			<rect x="649" y="821" fill="#DC5426" width="23" height="15"/>
			<rect x="576" y="745" fill="#DFC852" width="20" height="15"/>
			<rect x="558" y="783" fill="#DC5426" width="18" height="15"/>
			<rect x="576" y="760" fill="#DFC852" width="20" height="23"/>
			<rect x="576" y="798" fill="#DFC852" width="20" height="23"/>
			<rect x="596" y="783" fill="#DFC852" width="18" height="15"/>
			<rect x="596" y="798" fill="#DC5426" width="18" height="23"/>
			<rect x="558" y="760" fill="#DC5426" width="18" height="23"/>
			<rect x="558" y="745" fill="#DC5426" width="18" height="15"/>
			<rect x="576" y="725" fill="#DFC852" width="20" height="20"/>
			<rect x="558" y="725" fill="#DC5426" width="18" height="20"/>
			<rect x="576" y="783" fill="#DFC852" width="20" height="15"/>
			<rect x="558" y="798" fill="#DC5426" width="18" height="23"/>
			<rect x="558" y="821" fill="#DC5426" width="18" height="15"/>
			<rect x="576" y="821" fill="#DC5426" width="20" height="15"/>
		</g>
	</g>
	<g>
		<g>
			<rect x="816" y="778" fill="#DC5426" width="23" height="25"/>
			<rect x="839" y="803" fill="#DFC852" width="20" height="18"/>
			<rect x="859" y="821" fill="#DFC852" width="23" height="25"/>
			<rect x="796" y="778" fill="#DFC852" width="20" height="25"/>
			<rect x="773" y="803" fill="#DFC852" width="23" height="18"/>
			<rect x="753" y="821" fill="#DFC852" width="20" height="25"/>
			<rect x="796" y="760" fill="#DC5426" width="20" height="18"/>
			<rect x="753" y="803" fill="#DC5426" width="20" height="18"/>
			<rect x="773" y="778" fill="#DC5426" width="23" height="25"/>
			<rect x="816" y="735" fill="#DC5426" width="23" height="25"/>
			<rect x="839" y="717" fill="#DC5426" width="20" height="18"/>
			<rect x="773" y="735" fill="#DC5426" width="23" height="25"/>
			<rect x="753" y="717" fill="#DC5426" width="20" height="18"/>
			<rect x="816" y="760" fill="#DFC852" width="23" height="18"/>
			<rect x="839" y="778" fill="#DC5426" width="20" height="25"/>
			<rect x="859" y="803" fill="#DC5426" width="23" height="18"/>
			<rect x="796" y="735" fill="#DFC852" width="20" height="25"/>
			<rect x="773" y="717" fill="#DFC852" width="23" height="18"/>
			<rect x="839" y="735" fill="#DFC852" width="20" height="25"/>
			<rect x="859" y="717" fill="#DFC852" width="23" height="18"/>
		</g>
	</g>
	<g>
		<g>
			<rect x="758" y="472" fill="#DC5426" width="20" height="15"/>
			<rect x="740" y="429" fill="#DFC852" width="18" height="25"/>
			<rect x="758" y="454" fill="#DC5426" width="20" height="18"/>
			<rect x="796" y="454" fill="#DC5426" width="20" height="18"/>
			<rect x="758" y="411" fill="#DC5426" width="20" height="18"/>
			<rect x="778" y="429" fill="#DC5426" width="18" height="25"/>
			<rect x="778" y="411" fill="#DFC852" width="18" height="18"/>
			<rect x="796" y="429" fill="#DFC852" width="20" height="25"/>
			<rect x="816" y="454" fill="#DFC852" width="13" height="18"/>
			<rect x="740" y="454" fill="#DFC852" width="18" height="18"/>
			<rect x="740" y="472" fill="#DFC852" width="18" height="15"/>
			<rect x="758" y="487" fill="#DC5426" width="20" height="20"/>
			<rect x="740" y="487" fill="#DFC852" width="18" height="20"/>
			<rect x="758" y="429" fill="#DC5426" width="20" height="25"/>
			<rect x="740" y="411" fill="#DFC852" width="18" height="18"/>
			<rect x="740" y="396" fill="#DFC852" width="18" height="15"/>
			<rect x="758" y="396" fill="#DFC852" width="20" height="15"/>
			<rect x="829" y="472" fill="#DFC852" width="25" height="15"/>
			<rect x="854" y="429" fill="#DC5426" width="15" height="25"/>
			<rect x="829" y="454" fill="#DFC852" width="25" height="18"/>
			<rect x="829" y="411" fill="#DFC852" width="25" height="18"/>
			<rect x="829" y="396" fill="#DFC852" width="25" height="15"/>
			<rect x="816" y="472" fill="#DC5426" width="13" height="15"/>
			<rect x="854" y="454" fill="#DC5426" width="15" height="18"/>
			<rect x="854" y="472" fill="#DC5426" width="15" height="15"/>
			<rect x="829" y="487" fill="#DC5426" width="25" height="20"/>
			<rect x="854" y="487" fill="#DC5426" width="15" height="20"/>
			<rect x="829" y="429" fill="#DFC852" width="25" height="25"/>
			<rect x="854" y="411" fill="#DC5426" width="15" height="18"/>
			<rect x="854" y="396" fill="#DC5426" width="15" height="15"/>
		</g>
	</g>
	<g>
		<g>
			<rect x="242" y="975" fill="#DFC852" width="20" height="23"/>
			<rect x="204" y="998" fill="#DC5426" width="18" height="20"/>
			<rect x="222" y="975" fill="#DFC852" width="20" height="23"/>
			<rect x="222" y="940" fill="#DFC852" width="20" height="15"/>
			<rect x="184" y="975" fill="#DFC852" width="20" height="23"/>
			<rect x="204" y="955" fill="#DFC852" width="18" height="20"/>
			<rect x="184" y="955" fill="#DC5426" width="20" height="20"/>
			<rect x="204" y="940" fill="#DC5426" width="18" height="15"/>
			<rect x="222" y="922" fill="#DC5426" width="20" height="18"/>
			<rect x="222" y="998" fill="#DC5426" width="20" height="20"/>
			<rect x="242" y="998" fill="#DC5426" width="20" height="20"/>
			<rect x="262" y="975" fill="#DFC852" width="23" height="23"/>
			<rect x="262" y="998" fill="#DC5426" width="23" height="20"/>
			<rect x="204" y="975" fill="#DFC852" width="18" height="23"/>
			<rect x="184" y="998" fill="#DC5426" width="20" height="20"/>
			<rect x="171" y="998" fill="#DC5426" width="13" height="20"/>
			<rect x="171" y="975" fill="#DC5426" width="13" height="23"/>
			<rect x="242" y="902" fill="#DC5426" width="20" height="20"/>
			<rect x="204" y="884" fill="#DFC852" width="18" height="18"/>
			<rect x="222" y="902" fill="#DC5426" width="20" height="20"/>
			<rect x="184" y="902" fill="#DC5426" width="20" height="20"/>
			<rect x="171" y="902" fill="#DC5426" width="13" height="20"/>
			<rect x="242" y="922" fill="#DFC852" width="20" height="18"/>
			<rect x="222" y="884" fill="#DFC852" width="20" height="18"/>
			<rect x="242" y="884" fill="#DFC852" width="20" height="18"/>
			<rect x="262" y="902" fill="#DFC852" width="23" height="20"/>
			<rect x="262" y="884" fill="#DFC852" width="23" height="18"/>
			<rect x="204" y="902" fill="#DC5426" width="18" height="20"/>
			<rect x="184" y="884" fill="#DFC852" width="20" height="18"/>
			<rect x="171" y="884" fill="#DFC852" width="13" height="18"/>
		</g>
	</g>
	<g>
		<g>
			<rect x="614" y="965" fill="#DFC852" width="20" height="18"/>
			<rect x="614" y="983" fill="#DFC852" width="20" height="20"/>
			<rect x="634" y="1003" fill="#DC5426" width="18" height="15"/>
			<rect x="596" y="1003" fill="#DC5426" width="18" height="15"/>
			<rect x="614" y="1003" fill="#DC5426" width="20" height="15"/>
			<rect x="614" y="945" fill="#DFC852" width="20" height="20"/>
			<rect x="596" y="907" fill="#DFC852" width="18" height="20"/>
			<rect x="614" y="927" fill="#DFC852" width="20" height="18"/>
			<rect x="614" y="907" fill="#DFC852" width="20" height="20"/>
		</g>
	</g>
	<g>
		<g>
			<rect x="968" y="472" fill="#DC5426" width="20" height="15"/>
			<rect x="950" y="429" fill="#DFC852" width="18" height="25"/>
			<rect x="968" y="454" fill="#DC5426" width="20" height="18"/>
			<rect x="1026" y="472" fill="#DFC852" width="18" height="15"/>
			<rect x="1026" y="411" fill="#DFC852" width="18" height="18"/>
			<rect x="1006" y="411" fill="#DC5426" width="20" height="18"/>
			<rect x="968" y="411" fill="#DC5426" width="20" height="18"/>
			<rect x="988" y="411" fill="#DC5426" width="18" height="18"/>
			<rect x="1026" y="454" fill="#DFC852" width="18" height="18"/>
			<rect x="988" y="487" fill="#DFC852" width="18" height="20"/>
			<rect x="1006" y="487" fill="#DFC852" width="20" height="20"/>
			<rect x="1026" y="429" fill="#DFC852" width="18" height="25"/>
			<rect x="1006" y="472" fill="#DC5426" width="20" height="15"/>
			<rect x="988" y="472" fill="#DC5426" width="18" height="15"/>
			<rect x="950" y="454" fill="#DFC852" width="18" height="18"/>
			<rect x="950" y="472" fill="#DFC852" width="18" height="15"/>
			<rect x="968" y="487" fill="#DFC852" width="20" height="20"/>
			<rect x="968" y="429" fill="#DC5426" width="20" height="25"/>
			<rect x="1006" y="454" fill="#DC5426" width="20" height="18"/>
			<rect x="1006" y="429" fill="#DC5426" width="20" height="25"/>
			<rect x="950" y="411" fill="#DFC852" width="18" height="18"/>
			<rect x="968" y="396" fill="#DFC852" width="20" height="15"/>
			<rect x="988" y="396" fill="#DFC852" width="18" height="15"/>
			<rect x="1006" y="396" fill="#DFC852" width="20" height="15"/>
		</g>
	</g>
	<g>
		<g>
			<rect x="386" y="945" fill="#DC5426" width="18" height="15"/>
			<rect x="442" y="980" fill="#DFC852" width="20" height="18"/>
			<rect x="442" y="927" fill="#DFC852" width="20" height="18"/>
			<rect x="442" y="960" fill="#DFC852" width="20" height="20"/>
			<rect x="419" y="998" fill="#DC5426" width="23" height="20"/>
			<rect x="442" y="945" fill="#DFC852" width="20" height="15"/>
			<rect x="386" y="960" fill="#DC5426" width="18" height="20"/>
			<rect x="386" y="980" fill="#DC5426" width="18" height="18"/>
			<rect x="404" y="998" fill="#DC5426" width="15" height="20"/>
			<rect x="386" y="927" fill="#DC5426" width="18" height="18"/>
			<rect x="404" y="907" fill="#DFC852" width="15" height="20"/>
			<rect x="419" y="907" fill="#DFC852" width="23" height="20"/>
		</g>
	</g>
	<g>
		<g>
			<rect x="399" y="649" fill="#DFC852" width="20" height="15"/>
			<rect x="381" y="606" fill="#DC5426" width="18" height="25"/>
			<rect x="399" y="631" fill="#DFC852" width="20" height="18"/>
			<rect x="457" y="649" fill="#DC5426" width="20" height="15"/>
			<rect x="457" y="588" fill="#DC5426" width="20" height="18"/>
			<rect x="437" y="588" fill="#DFC852" width="20" height="18"/>
			<rect x="399" y="588" fill="#DFC852" width="20" height="18"/>
			<rect x="419" y="588" fill="#DFC852" width="18" height="18"/>
			<rect x="457" y="631" fill="#DC5426" width="20" height="18"/>
			<rect x="419" y="664" fill="#DC5426" width="18" height="18"/>
			<rect x="437" y="664" fill="#DC5426" width="20" height="18"/>
			<rect x="457" y="606" fill="#DC5426" width="20" height="25"/>
			<rect x="437" y="649" fill="#BEA331" width="20" height="15"/>
			<rect x="457" y="664" fill="#BEA331" width="20" height="18"/>
			<rect x="419" y="649" fill="#DFC852" width="18" height="15"/>
			<rect x="381" y="631" fill="#DC5426" width="18" height="18"/>
			<rect x="381" y="649" fill="#DC5426" width="18" height="15"/>
			<rect x="399" y="664" fill="#DC5426" width="20" height="18"/>
			<rect x="399" y="606" fill="#DFC852" width="20" height="25"/>
			<rect x="437" y="631" fill="#DFC852" width="20" height="18"/>
			<rect x="437" y="606" fill="#DFC852" width="20" height="25"/>
			<rect x="381" y="588" fill="#DC5426" width="18" height="18"/>
			<rect x="399" y="573" fill="#DC5426" width="20" height="15"/>
			<rect x="419" y="573" fill="#DC5426" width="18" height="15"/>
			<rect x="437" y="573" fill="#DC5426" width="20" height="15"/>
		</g>
	</g>
	<g>
		<g>
			<rect x="209" y="649" fill="#DFC852" width="18" height="15"/>
			<rect x="189" y="606" fill="#DC5426" width="20" height="25"/>
			<rect x="242" y="631" fill="#DC5426" width="20" height="18"/>
			<rect x="262" y="588" fill="#DC5426" width="23" height="18"/>
			<rect x="242" y="588" fill="#DFC852" width="20" height="18"/>
			<rect x="209" y="588" fill="#DFC852" width="18" height="18"/>
			<rect x="209" y="631" fill="#DC5426" width="18" height="18"/>
			<rect x="227" y="631" fill="#DC5426" width="15" height="18"/>
			<rect x="262" y="606" fill="#DC5426" width="23" height="25"/>
			<rect x="209" y="664" fill="#DFC852" width="18" height="18"/>
			<rect x="189" y="631" fill="#DC5426" width="20" height="18"/>
			<rect x="189" y="649" fill="#DC5426" width="20" height="15"/>
			<rect x="189" y="664" fill="#DC5426" width="20" height="18"/>
			<rect x="209" y="606" fill="#DFC852" width="18" height="25"/>
			<rect x="242" y="606" fill="#DFC852" width="20" height="25"/>
			<rect x="189" y="588" fill="#DC5426" width="20" height="18"/>
			<rect x="209" y="573" fill="#DC5426" width="18" height="15"/>
			<rect x="227" y="573" fill="#DC5426" width="15" height="15"/>
			<rect x="242" y="573" fill="#DC5426" width="20" height="15"/>
		</g>
	</g>
	<g>
		<g>
			<rect x="1001" y="765" fill="#DFC852" width="20" height="18"/>
			<rect x="1041" y="745" fill="#DFC852" width="18" height="20"/>
			<rect x="963" y="745" fill="#DFC852" width="20" height="20"/>
			<rect x="983" y="765" fill="#DFC852" width="18" height="18"/>
			<rect x="1001" y="783" fill="#DC5426" width="20" height="20"/>
			<rect x="1001" y="803" fill="#DC5426" width="20" height="18"/>
			<rect x="1001" y="821" fill="#DC5426" width="20" height="20"/>
			<rect x="1021" y="765" fill="#DFC852" width="20" height="18"/>
			<rect x="983" y="745" fill="#DC5426" width="18" height="20"/>
			<rect x="1021" y="745" fill="#DC5426" width="20" height="20"/>
			<rect x="1041" y="725" fill="#DC5426" width="18" height="20"/>
			<rect x="963" y="725" fill="#DC5426" width="20" height="20"/>
		</g>
	</g>
	<g>
		<g>
			<rect x="968" y="568" fill="#DC5426" width="20" height="20"/>
			<rect x="950" y="568" fill="#DFC852" width="18" height="20"/>
			<rect x="988" y="568" fill="#DC5426" width="18" height="20"/>
			<rect x="1006" y="568" fill="#DC5426" width="20" height="20"/>
			<rect x="1026" y="568" fill="#DC5426" width="18" height="20"/>
			<rect x="1044" y="568" fill="#DC5426" width="20" height="20"/>
			<rect x="1006" y="606" fill="#DC5426" width="20" height="20"/>
			<rect x="1006" y="626" fill="#DC5426" width="20" height="18"/>
			<rect x="1006" y="588" fill="#DC5426" width="20" height="18"/>
			<rect x="1006" y="664" fill="#DC5426" width="20" height="18"/>
			<rect x="1006" y="644" fill="#DC5426" width="20" height="20"/>
			<rect x="988" y="606" fill="#DFC852" width="18" height="20"/>
			<rect x="988" y="626" fill="#DFC852" width="18" height="18"/>
			<rect x="988" y="588" fill="#DFC852" width="18" height="18"/>
			<rect x="988" y="664" fill="#DFC852" width="18" height="18"/>
			<rect x="988" y="644" fill="#DFC852" width="18" height="20"/>
		</g>
	</g>
	<g>
		<g>
			<rect x="204" y="803" fill="#DFC852" width="18" height="23"/>
			<rect x="184" y="765" fill="#DC5426" width="20" height="23"/>
			<rect x="204" y="788" fill="#DFC852" width="18" height="15"/>
			<rect x="262" y="803" fill="#DC5426" width="23" height="23"/>
			<rect x="262" y="750" fill="#DC5426" width="23" height="15"/>
			<rect x="242" y="750" fill="#DFC852" width="20" height="15"/>
			<rect x="204" y="750" fill="#DFC852" width="18" height="15"/>
			<rect x="262" y="788" fill="#DC5426" width="23" height="15"/>
			<rect x="222" y="826" fill="#DC5426" width="20" height="15"/>
			<rect x="242" y="826" fill="#DC5426" width="20" height="15"/>
			<rect x="262" y="765" fill="#DC5426" width="23" height="23"/>
			<rect x="242" y="803" fill="#DFC852" width="20" height="23"/>
			<rect x="222" y="803" fill="#DFC852" width="20" height="23"/>
			<rect x="184" y="788" fill="#DC5426" width="20" height="15"/>
			<rect x="184" y="803" fill="#DC5426" width="20" height="23"/>
			<rect x="204" y="826" fill="#DC5426" width="18" height="15"/>
			<rect x="204" y="765" fill="#DFC852" width="18" height="23"/>
			<rect x="242" y="788" fill="#DFC852" width="20" height="15"/>
			<rect x="242" y="765" fill="#DFC852" width="20" height="23"/>
			<rect x="184" y="750" fill="#DC5426" width="20" height="15"/>
			<rect x="262" y="730" fill="#DC5426" width="23" height="20"/>
			<rect x="242" y="730" fill="#DFC852" width="20" height="20"/>
			<rect x="204" y="730" fill="#DFC852" width="18" height="20"/>
			<rect x="184" y="730" fill="#DC5426" width="20" height="20"/>
		</g>
	</g>
	<g>
		<g>
			<rect x="399" y="808" fill="#DC5426" width="20" height="18"/>
			<rect x="381" y="768" fill="#DC5426" width="18" height="20"/>
			<rect x="399" y="788" fill="#DFC852" width="20" height="20"/>
			<rect x="457" y="750" fill="#DC5426" width="20" height="18"/>
			<rect x="434" y="750" fill="#DFC852" width="23" height="18"/>
			<rect x="399" y="750" fill="#DFC852" width="20" height="18"/>
			<rect x="457" y="788" fill="#DC5426" width="20" height="20"/>
			<rect x="419" y="826" fill="#DC5426" width="15" height="20"/>
			<rect x="457" y="768" fill="#DC5426" width="20" height="20"/>
			<rect x="434" y="808" fill="#DC5426" width="23" height="18"/>
			<rect x="419" y="808" fill="#DFC852" width="15" height="18"/>
			<rect x="381" y="788" fill="#DC5426" width="18" height="20"/>
			<rect x="399" y="768" fill="#DFC852" width="20" height="20"/>
			<rect x="434" y="788" fill="#DFC852" width="23" height="20"/>
			<rect x="434" y="768" fill="#DFC852" width="23" height="20"/>
			<rect x="381" y="750" fill="#DC5426" width="18" height="18"/>
			<rect x="457" y="730" fill="#DC5426" width="20" height="20"/>
			<rect x="434" y="730" fill="#DFC852" width="23" height="20"/>
			<rect x="399" y="730" fill="#DFC852" width="20" height="20"/>
			<rect x="381" y="730" fill="#DC5426" width="18" height="20"/>
		</g>
	</g>
	<g>
		<g>
			<rect x="821" y="960" fill="#DC5426" width="18" height="20"/>
			<rect x="801" y="980" fill="#DC5426" width="20" height="18"/>
			<rect x="839" y="998" fill="#DFC852" width="20" height="20"/>
			<rect x="801" y="998" fill="#DFC852" width="20" height="20"/>
			<rect x="783" y="998" fill="#DC5426" width="18" height="20"/>
			<rect x="821" y="998" fill="#DFC852" width="18" height="20"/>
			<rect x="839" y="945" fill="#DC5426" width="20" height="15"/>
			<rect x="821" y="907" fill="#DC5426" width="18" height="20"/>
			<rect x="839" y="927" fill="#DC5426" width="20" height="18"/>
			<rect x="801" y="907" fill="#DC5426" width="20" height="20"/>
			<rect x="783" y="927" fill="#DC5426" width="18" height="18"/>
		</g>
	</g>
	<g>
		<g>
			<rect x="222" y="1147" fill="#DC5426" width="20" height="18"/>
			<rect x="222" y="1165" fill="#DC5426" width="20" height="20"/>
			<rect x="204" y="1147" fill="#DFC852" width="18" height="18"/>
			<rect x="242" y="1147" fill="#DFC852" width="20" height="18"/>
			<rect x="222" y="1185" fill="#DC5426" width="20" height="18"/>
			<rect x="184" y="1147" fill="#DFC852" width="20" height="18"/>
			<rect x="222" y="1127" fill="#DC5426" width="20" height="20"/>
			<rect x="204" y="1089" fill="#DFC852" width="18" height="20"/>
			<rect x="222" y="1109" fill="#DC5426" width="20" height="18"/>
			<rect x="184" y="1109" fill="#DFC852" width="20" height="18"/>
			<rect x="166" y="1127" fill="#DFC852" width="18" height="20"/>
		</g>
	</g>
	<g>
		<g>
			<rect x="1026" y="1314" fill="#DC5426" width="18" height="18"/>
			<rect x="1011" y="1347" fill="#DFC852" width="15" height="20"/>
			<rect x="1026" y="1332" fill="#DC5426" width="18" height="15"/>
			<rect x="1026" y="1294" fill="#DC5426" width="18" height="20"/>
			<rect x="1011" y="1256" fill="#DFC852" width="15" height="15"/>
			<rect x="1026" y="1271" fill="#DC5426" width="18" height="23"/>
		</g>
	</g>
	<g>
		<g>
			<rect x="209" y="1453" fill="#DFC852" width="18" height="18"/>
			<rect x="227" y="1415" fill="#DC5426" width="15" height="18"/>
			<rect x="209" y="1433" fill="#DFC852" width="18" height="20"/>
			<rect x="209" y="1471" fill="#DFC852" width="18" height="20"/>
			<rect x="227" y="1504" fill="#DC5426" width="15" height="20"/>
			<rect x="209" y="1491" fill="#DFC852" width="18" height="13"/>
		</g>
	</g>
	<g>
		<g>
			<rect x="391" y="1089" fill="#DFC852" width="18" height="20"/>
			<rect x="429" y="1165" fill="#DC5426" width="13" height="20"/>
			<rect x="409" y="1185" fill="#DC5426" width="20" height="18"/>
			<rect x="391" y="1185" fill="#DC5426" width="18" height="18"/>
			<rect x="429" y="1089" fill="#DFC852" width="13" height="20"/>
			<rect x="429" y="1147" fill="#DC5426" width="13" height="18"/>
			<rect x="391" y="1127" fill="#DC5426" width="18" height="20"/>
			<rect x="409" y="1127" fill="#DC5426" width="20" height="20"/>
			<rect x="391" y="1109" fill="#DFC852" width="18" height="18"/>
			<rect x="409" y="1089" fill="#DFC852" width="20" height="20"/>
		</g>
	</g>
	<g>
		<g>
			<rect x="614" y="1185" fill="#DFC852" width="15" height="18"/>
			<rect x="629" y="1185" fill="#DFC852" width="20" height="18"/>
			<rect x="596" y="1185" fill="#DFC852" width="18" height="18"/>
			<rect x="596" y="1089" fill="#DC5426" width="18" height="20"/>
			<rect x="629" y="1165" fill="#DFC852" width="20" height="20"/>
			<rect x="629" y="1089" fill="#DC5426" width="20" height="20"/>
			<rect x="629" y="1147" fill="#DFC852" width="20" height="18"/>
			<rect x="596" y="1165" fill="#DFC852" width="18" height="20"/>
			<rect x="596" y="1147" fill="#DFC852" width="18" height="18"/>
			<rect x="596" y="1132" fill="#DFC852" width="18" height="15"/>
			<rect x="614" y="1132" fill="#DFC852" width="15" height="15"/>
			<rect x="629" y="1132" fill="#DFC852" width="20" height="15"/>
			<rect x="596" y="1109" fill="#DC5426" width="18" height="23"/>
			<rect x="614" y="1089" fill="#DC5426" width="15" height="20"/>
		</g>
	</g>
	<g>
		<g>
			<rect x="1021" y="1185" fill="#DFC852" width="20" height="18"/>
			<rect x="1041" y="1185" fill="#DFC852" width="13" height="18"/>
			<rect x="1001" y="1185" fill="#DFC852" width="20" height="18"/>
			<rect x="1001" y="1089" fill="#DC5426" width="20" height="20"/>
			<rect x="1041" y="1165" fill="#DFC852" width="13" height="20"/>
			<rect x="1041" y="1089" fill="#DC5426" width="13" height="20"/>
			<rect x="1041" y="1147" fill="#DFC852" width="13" height="18"/>
			<rect x="1001" y="1165" fill="#DFC852" width="20" height="20"/>
			<rect x="1001" y="1147" fill="#DFC852" width="20" height="18"/>
			<rect x="1001" y="1132" fill="#DFC852" width="20" height="15"/>
			<rect x="1041" y="1109" fill="#DC5426" width="13" height="23"/>
			<rect x="1021" y="1132" fill="#DFC852" width="20" height="15"/>
			<rect x="1041" y="1132" fill="#DFC852" width="13" height="15"/>
			<rect x="1001" y="1109" fill="#DC5426" width="20" height="23"/>
			<rect x="1021" y="1089" fill="#DC5426" width="20" height="20"/>
		</g>
	</g>
	<g>
		<g>
			<rect x="214" y="1256" fill="#DFC852" width="18" height="20"/>
			<rect x="194" y="1256" fill="#DFC852" width="20" height="20"/>
			<rect x="232" y="1256" fill="#DFC852" width="20" height="20"/>
			<rect x="232" y="1347" fill="#DC5426" width="20" height="20"/>
			<rect x="194" y="1276" fill="#DFC852" width="20" height="18"/>
			<rect x="194" y="1347" fill="#DC5426" width="20" height="20"/>
			<rect x="194" y="1294" fill="#DFC852" width="20" height="15"/>
			<rect x="232" y="1276" fill="#DFC852" width="20" height="18"/>
			<rect x="232" y="1294" fill="#DFC852" width="20" height="15"/>
			<rect x="232" y="1309" fill="#DFC852" width="20" height="20"/>
			<rect x="214" y="1309" fill="#DFC852" width="18" height="20"/>
			<rect x="194" y="1309" fill="#DFC852" width="20" height="20"/>
			<rect x="232" y="1329" fill="#DC5426" width="20" height="18"/>
			<rect x="214" y="1347" fill="#DC5426" width="18" height="20"/>
		</g>
	</g>
	<g>
		<g>
			<rect x="806" y="1185" fill="#DC5426" width="20" height="18"/>
			<rect x="806" y="1089" fill="#DFC852" width="20" height="20"/>
			<rect x="806" y="1165" fill="#DC5426" width="20" height="20"/>
			<rect x="844" y="1089" fill="#DFC852" width="20" height="20"/>
			<rect x="806" y="1147" fill="#DC5426" width="20" height="18"/>
			<rect x="844" y="1109" fill="#DC5426" width="20" height="23"/>
			<rect x="826" y="1132" fill="#DC5426" width="18" height="15"/>
			<rect x="786" y="1089" fill="#DFC852" width="20" height="20"/>
			<rect x="826" y="1089" fill="#DFC852" width="18" height="20"/>
		</g>
	</g>
	<g>
		<g>
			<rect x="1021" y="945" fill="#DFC852" width="20" height="20"/>
			<rect x="1041" y="965" fill="#DC5426" width="13" height="18"/>
			<rect x="1001" y="998" fill="#DC5426" width="20" height="20"/>
			<rect x="1041" y="983" fill="#DC5426" width="13" height="15"/>
			<rect x="983" y="983" fill="#DC5426" width="18" height="15"/>
			<rect x="1021" y="998" fill="#DC5426" width="20" height="20"/>
			<rect x="1021" y="907" fill="#DC5426" width="20" height="15"/>
			<rect x="1041" y="922" fill="#DC5426" width="13" height="23"/>
			<rect x="1001" y="907" fill="#DC5426" width="20" height="15"/>
			<rect x="983" y="922" fill="#DC5426" width="18" height="23"/>
		</g>
	</g>
	<g>
		<g>
			<rect x="624" y="1332" fill="#DFC852" width="20" height="15"/>
		</g>
		<g>
			<rect x="609" y="1347" fill="#DC5426" width="15" height="20"/>
		</g>
	</g>
	<g>
		<rect x="419" y="1347" fill="#DC5426" width="15" height="20"/>
	</g>
	<g>
		<g>
			<rect x="811" y="1347" fill="#DC5426" width="18" height="20"/>
		</g>
		<g>
			<rect x="829" y="1332" fill="#DFC852" width="15" height="15"/>
		</g>
		<g>
			<rect x="829" y="1299" fill="#DFC852" width="15" height="15"/>
		</g>
	</g>
</g>
</svg>
