<?xml version="1.0" encoding="utf-8"?>
<!-- Generator: Adobe Illustrator 17.0.0, SVG Export Plug-In . SVG Version: 6.00 Build 0)  -->
<!DOCTYPE svg PUBLIC "-//W3C//DTD SVG 1.1//EN" "http://www.w3.org/Graphics/SVG/1.1/DTD/svg11.dtd">
<svg version="1.1" id="Layer_1" xmlns="http://www.w3.org/2000/svg" xmlns:xlink="http://www.w3.org/1999/xlink" x="0px" y="0px"
	 width="1224px" height="1584px" viewBox="0 0 1224 1584" enable-background="new 0 0 1224 1584" xml:space="preserve">
<g>
	<g>
		<g>
			<rect x="88" y="113" fill="#DD5226" width="13" height="13"/>
			<rect x="88" y="102" fill="#DD5226" width="13" height="11"/>
			<rect x="88" y="90" fill="#DD5226" width="13" height="12"/>
			<rect x="88" y="76" fill="#DD5226" width="13" height="14"/>
			<rect x="127" y="113" fill="#DD5226" width="11" height="13"/>
			<rect x="127" y="102" fill="#DD5226" width="11" height="11"/>
			<rect x="127" y="90" fill="#DD5226" width="11" height="12"/>
			<rect x="127" y="76" fill="#DD5226" width="11" height="14"/>
			<rect x="138" y="113" fill="#DFC852" width="13" height="13"/>
			<rect x="138" y="102" fill="#DFC852" width="13" height="11"/>
			<rect x="138" y="90" fill="#DFC852" width="13" height="12"/>
			<rect x="138" y="76" fill="#DFC852" width="13" height="14"/>
			<rect x="77" y="113" fill="#DFC852" width="11" height="13"/>
			<rect x="77" y="102" fill="#DFC852" width="11" height="11"/>
			<rect x="77" y="90" fill="#DFC852" width="11" height="12"/>
			<rect x="77" y="76" fill="#DFC852" width="11" height="14"/>
			<rect x="88" y="63" fill="#DFC852" width="13" height="13"/>
			<rect x="127" y="63" fill="#DFC852" width="11" height="13"/>
			<rect x="115" y="52" fill="#DFC852" width="12" height="11"/>
			<rect x="101" y="52" fill="#DFC852" width="14" height="11"/>
			<rect x="101" y="102" fill="#DD5226" width="14" height="11"/>
			<rect x="115" y="102" fill="#DD5226" width="12" height="11"/>
			<rect x="115" y="63" fill="#DD5226" width="12" height="13"/>
			<rect x="101" y="63" fill="#DD5226" width="14" height="13"/>
		</g>
	</g>
	<g>
		<g>
			<rect x="127" y="390" fill="#DD5226" width="11" height="14"/>
			<rect x="127" y="353" fill="#DD5226" width="11" height="11"/>
			<rect x="88" y="390" fill="#DD5226" width="13" height="14"/>
			<rect x="115" y="379" fill="#DD5226" width="12" height="11"/>
			<rect x="101" y="364" fill="#DD5226" width="14" height="15"/>
			<rect x="88" y="353" fill="#DD5226" width="13" height="11"/>
			<rect x="115" y="364" fill="#DFC852" width="12" height="15"/>
			<rect x="101" y="353" fill="#DFC852" width="14" height="11"/>
			<rect x="127" y="379" fill="#DFC852" width="11" height="11"/>
			<rect x="115" y="404" fill="#DD5226" width="12" height="11"/>
			<rect x="101" y="404" fill="#DD5226" width="14" height="11"/>
			<rect x="115" y="341" fill="#DD5226" width="12" height="12"/>
			<rect x="101" y="341" fill="#DD5226" width="14" height="12"/>
		</g>
	</g>
	<g>
		<g>
			<rect x="248" y="63" fill="#DD5226" width="13" height="13"/>
			<rect x="261" y="102" fill="#DFC852" width="12" height="11"/>
			<rect x="248" y="76" fill="#DFC852" width="13" height="14"/>
			<rect x="237" y="102" fill="#DD5226" width="11" height="11"/>
			<rect x="248" y="90" fill="#DD5226" width="13" height="12"/>
			<rect x="225" y="102" fill="#DD5226" width="12" height="11"/>
			<rect x="225" y="90" fill="#DD5226" width="12" height="12"/>
			<rect x="225" y="76" fill="#DD5226" width="12" height="14"/>
			<rect x="212" y="63" fill="#DFC852" width="13" height="13"/>
			<rect x="237" y="76" fill="#DD5226" width="11" height="14"/>
			<rect x="261" y="63" fill="#DFC852" width="12" height="13"/>
			<rect x="261" y="90" fill="#DFC852" width="12" height="12"/>
			<rect x="248" y="102" fill="#DD5226" width="13" height="11"/>
			<rect x="248" y="113" fill="#DFC852" width="13" height="13"/>
			<rect x="237" y="113" fill="#DFC852" width="11" height="13"/>
			<rect x="225" y="113" fill="#DFC852" width="12" height="13"/>
			<rect x="212" y="113" fill="#DFC852" width="13" height="13"/>
			<rect x="212" y="102" fill="#DFC852" width="13" height="11"/>
			<rect x="212" y="90" fill="#DFC852" width="13" height="12"/>
			<rect x="212" y="76" fill="#DFC852" width="13" height="14"/>
			<rect x="225" y="63" fill="#DD5226" width="12" height="13"/>
			<rect x="212" y="52" fill="#DFC852" width="13" height="11"/>
			<rect x="225" y="52" fill="#DFC852" width="12" height="11"/>
			<rect x="237" y="52" fill="#DFC852" width="11" height="11"/>
			<rect x="248" y="52" fill="#DFC852" width="13" height="11"/>
		</g>
	</g>
	<g>
		<g>
			<rect x="375" y="63" fill="#DD5226" width="13" height="13"/>
			<rect x="388" y="63" fill="#DFC852" width="14" height="13"/>
			<rect x="375" y="52" fill="#DFC852" width="13" height="11"/>
			<rect x="364" y="52" fill="#DFC852" width="11" height="11"/>
			<rect x="352" y="52" fill="#DFC852" width="12" height="11"/>
			<rect x="352" y="63" fill="#DD5226" width="12" height="13"/>
			<rect x="339" y="63" fill="#DFC852" width="13" height="13"/>
			<rect x="339" y="76" fill="#DFC852" width="13" height="14"/>
			<rect x="339" y="90" fill="#DFC852" width="13" height="12"/>
			<rect x="339" y="102" fill="#DFC852" width="13" height="11"/>
			<rect x="352" y="76" fill="#DD5226" width="12" height="14"/>
			<rect x="352" y="90" fill="#DD5226" width="12" height="12"/>
			<rect x="352" y="102" fill="#DD5226" width="12" height="11"/>
			<rect x="352" y="113" fill="#DFC852" width="12" height="13"/>
			<rect x="364" y="113" fill="#DFC852" width="11" height="13"/>
			<rect x="375" y="113" fill="#DFC852" width="13" height="13"/>
			<rect x="375" y="102" fill="#DD5226" width="13" height="11"/>
			<rect x="388" y="102" fill="#DFC852" width="14" height="11"/>
		</g>
	</g>
	<g>
		<g>
			<rect x="88" y="247" fill="#DD5226" width="13" height="11"/>
			<rect x="101" y="258" fill="#DD5226" width="14" height="12"/>
			<rect x="115" y="258" fill="#DD5226" width="12" height="12"/>
			<rect x="115" y="247" fill="#DFC852" width="12" height="11"/>
			<rect x="127" y="247" fill="#DD5226" width="11" height="11"/>
			<rect x="127" y="234" fill="#DD5226" width="11" height="13"/>
			<rect x="127" y="220" fill="#DD5226" width="11" height="14"/>
			<rect x="127" y="207" fill="#DD5226" width="11" height="13"/>
			<rect x="115" y="234" fill="#DFC852" width="12" height="13"/>
			<rect x="115" y="220" fill="#DFC852" width="12" height="14"/>
			<rect x="115" y="207" fill="#DFC852" width="12" height="13"/>
			<rect x="127" y="196" fill="#DD5226" width="11" height="11"/>
			<rect x="115" y="196" fill="#DFC852" width="12" height="11"/>
			<rect x="101" y="247" fill="#DFC852" width="14" height="11"/>
		</g>
	</g>
	<g>
		<g>
			<rect x="242" y="207" fill="#DD5226" width="12" height="13"/>
			<rect x="229" y="220" fill="#DD5226" width="13" height="14"/>
			<rect x="254" y="196" fill="#DD5226" width="11" height="11"/>
			<rect x="217" y="258" fill="#DD5226" width="12" height="12"/>
			<rect x="204" y="247" fill="#DFC852" width="13" height="11"/>
			<rect x="204" y="258" fill="#DFC852" width="13" height="12"/>
			<rect x="217" y="247" fill="#DD5226" width="12" height="11"/>
			<rect x="217" y="234" fill="#DD5226" width="12" height="13"/>
			<rect x="217" y="220" fill="#DD5226" width="12" height="14"/>
			<rect x="217" y="207" fill="#DD5226" width="12" height="13"/>
			<rect x="204" y="234" fill="#DFC852" width="13" height="13"/>
			<rect x="204" y="220" fill="#DFC852" width="13" height="14"/>
			<rect x="204" y="207" fill="#DFC852" width="13" height="13"/>
			<rect x="217" y="196" fill="#DD5226" width="12" height="11"/>
			<rect x="204" y="196" fill="#DFC852" width="13" height="11"/>
			<rect x="242" y="196" fill="#DFC852" width="12" height="11"/>
			<rect x="229" y="207" fill="#DFC852" width="13" height="13"/>
			<rect x="254" y="247" fill="#DD5226" width="11" height="11"/>
			<rect x="265" y="258" fill="#DD5226" width="13" height="12"/>
			<rect x="242" y="234" fill="#DD5226" width="12" height="13"/>
			<rect x="242" y="247" fill="#DFC852" width="12" height="11"/>
			<rect x="229" y="234" fill="#DFC852" width="13" height="13"/>
			<rect x="254" y="258" fill="#DFC852" width="11" height="12"/>
		</g>
	</g>
	<g>
		<g>
			<rect x="523" y="76" fill="#DD5226" width="12" height="14"/>
			<rect x="523" y="90" fill="#DD5226" width="12" height="12"/>
			<rect x="473" y="102" fill="#DD5226" width="12" height="11"/>
			<rect x="462" y="76" fill="#DFC852" width="11" height="14"/>
			<rect x="473" y="90" fill="#DD5226" width="12" height="12"/>
			<rect x="510" y="102" fill="#DD5226" width="13" height="11"/>
			<rect x="510" y="63" fill="#DD5226" width="13" height="13"/>
			<rect x="498" y="63" fill="#DFC852" width="12" height="13"/>
			<rect x="473" y="63" fill="#DD5226" width="12" height="13"/>
			<rect x="485" y="63" fill="#DFC852" width="13" height="13"/>
			<rect x="510" y="90" fill="#DFC852" width="13" height="12"/>
			<rect x="485" y="113" fill="#DD5226" width="13" height="13"/>
			<rect x="498" y="113" fill="#DD5226" width="12" height="13"/>
			<rect x="510" y="76" fill="#DFC852" width="13" height="14"/>
			<rect x="498" y="102" fill="#DFC852" width="12" height="11"/>
			<rect x="485" y="102" fill="#DFC852" width="13" height="11"/>
			<rect x="462" y="90" fill="#DFC852" width="11" height="12"/>
			<rect x="462" y="102" fill="#DFC852" width="11" height="11"/>
			<rect x="473" y="113" fill="#DD5226" width="12" height="13"/>
			<rect x="462" y="113" fill="#DFC852" width="11" height="13"/>
			<rect x="473" y="76" fill="#DD5226" width="12" height="14"/>
			<rect x="462" y="63" fill="#DFC852" width="11" height="13"/>
			<rect x="462" y="52" fill="#DFC852" width="11" height="11"/>
			<rect x="473" y="52" fill="#DD5226" width="12" height="11"/>
			<rect x="485" y="52" fill="#DD5226" width="13" height="11"/>
			<rect x="498" y="52" fill="#DD5226" width="12" height="11"/>
		</g>
	</g>
	<g>
		<g>
			<rect x="612" y="102" fill="#DD5226" width="13" height="11"/>
			<rect x="600" y="76" fill="#DFC852" width="12" height="14"/>
			<rect x="612" y="90" fill="#DD5226" width="13" height="12"/>
			<rect x="639" y="76" fill="#DD5226" width="11" height="14"/>
			<rect x="612" y="63" fill="#DD5226" width="13" height="13"/>
			<rect x="625" y="76" fill="#DD5226" width="14" height="14"/>
			<rect x="625" y="113" fill="#DFC852" width="14" height="13"/>
			<rect x="639" y="113" fill="#DFC852" width="11" height="13"/>
			<rect x="600" y="90" fill="#DFC852" width="12" height="12"/>
			<rect x="600" y="102" fill="#DFC852" width="12" height="11"/>
			<rect x="612" y="113" fill="#DFC852" width="13" height="13"/>
			<rect x="600" y="113" fill="#DFC852" width="12" height="13"/>
			<rect x="612" y="76" fill="#DD5226" width="13" height="14"/>
			<rect x="600" y="63" fill="#DFC852" width="12" height="13"/>
			<rect x="600" y="52" fill="#DFC852" width="12" height="11"/>
			<rect x="612" y="52" fill="#DFC852" width="13" height="11"/>
			<rect x="625" y="52" fill="#DFC852" width="14" height="11"/>
			<rect x="639" y="52" fill="#DFC852" width="11" height="11"/>
		</g>
	</g>
	<g>
		<g>
			<rect x="975" y="102" fill="#DFC852" width="11" height="11"/>
			<rect x="986" y="76" fill="#DD5226" width="13" height="14"/>
			<rect x="975" y="90" fill="#DFC852" width="11" height="12"/>
			<rect x="975" y="113" fill="#DFC852" width="11" height="13"/>
			<rect x="975" y="63" fill="#DFC852" width="11" height="13"/>
			<rect x="975" y="52" fill="#DFC852" width="11" height="11"/>
			<rect x="1010" y="90" fill="#DD5226" width="12" height="12"/>
			<rect x="1022" y="113" fill="#DFC852" width="14" height="13"/>
			<rect x="1022" y="102" fill="#DFC852" width="14" height="11"/>
			<rect x="1022" y="90" fill="#DD5226" width="14" height="12"/>
			<rect x="1022" y="76" fill="#DD5226" width="14" height="14"/>
			<rect x="1022" y="63" fill="#DFC852" width="14" height="13"/>
			<rect x="986" y="90" fill="#DD5226" width="13" height="12"/>
			<rect x="986" y="102" fill="#DD5226" width="13" height="11"/>
			<rect x="999" y="90" fill="#DD5226" width="11" height="12"/>
			<rect x="986" y="113" fill="#DD5226" width="13" height="13"/>
			<rect x="975" y="76" fill="#DFC852" width="11" height="14"/>
			<rect x="1036" y="102" fill="#DD5226" width="11" height="11"/>
			<rect x="1036" y="90" fill="#DD5226" width="11" height="12"/>
			<rect x="1036" y="113" fill="#DD5226" width="11" height="13"/>
			<rect x="1036" y="63" fill="#DD5226" width="11" height="13"/>
			<rect x="1036" y="52" fill="#DD5226" width="11" height="11"/>
			<rect x="1036" y="76" fill="#DD5226" width="11" height="14"/>
			<rect x="986" y="63" fill="#DD5226" width="13" height="13"/>
			<rect x="986" y="52" fill="#DD5226" width="13" height="11"/>
			<rect x="999" y="76" fill="#DD5226" width="11" height="14"/>
			<rect x="1010" y="76" fill="#DD5226" width="12" height="14"/>
			<rect x="1022" y="52" fill="#DFC852" width="14" height="11"/>
		</g>
	</g>
	<g>
		<g>
			<rect x="1137" y="52" fill="#DD5226" width="14" height="11"/>
			<rect x="1137" y="63" fill="#DD5226" width="14" height="13"/>
			<rect x="1137" y="76" fill="#DD5226" width="14" height="14"/>
			<rect x="1137" y="90" fill="#DD5226" width="14" height="12"/>
			<rect x="1137" y="102" fill="#DD5226" width="14" height="11"/>
			<rect x="1126" y="63" fill="#DFC852" width="11" height="13"/>
			<rect x="1126" y="76" fill="#DFC852" width="11" height="14"/>
			<rect x="1126" y="52" fill="#DFC852" width="11" height="11"/>
			<rect x="1126" y="102" fill="#DFC852" width="11" height="11"/>
			<rect x="1126" y="113" fill="#DFC852" width="11" height="13"/>
			<rect x="1126" y="90" fill="#DFC852" width="11" height="12"/>
			<rect x="1137" y="113" fill="#DD5226" width="14" height="13"/>
		</g>
	</g>
	<g>
		<g>
			<rect x="741" y="102" fill="#DD5226" width="13" height="11"/>
			<rect x="729" y="76" fill="#DFC852" width="12" height="14"/>
			<rect x="741" y="90" fill="#DD5226" width="13" height="12"/>
			<rect x="768" y="76" fill="#DD5226" width="11" height="14"/>
			<rect x="741" y="63" fill="#DD5226" width="13" height="13"/>
			<rect x="754" y="76" fill="#DD5226" width="14" height="14"/>
			<rect x="729" y="90" fill="#DFC852" width="12" height="12"/>
			<rect x="729" y="102" fill="#DFC852" width="12" height="11"/>
			<rect x="741" y="113" fill="#DD5226" width="13" height="13"/>
			<rect x="729" y="113" fill="#DFC852" width="12" height="13"/>
			<rect x="741" y="76" fill="#DD5226" width="13" height="14"/>
			<rect x="729" y="63" fill="#DFC852" width="12" height="13"/>
			<rect x="729" y="52" fill="#DFC852" width="12" height="11"/>
			<rect x="741" y="52" fill="#DFC852" width="13" height="11"/>
			<rect x="754" y="52" fill="#DFC852" width="14" height="11"/>
			<rect x="768" y="52" fill="#DFC852" width="11" height="11"/>
		</g>
	</g>
	<g>
		<g>
			<rect x="1118" y="247" fill="#DFC852" width="14" height="11"/>
			<rect x="1105" y="220" fill="#DD5226" width="13" height="14"/>
			<rect x="1118" y="234" fill="#DFC852" width="14" height="13"/>
			<rect x="1145" y="234" fill="#DD5226" width="11" height="13"/>
			<rect x="1118" y="207" fill="#DFC852" width="14" height="13"/>
			<rect x="1132" y="234" fill="#DD5226" width="13" height="13"/>
			<rect x="1105" y="234" fill="#DD5226" width="13" height="13"/>
			<rect x="1105" y="247" fill="#DD5226" width="13" height="11"/>
			<rect x="1118" y="258" fill="#DFC852" width="14" height="12"/>
			<rect x="1105" y="258" fill="#DD5226" width="13" height="12"/>
			<rect x="1118" y="220" fill="#DFC852" width="14" height="14"/>
			<rect x="1105" y="207" fill="#DD5226" width="13" height="13"/>
			<rect x="1105" y="196" fill="#DD5226" width="13" height="11"/>
			<rect x="1118" y="196" fill="#DD5226" width="14" height="11"/>
			<rect x="1132" y="196" fill="#DD5226" width="13" height="11"/>
			<rect x="1145" y="196" fill="#DD5226" width="11" height="11"/>
			<rect x="1156" y="207" fill="#DD5226" width="12" height="13"/>
			<rect x="1156" y="220" fill="#DD5226" width="12" height="14"/>
			<rect x="1156" y="258" fill="#DD5226" width="12" height="12"/>
			<rect x="1156" y="247" fill="#DD5226" width="12" height="11"/>
		</g>
	</g>
	<g>
		<g>
			<rect x="889" y="63" fill="#DD5226" width="11" height="13"/>
			<rect x="900" y="63" fill="#DFC852" width="12" height="13"/>
			<rect x="889" y="52" fill="#DFC852" width="11" height="11"/>
			<rect x="876" y="52" fill="#DFC852" width="13" height="11"/>
			<rect x="864" y="52" fill="#DFC852" width="12" height="11"/>
			<rect x="864" y="63" fill="#DD5226" width="12" height="13"/>
			<rect x="851" y="63" fill="#DFC852" width="13" height="13"/>
			<rect x="851" y="76" fill="#DFC852" width="13" height="14"/>
			<rect x="851" y="90" fill="#DFC852" width="13" height="12"/>
			<rect x="851" y="102" fill="#DFC852" width="13" height="11"/>
			<rect x="864" y="76" fill="#DD5226" width="12" height="14"/>
			<rect x="864" y="90" fill="#DD5226" width="12" height="12"/>
			<rect x="864" y="102" fill="#DD5226" width="12" height="11"/>
			<rect x="864" y="113" fill="#DFC852" width="12" height="13"/>
			<rect x="876" y="113" fill="#DFC852" width="13" height="13"/>
			<rect x="889" y="113" fill="#DFC852" width="11" height="13"/>
			<rect x="889" y="102" fill="#DD5226" width="11" height="11"/>
			<rect x="876" y="102" fill="#DD5226" width="13" height="11"/>
			<rect x="876" y="63" fill="#DD5226" width="13" height="13"/>
			<rect x="900" y="102" fill="#DFC852" width="12" height="11"/>
			<rect x="900" y="90" fill="#DFC852" width="12" height="12"/>
			<rect x="889" y="90" fill="#DFC852" width="11" height="12"/>
		</g>
	</g>
	<g>
		<g>
			<rect x="358" y="247" fill="#DD5226" width="13" height="11"/>
			<rect x="345" y="220" fill="#DFC852" width="13" height="14"/>
			<rect x="358" y="234" fill="#DD5226" width="13" height="13"/>
			<rect x="383" y="247" fill="#DD5226" width="11" height="11"/>
			<rect x="358" y="207" fill="#DD5226" width="13" height="13"/>
			<rect x="371" y="247" fill="#DD5226" width="12" height="11"/>
			<rect x="371" y="258" fill="#DFC852" width="12" height="12"/>
			<rect x="383" y="258" fill="#DFC852" width="11" height="12"/>
			<rect x="345" y="234" fill="#DFC852" width="13" height="13"/>
			<rect x="345" y="247" fill="#DFC852" width="13" height="11"/>
			<rect x="358" y="258" fill="#DFC852" width="13" height="12"/>
			<rect x="345" y="258" fill="#DFC852" width="13" height="12"/>
			<rect x="358" y="220" fill="#DD5226" width="13" height="14"/>
			<rect x="345" y="207" fill="#DFC852" width="13" height="13"/>
			<rect x="345" y="196" fill="#DFC852" width="13" height="11"/>
			<rect x="358" y="196" fill="#DD5226" width="13" height="11"/>
		</g>
	</g>
	<g>
		<g>
			<rect x="466" y="247" fill="#DD5226" width="13" height="11"/>
			<rect x="454" y="220" fill="#DFC852" width="12" height="14"/>
			<rect x="466" y="234" fill="#DD5226" width="13" height="13"/>
			<rect x="491" y="234" fill="#DD5226" width="11" height="13"/>
			<rect x="466" y="207" fill="#DD5226" width="13" height="13"/>
			<rect x="479" y="220" fill="#DD5226" width="12" height="14"/>
			<rect x="479" y="207" fill="#DFC852" width="12" height="13"/>
			<rect x="491" y="220" fill="#DFC852" width="11" height="14"/>
			<rect x="454" y="234" fill="#DFC852" width="12" height="13"/>
			<rect x="454" y="247" fill="#DFC852" width="12" height="11"/>
			<rect x="466" y="258" fill="#DD5226" width="13" height="12"/>
			<rect x="454" y="258" fill="#DFC852" width="12" height="12"/>
			<rect x="466" y="220" fill="#DD5226" width="13" height="14"/>
			<rect x="454" y="207" fill="#DFC852" width="12" height="13"/>
			<rect x="454" y="196" fill="#DFC852" width="12" height="11"/>
			<rect x="466" y="196" fill="#DFC852" width="13" height="11"/>
			<rect x="517" y="247" fill="#DD5226" width="12" height="11"/>
			<rect x="529" y="220" fill="#DFC852" width="13" height="14"/>
			<rect x="517" y="234" fill="#DD5226" width="12" height="13"/>
			<rect x="517" y="207" fill="#DD5226" width="12" height="13"/>
			<rect x="502" y="220" fill="#DD5226" width="15" height="14"/>
			<rect x="502" y="207" fill="#DFC852" width="15" height="13"/>
			<rect x="529" y="234" fill="#DFC852" width="13" height="13"/>
			<rect x="529" y="247" fill="#DFC852" width="13" height="11"/>
			<rect x="517" y="258" fill="#DD5226" width="12" height="12"/>
			<rect x="529" y="258" fill="#DFC852" width="13" height="12"/>
			<rect x="517" y="220" fill="#DD5226" width="12" height="14"/>
			<rect x="529" y="207" fill="#DFC852" width="13" height="13"/>
			<rect x="529" y="196" fill="#DFC852" width="13" height="11"/>
			<rect x="517" y="196" fill="#DFC852" width="12" height="11"/>
		</g>
	</g>
	<g>
		<g>
			<rect x="644" y="353" fill="#DFC852" width="14" height="11"/>
			<rect x="658" y="379" fill="#DD5226" width="11" height="11"/>
			<rect x="644" y="364" fill="#DFC852" width="14" height="15"/>
			<rect x="620" y="364" fill="#DFC852" width="13" height="15"/>
			<rect x="644" y="390" fill="#DFC852" width="14" height="14"/>
			<rect x="633" y="379" fill="#DFC852" width="11" height="11"/>
			<rect x="633" y="390" fill="#DD5226" width="11" height="14"/>
			<rect x="620" y="379" fill="#DD5226" width="13" height="11"/>
			<rect x="658" y="364" fill="#DD5226" width="11" height="15"/>
			<rect x="658" y="353" fill="#DD5226" width="11" height="11"/>
			<rect x="644" y="341" fill="#DFC852" width="14" height="12"/>
			<rect x="658" y="341" fill="#DD5226" width="11" height="12"/>
			<rect x="644" y="379" fill="#DFC852" width="14" height="11"/>
			<rect x="658" y="390" fill="#DD5226" width="11" height="14"/>
			<rect x="658" y="404" fill="#DD5226" width="11" height="11"/>
			<rect x="644" y="404" fill="#DD5226" width="14" height="11"/>
			<rect x="595" y="353" fill="#DFC852" width="13" height="11"/>
			<rect x="583" y="379" fill="#DD5226" width="12" height="11"/>
			<rect x="595" y="364" fill="#DFC852" width="13" height="15"/>
			<rect x="595" y="390" fill="#DFC852" width="13" height="14"/>
			<rect x="608" y="379" fill="#DFC852" width="12" height="11"/>
			<rect x="608" y="390" fill="#DD5226" width="12" height="14"/>
			<rect x="583" y="364" fill="#DD5226" width="12" height="15"/>
			<rect x="583" y="353" fill="#DD5226" width="12" height="11"/>
			<rect x="595" y="341" fill="#DFC852" width="13" height="12"/>
			<rect x="583" y="341" fill="#DD5226" width="12" height="12"/>
			<rect x="595" y="379" fill="#DFC852" width="13" height="11"/>
			<rect x="583" y="390" fill="#DD5226" width="12" height="14"/>
			<rect x="583" y="404" fill="#DD5226" width="12" height="11"/>
			<rect x="595" y="404" fill="#DD5226" width="13" height="11"/>
		</g>
	</g>
	<g>
		<g>
			<rect x="754" y="377" fill="#DFC852" width="14" height="14"/>
			<rect x="768" y="391" fill="#DFC852" width="14" height="14"/>
			<rect x="782" y="405" fill="#DFC852" width="14" height="14"/>
			<rect x="740" y="377" fill="#DD5226" width="14" height="14"/>
			<rect x="725" y="391" fill="#DD5226" width="15" height="14"/>
			<rect x="711" y="405" fill="#DD5226" width="14" height="14"/>
			<rect x="740" y="363" fill="#DFC852" width="14" height="14"/>
			<rect x="711" y="391" fill="#DFC852" width="14" height="14"/>
			<rect x="725" y="377" fill="#DFC852" width="15" height="14"/>
			<rect x="754" y="349" fill="#DFC852" width="14" height="14"/>
			<rect x="768" y="335" fill="#DFC852" width="14" height="14"/>
			<rect x="725" y="349" fill="#DFC852" width="15" height="14"/>
			<rect x="711" y="335" fill="#DFC852" width="14" height="14"/>
			<rect x="754" y="363" fill="#DD5226" width="14" height="14"/>
			<rect x="768" y="377" fill="#DD5226" width="14" height="14"/>
			<rect x="782" y="391" fill="#DD5226" width="14" height="14"/>
			<rect x="740" y="349" fill="#DD5226" width="14" height="14"/>
			<rect x="725" y="335" fill="#DD5226" width="15" height="14"/>
			<rect x="768" y="349" fill="#DD5226" width="14" height="14"/>
			<rect x="782" y="335" fill="#DD5226" width="14" height="14"/>
		</g>
	</g>
	<g>
		<g>
			<rect x="595" y="247" fill="#DD5226" width="13" height="11"/>
			<rect x="583" y="220" fill="#DFC852" width="12" height="14"/>
			<rect x="595" y="234" fill="#DD5226" width="13" height="13"/>
			<rect x="620" y="234" fill="#DD5226" width="13" height="13"/>
			<rect x="595" y="207" fill="#DD5226" width="13" height="13"/>
			<rect x="608" y="220" fill="#DD5226" width="12" height="14"/>
			<rect x="608" y="207" fill="#DFC852" width="12" height="13"/>
			<rect x="620" y="220" fill="#DFC852" width="13" height="14"/>
			<rect x="633" y="234" fill="#DFC852" width="11" height="13"/>
			<rect x="583" y="234" fill="#DFC852" width="12" height="13"/>
			<rect x="583" y="247" fill="#DFC852" width="12" height="11"/>
			<rect x="595" y="258" fill="#DD5226" width="13" height="12"/>
			<rect x="583" y="258" fill="#DFC852" width="12" height="12"/>
			<rect x="595" y="220" fill="#DD5226" width="13" height="14"/>
			<rect x="583" y="207" fill="#DFC852" width="12" height="13"/>
			<rect x="583" y="196" fill="#DFC852" width="12" height="11"/>
			<rect x="595" y="196" fill="#DFC852" width="13" height="11"/>
			<rect x="644" y="247" fill="#DFC852" width="14" height="11"/>
			<rect x="658" y="220" fill="#DD5226" width="11" height="14"/>
			<rect x="644" y="234" fill="#DFC852" width="14" height="13"/>
			<rect x="644" y="207" fill="#DFC852" width="14" height="13"/>
			<rect x="644" y="196" fill="#DFC852" width="14" height="11"/>
			<rect x="633" y="247" fill="#DD5226" width="11" height="11"/>
			<rect x="658" y="234" fill="#DD5226" width="11" height="13"/>
			<rect x="658" y="247" fill="#DD5226" width="11" height="11"/>
			<rect x="644" y="258" fill="#DD5226" width="14" height="12"/>
			<rect x="658" y="258" fill="#DD5226" width="11" height="12"/>
			<rect x="644" y="220" fill="#DFC852" width="14" height="14"/>
			<rect x="658" y="207" fill="#DD5226" width="11" height="13"/>
			<rect x="658" y="196" fill="#DD5226" width="11" height="11"/>
		</g>
	</g>
	<g>
		<g>
			<rect x="1022" y="396" fill="#DFC852" width="13" height="14"/>
			<rect x="997" y="410" fill="#DD5226" width="11" height="13"/>
			<rect x="1008" y="396" fill="#DFC852" width="14" height="14"/>
			<rect x="1008" y="372" fill="#DFC852" width="14" height="11"/>
			<rect x="984" y="396" fill="#DFC852" width="13" height="14"/>
			<rect x="997" y="383" fill="#DFC852" width="11" height="13"/>
			<rect x="984" y="383" fill="#DD5226" width="13" height="13"/>
			<rect x="997" y="372" fill="#DD5226" width="11" height="11"/>
			<rect x="1008" y="360" fill="#DD5226" width="14" height="12"/>
			<rect x="1008" y="410" fill="#DD5226" width="14" height="13"/>
			<rect x="1022" y="410" fill="#DD5226" width="13" height="13"/>
			<rect x="1035" y="396" fill="#DFC852" width="12" height="14"/>
			<rect x="1035" y="410" fill="#DD5226" width="12" height="13"/>
			<rect x="997" y="396" fill="#DFC852" width="11" height="14"/>
			<rect x="984" y="410" fill="#DD5226" width="13" height="13"/>
			<rect x="974" y="410" fill="#DD5226" width="10" height="13"/>
			<rect x="974" y="396" fill="#DD5226" width="10" height="14"/>
			<rect x="1022" y="347" fill="#DD5226" width="13" height="13"/>
			<rect x="997" y="335" fill="#DFC852" width="11" height="12"/>
			<rect x="1008" y="347" fill="#DD5226" width="14" height="13"/>
			<rect x="984" y="347" fill="#DD5226" width="13" height="13"/>
			<rect x="974" y="347" fill="#DD5226" width="10" height="13"/>
			<rect x="1022" y="360" fill="#DFC852" width="13" height="12"/>
			<rect x="1008" y="335" fill="#DFC852" width="14" height="12"/>
			<rect x="1022" y="335" fill="#DFC852" width="13" height="12"/>
			<rect x="1035" y="347" fill="#DFC852" width="12" height="13"/>
			<rect x="1035" y="335" fill="#DFC852" width="12" height="12"/>
			<rect x="997" y="347" fill="#DD5226" width="11" height="13"/>
			<rect x="984" y="335" fill="#DFC852" width="13" height="12"/>
			<rect x="974" y="335" fill="#DFC852" width="10" height="12"/>
		</g>
	</g>
	<g>
		<g>
			<rect x="1151" y="379" fill="#DFC852" width="12" height="11"/>
			<rect x="1151" y="390" fill="#DFC852" width="12" height="14"/>
			<rect x="1163" y="402" fill="#DD5226" width="13" height="11"/>
			<rect x="1137" y="402" fill="#DD5226" width="14" height="11"/>
			<rect x="1151" y="402" fill="#DD5226" width="12" height="11"/>
			<rect x="1151" y="364" fill="#DFC852" width="12" height="15"/>
			<rect x="1137" y="341" fill="#DFC852" width="14" height="12"/>
			<rect x="1151" y="353" fill="#DFC852" width="12" height="11"/>
			<rect x="1151" y="341" fill="#DFC852" width="12" height="12"/>
		</g>
	</g>
	<g>
		<g>
			<rect x="736" y="247" fill="#DD5226" width="13" height="11"/>
			<rect x="722" y="220" fill="#DFC852" width="14" height="14"/>
			<rect x="736" y="234" fill="#DD5226" width="13" height="13"/>
			<rect x="773" y="247" fill="#DFC852" width="12" height="11"/>
			<rect x="773" y="207" fill="#DFC852" width="12" height="13"/>
			<rect x="760" y="207" fill="#DD5226" width="13" height="13"/>
			<rect x="736" y="207" fill="#DD5226" width="13" height="13"/>
			<rect x="749" y="207" fill="#DD5226" width="11" height="13"/>
			<rect x="773" y="234" fill="#DFC852" width="12" height="13"/>
			<rect x="749" y="258" fill="#DFC852" width="11" height="12"/>
			<rect x="760" y="258" fill="#DFC852" width="13" height="12"/>
			<rect x="773" y="220" fill="#DFC852" width="12" height="14"/>
			<rect x="760" y="247" fill="#DD5226" width="13" height="11"/>
			<rect x="749" y="247" fill="#DD5226" width="11" height="11"/>
			<rect x="722" y="234" fill="#DFC852" width="14" height="13"/>
			<rect x="722" y="247" fill="#DFC852" width="14" height="11"/>
			<rect x="736" y="258" fill="#DFC852" width="13" height="12"/>
			<rect x="736" y="220" fill="#DD5226" width="13" height="14"/>
			<rect x="760" y="234" fill="#DD5226" width="13" height="13"/>
			<rect x="760" y="220" fill="#DD5226" width="13" height="14"/>
			<rect x="722" y="207" fill="#DFC852" width="14" height="13"/>
			<rect x="736" y="196" fill="#DFC852" width="13" height="11"/>
			<rect x="749" y="196" fill="#DFC852" width="11" height="11"/>
			<rect x="760" y="196" fill="#DFC852" width="13" height="11"/>
		</g>
	</g>
	<g>
		<g>
			<rect x="1113" y="506" fill="#DD5226" width="13" height="11"/>
			<rect x="1151" y="529" fill="#DFC852" width="12" height="11"/>
			<rect x="1151" y="492" fill="#DFC852" width="12" height="14"/>
			<rect x="1151" y="517" fill="#DFC852" width="12" height="12"/>
			<rect x="1137" y="540" fill="#DD5226" width="14" height="13"/>
			<rect x="1151" y="506" fill="#DFC852" width="12" height="11"/>
			<rect x="1113" y="517" fill="#DD5226" width="13" height="12"/>
			<rect x="1113" y="529" fill="#DD5226" width="13" height="11"/>
			<rect x="1126" y="540" fill="#DD5226" width="11" height="13"/>
			<rect x="1113" y="492" fill="#DD5226" width="13" height="14"/>
			<rect x="1126" y="479" fill="#DFC852" width="11" height="13"/>
			<rect x="1137" y="479" fill="#DFC852" width="14" height="13"/>
		</g>
	</g>
	<g>
		<g>
			<rect x="991" y="247" fill="#DFC852" width="12" height="11"/>
			<rect x="978" y="220" fill="#DD5226" width="13" height="14"/>
			<rect x="991" y="234" fill="#DFC852" width="12" height="13"/>
			<rect x="1028" y="247" fill="#DD5226" width="13" height="11"/>
			<rect x="1028" y="207" fill="#DD5226" width="13" height="13"/>
			<rect x="1016" y="207" fill="#DFC852" width="12" height="13"/>
			<rect x="991" y="207" fill="#DFC852" width="12" height="13"/>
			<rect x="1003" y="207" fill="#DFC852" width="13" height="13"/>
			<rect x="1028" y="234" fill="#DD5226" width="13" height="13"/>
			<rect x="1003" y="258" fill="#DD5226" width="13" height="12"/>
			<rect x="1016" y="258" fill="#DD5226" width="12" height="12"/>
			<rect x="1028" y="220" fill="#DD5226" width="13" height="14"/>
			<rect x="1016" y="247" fill="#BFA431" width="12" height="11"/>
			<rect x="1028" y="258" fill="#BFA431" width="13" height="12"/>
			<rect x="1003" y="247" fill="#DFC852" width="13" height="11"/>
			<rect x="978" y="234" fill="#DD5226" width="13" height="13"/>
			<rect x="978" y="247" fill="#DD5226" width="13" height="11"/>
			<rect x="991" y="258" fill="#DD5226" width="12" height="12"/>
			<rect x="991" y="220" fill="#DFC852" width="12" height="14"/>
			<rect x="1016" y="234" fill="#DFC852" width="12" height="13"/>
			<rect x="1016" y="220" fill="#DFC852" width="12" height="14"/>
			<rect x="978" y="207" fill="#DD5226" width="13" height="13"/>
			<rect x="991" y="196" fill="#DD5226" width="12" height="11"/>
			<rect x="1003" y="196" fill="#DD5226" width="13" height="11"/>
			<rect x="1016" y="196" fill="#DD5226" width="12" height="11"/>
		</g>
	</g>
	<g>
		<g>
			<rect x="864" y="247" fill="#DFC852" width="12" height="11"/>
			<rect x="851" y="220" fill="#DD5226" width="13" height="14"/>
			<rect x="887" y="234" fill="#DD5226" width="13" height="13"/>
			<rect x="900" y="207" fill="#DD5226" width="12" height="13"/>
			<rect x="887" y="207" fill="#DFC852" width="13" height="13"/>
			<rect x="864" y="207" fill="#DFC852" width="12" height="13"/>
			<rect x="864" y="234" fill="#DD5226" width="12" height="13"/>
			<rect x="876" y="234" fill="#DD5226" width="11" height="13"/>
			<rect x="900" y="220" fill="#DD5226" width="12" height="14"/>
			<rect x="864" y="258" fill="#DFC852" width="12" height="12"/>
			<rect x="851" y="234" fill="#DD5226" width="13" height="13"/>
			<rect x="851" y="247" fill="#DD5226" width="13" height="11"/>
			<rect x="851" y="258" fill="#DD5226" width="13" height="12"/>
			<rect x="864" y="220" fill="#DFC852" width="12" height="14"/>
			<rect x="887" y="220" fill="#DFC852" width="13" height="14"/>
			<rect x="851" y="207" fill="#DD5226" width="13" height="13"/>
			<rect x="864" y="196" fill="#DD5226" width="12" height="11"/>
			<rect x="876" y="196" fill="#DD5226" width="11" height="11"/>
			<rect x="887" y="196" fill="#DD5226" width="13" height="11"/>
		</g>
	</g>
	<g>
		<g>
			<rect x="876" y="364" fill="#DFC852" width="11" height="15"/>
			<rect x="900" y="353" fill="#DFC852" width="12" height="11"/>
			<rect x="851" y="353" fill="#DFC852" width="13" height="11"/>
			<rect x="864" y="364" fill="#DFC852" width="12" height="15"/>
			<rect x="876" y="379" fill="#DD5226" width="11" height="11"/>
			<rect x="876" y="390" fill="#DD5226" width="11" height="14"/>
			<rect x="876" y="404" fill="#DD5226" width="11" height="11"/>
			<rect x="887" y="364" fill="#DFC852" width="13" height="15"/>
			<rect x="864" y="353" fill="#DD5226" width="12" height="11"/>
			<rect x="887" y="353" fill="#DD5226" width="13" height="11"/>
			<rect x="900" y="341" fill="#DD5226" width="12" height="12"/>
			<rect x="851" y="341" fill="#DD5226" width="13" height="12"/>
		</g>
	</g>
	<g>
		<g>
			<rect x="212" y="341" fill="#DD5226" width="13" height="12"/>
			<rect x="199" y="341" fill="#DFC852" width="13" height="12"/>
			<rect x="225" y="341" fill="#DD5226" width="12" height="12"/>
			<rect x="237" y="341" fill="#DD5226" width="11" height="12"/>
			<rect x="248" y="341" fill="#DD5226" width="13" height="12"/>
			<rect x="261" y="341" fill="#DD5226" width="12" height="12"/>
			<rect x="237" y="364" fill="#DD5226" width="13" height="15"/>
			<rect x="237" y="379" fill="#DD5226" width="13" height="11"/>
			<rect x="237" y="353" fill="#DD5226" width="13" height="11"/>
			<rect x="237" y="404" fill="#DD5226" width="13" height="11"/>
			<rect x="237" y="390" fill="#DD5226" width="13" height="14"/>
			<rect x="225" y="364" fill="#DFC852" width="12" height="15"/>
			<rect x="225" y="379" fill="#DFC852" width="12" height="11"/>
			<rect x="225" y="353" fill="#DFC852" width="12" height="11"/>
			<rect x="225" y="404" fill="#DFC852" width="12" height="11"/>
			<rect x="225" y="390" fill="#DFC852" width="12" height="14"/>
		</g>
	</g>
	<g>
		<g>
			<rect x="352" y="390" fill="#DFC852" width="12" height="14"/>
			<rect x="339" y="364" fill="#DD5226" width="13" height="15"/>
			<rect x="352" y="379" fill="#DFC852" width="12" height="11"/>
			<rect x="388" y="390" fill="#DD5226" width="14" height="14"/>
			<rect x="388" y="353" fill="#DD5226" width="14" height="11"/>
			<rect x="375" y="353" fill="#DFC852" width="13" height="11"/>
			<rect x="352" y="353" fill="#DFC852" width="12" height="11"/>
			<rect x="388" y="379" fill="#DD5226" width="14" height="11"/>
			<rect x="364" y="404" fill="#DD5226" width="11" height="11"/>
			<rect x="375" y="404" fill="#DD5226" width="13" height="11"/>
			<rect x="388" y="364" fill="#DD5226" width="14" height="15"/>
			<rect x="375" y="390" fill="#DFC852" width="13" height="14"/>
			<rect x="364" y="390" fill="#DFC852" width="11" height="14"/>
			<rect x="339" y="379" fill="#DD5226" width="13" height="11"/>
			<rect x="339" y="390" fill="#DD5226" width="13" height="14"/>
			<rect x="352" y="404" fill="#DD5226" width="12" height="11"/>
			<rect x="352" y="364" fill="#DFC852" width="12" height="15"/>
			<rect x="375" y="379" fill="#DFC852" width="13" height="11"/>
			<rect x="375" y="364" fill="#DFC852" width="13" height="15"/>
			<rect x="339" y="353" fill="#DD5226" width="13" height="11"/>
			<rect x="388" y="341" fill="#DD5226" width="14" height="12"/>
			<rect x="375" y="341" fill="#DFC852" width="13" height="12"/>
			<rect x="352" y="341" fill="#DFC852" width="12" height="12"/>
			<rect x="339" y="341" fill="#DD5226" width="13" height="12"/>
		</g>
	</g>
	<g>
		<g>
			<rect x="479" y="390" fill="#DD5226" width="12" height="14"/>
			<rect x="466" y="364" fill="#DD5226" width="13" height="15"/>
			<rect x="479" y="379" fill="#DFC852" width="12" height="11"/>
			<rect x="517" y="353" fill="#DD5226" width="12" height="11"/>
			<rect x="502" y="353" fill="#DFC852" width="15" height="11"/>
			<rect x="479" y="353" fill="#DFC852" width="12" height="11"/>
			<rect x="517" y="379" fill="#DD5226" width="12" height="11"/>
			<rect x="491" y="404" fill="#DD5226" width="11" height="11"/>
			<rect x="517" y="364" fill="#DD5226" width="12" height="15"/>
			<rect x="502" y="390" fill="#DD5226" width="15" height="14"/>
			<rect x="491" y="390" fill="#DFC852" width="11" height="14"/>
			<rect x="466" y="379" fill="#DD5226" width="13" height="11"/>
			<rect x="479" y="364" fill="#DFC852" width="12" height="15"/>
			<rect x="502" y="379" fill="#DFC852" width="15" height="11"/>
			<rect x="502" y="364" fill="#DFC852" width="15" height="15"/>
			<rect x="466" y="353" fill="#DD5226" width="13" height="11"/>
			<rect x="517" y="341" fill="#DD5226" width="12" height="12"/>
			<rect x="502" y="341" fill="#DFC852" width="15" height="12"/>
			<rect x="479" y="341" fill="#DFC852" width="12" height="12"/>
			<rect x="466" y="341" fill="#DD5226" width="13" height="12"/>
		</g>
	</g>
	<g>
		<g>
			<rect x="115" y="517" fill="#DD5226" width="12" height="12"/>
			<rect x="101" y="529" fill="#DD5226" width="14" height="11"/>
			<rect x="127" y="540" fill="#DFC852" width="11" height="13"/>
			<rect x="101" y="540" fill="#DFC852" width="14" height="13"/>
			<rect x="88" y="540" fill="#DD5226" width="13" height="13"/>
			<rect x="115" y="540" fill="#DFC852" width="12" height="13"/>
			<rect x="127" y="506" fill="#DD5226" width="11" height="11"/>
			<rect x="115" y="479" fill="#DD5226" width="12" height="13"/>
			<rect x="127" y="492" fill="#DD5226" width="11" height="14"/>
			<rect x="101" y="479" fill="#DD5226" width="14" height="13"/>
			<rect x="88" y="492" fill="#DD5226" width="13" height="14"/>
		</g>
	</g>
	<g>
		<g>
			<rect x="375" y="518" fill="#DD5226" width="13" height="13"/>
			<rect x="375" y="531" fill="#DD5226" width="13" height="11"/>
			<rect x="364" y="518" fill="#DFC852" width="11" height="13"/>
			<rect x="388" y="518" fill="#DFC852" width="14" height="13"/>
			<rect x="375" y="542" fill="#DD5226" width="13" height="12"/>
			<rect x="352" y="518" fill="#DFC852" width="12" height="13"/>
			<rect x="375" y="506" fill="#DD5226" width="13" height="12"/>
			<rect x="364" y="481" fill="#DFC852" width="11" height="11"/>
			<rect x="375" y="492" fill="#DD5226" width="13" height="14"/>
			<rect x="352" y="492" fill="#DFC852" width="12" height="14"/>
			<rect x="339" y="506" fill="#DFC852" width="13" height="12"/>
		</g>
	</g>
	<g>
		<g>
			<rect x="493" y="675" fill="#DD5226" width="13" height="13"/>
			<rect x="482" y="699" fill="#DFC852" width="11" height="12"/>
			<rect x="493" y="688" fill="#DD5226" width="13" height="11"/>
			<rect x="493" y="663" fill="#DD5226" width="13" height="12"/>
			<rect x="482" y="638" fill="#DFC852" width="11" height="11"/>
			<rect x="493" y="649" fill="#DD5226" width="13" height="14"/>
		</g>
	</g>
	<g>
		<g>
			<rect x="608" y="663" fill="#DFC852" width="12" height="11"/>
			<rect x="620" y="636" fill="#DD5226" width="13" height="13"/>
			<rect x="608" y="649" fill="#DFC852" width="12" height="14"/>
			<rect x="608" y="674" fill="#DFC852" width="12" height="12"/>
			<rect x="620" y="697" fill="#DD5226" width="13" height="14"/>
			<rect x="608" y="686" fill="#DFC852" width="12" height="11"/>
		</g>
	</g>
	<g>
		<g>
			<rect x="481" y="481" fill="#DFC852" width="10" height="11"/>
			<rect x="504" y="531" fill="#DD5226" width="13" height="11"/>
			<rect x="491" y="542" fill="#DD5226" width="13" height="12"/>
			<rect x="481" y="542" fill="#DD5226" width="10" height="12"/>
			<rect x="504" y="481" fill="#DFC852" width="13" height="11"/>
			<rect x="504" y="518" fill="#DD5226" width="13" height="13"/>
			<rect x="481" y="506" fill="#DD5226" width="10" height="12"/>
			<rect x="491" y="506" fill="#DD5226" width="13" height="12"/>
			<rect x="481" y="492" fill="#DFC852" width="10" height="14"/>
			<rect x="491" y="481" fill="#DFC852" width="13" height="11"/>
		</g>
	</g>
	<g>
		<g>
			<rect x="620" y="540" fill="#DFC852" width="13" height="13"/>
			<rect x="633" y="540" fill="#DFC852" width="11" height="13"/>
			<rect x="608" y="540" fill="#DFC852" width="12" height="13"/>
			<rect x="608" y="479" fill="#DD5226" width="12" height="13"/>
			<rect x="633" y="529" fill="#DFC852" width="11" height="11"/>
			<rect x="633" y="479" fill="#DD5226" width="11" height="13"/>
			<rect x="633" y="517" fill="#DFC852" width="11" height="12"/>
			<rect x="608" y="529" fill="#DFC852" width="12" height="11"/>
			<rect x="608" y="517" fill="#DFC852" width="12" height="12"/>
			<rect x="608" y="506" fill="#DFC852" width="12" height="11"/>
			<rect x="620" y="506" fill="#DFC852" width="13" height="11"/>
			<rect x="633" y="506" fill="#DFC852" width="11" height="11"/>
			<rect x="608" y="492" fill="#DD5226" width="12" height="14"/>
			<rect x="620" y="479" fill="#DD5226" width="13" height="13"/>
		</g>
	</g>
	<g>
		<g>
			<rect x="876" y="540" fill="#DFC852" width="13" height="13"/>
			<rect x="889" y="540" fill="#DFC852" width="11" height="13"/>
			<rect x="864" y="540" fill="#DFC852" width="12" height="13"/>
			<rect x="864" y="479" fill="#DD5226" width="12" height="13"/>
			<rect x="889" y="529" fill="#DFC852" width="11" height="11"/>
			<rect x="889" y="479" fill="#DD5226" width="11" height="13"/>
			<rect x="889" y="517" fill="#DFC852" width="11" height="12"/>
			<rect x="864" y="529" fill="#DFC852" width="12" height="11"/>
			<rect x="864" y="517" fill="#DFC852" width="12" height="12"/>
			<rect x="864" y="506" fill="#DFC852" width="12" height="11"/>
			<rect x="889" y="492" fill="#DD5226" width="11" height="14"/>
			<rect x="876" y="506" fill="#DFC852" width="13" height="11"/>
			<rect x="889" y="506" fill="#DFC852" width="11" height="11"/>
			<rect x="864" y="492" fill="#DD5226" width="12" height="14"/>
			<rect x="876" y="479" fill="#DD5226" width="13" height="13"/>
		</g>
	</g>
	<g>
		<g>
			<rect x="1003" y="479" fill="#DFC852" width="13" height="13"/>
			<rect x="991" y="479" fill="#DFC852" width="12" height="13"/>
			<rect x="1016" y="479" fill="#DFC852" width="12" height="13"/>
			<rect x="1016" y="540" fill="#DD5226" width="12" height="13"/>
			<rect x="991" y="492" fill="#DFC852" width="12" height="14"/>
			<rect x="991" y="540" fill="#DD5226" width="12" height="13"/>
			<rect x="991" y="506" fill="#DFC852" width="12" height="11"/>
			<rect x="1016" y="492" fill="#DFC852" width="12" height="14"/>
			<rect x="1016" y="506" fill="#DFC852" width="12" height="11"/>
			<rect x="1016" y="517" fill="#DFC852" width="12" height="12"/>
			<rect x="1003" y="517" fill="#DFC852" width="13" height="12"/>
			<rect x="991" y="517" fill="#DFC852" width="12" height="12"/>
			<rect x="1016" y="529" fill="#DD5226" width="12" height="11"/>
			<rect x="1003" y="540" fill="#DD5226" width="13" height="13"/>
		</g>
	</g>
	<g>
		<g>
			<rect x="741" y="540" fill="#DD5226" width="13" height="13"/>
			<rect x="741" y="479" fill="#DFC852" width="13" height="13"/>
			<rect x="741" y="529" fill="#DD5226" width="13" height="11"/>
			<rect x="768" y="479" fill="#DFC852" width="11" height="13"/>
			<rect x="741" y="517" fill="#DD5226" width="13" height="12"/>
			<rect x="768" y="492" fill="#DD5226" width="11" height="14"/>
			<rect x="754" y="506" fill="#DD5226" width="14" height="11"/>
			<rect x="729" y="479" fill="#DFC852" width="12" height="13"/>
			<rect x="754" y="479" fill="#DFC852" width="14" height="13"/>
		</g>
	</g>
	<g>
		<g>
			<rect x="242" y="506" fill="#DFC852" width="12" height="12"/>
			<rect x="254" y="518" fill="#DD5226" width="11" height="13"/>
			<rect x="229" y="542" fill="#DD5226" width="13" height="12"/>
			<rect x="254" y="531" fill="#DD5226" width="11" height="11"/>
			<rect x="217" y="531" fill="#DD5226" width="12" height="11"/>
			<rect x="242" y="542" fill="#DD5226" width="12" height="12"/>
			<rect x="242" y="481" fill="#DD5226" width="12" height="11"/>
			<rect x="254" y="492" fill="#DD5226" width="11" height="14"/>
			<rect x="229" y="481" fill="#DD5226" width="13" height="11"/>
			<rect x="217" y="492" fill="#DD5226" width="12" height="14"/>
		</g>
	</g>
	<g>
		<g>
			<rect x="240" y="686" fill="#DFC852" width="11" height="11"/>
		</g>
		<g>
			<rect x="229" y="697" fill="#DD5226" width="11" height="11"/>
		</g>
	</g>
	<g>
		<rect x="107" y="697" fill="#DD5226" width="11" height="11"/>
	</g>
	<g>
		<rect x="356" y="697" fill="#DD5226" width="11" height="11"/>
	</g>
	<g>
		<rect x="367" y="686" fill="#DFC852" width="11" height="11"/>
	</g>
	<g>
		<rect x="367" y="663" fill="#DFC852" width="11" height="11"/>
	</g>
</g>
</svg>
