<?xml version="1.0" encoding="utf-8"?>
<!-- Generator: Adobe Illustrator 17.0.0, SVG Export Plug-In . SVG Version: 6.00 Build 0)  -->
<!DOCTYPE svg PUBLIC "-//W3C//DTD SVG 1.1//EN" "http://www.w3.org/Graphics/SVG/1.1/DTD/svg11.dtd">
<svg version="1.1" id="Layer_1" xmlns="http://www.w3.org/2000/svg" xmlns:xlink="http://www.w3.org/1999/xlink" x="0px" y="0px"
	 width="1190.5px" height="737.5px" viewBox="0 0 1190.5 737.5" enable-background="new 0 0 1190.5 737.5" xml:space="preserve">
<g>
	<polygon fill="#AA532D" stroke="#A0523C" stroke-miterlimit="10" points="1198,737.5 1.5,737.5 1.5,-0.5 1195.482,-0.5 	"/>
	<g>
		<defs>
			<rect id="SVGID_1_" width="1196" height="738"/>
		</defs>
		<clipPath id="SVGID_2_">
			<use xlink:href="#SVGID_1_"  overflow="visible"/>
		</clipPath>
		<g clip-path="url(#SVGID_2_)">
			<path fill="#DC7C49" d="M286.06,105.678L175.998,323.717c0,0-6.709,13.405-15.716,4.448l-1.419-2.333
				c0,0-3.887,12.853-15.423,10.399c0,0-5.472,1.02-12.983-3.466c0,0,0.484-3.237-3.285-5.501c0,0-6.557-2.599-4.469-11.93
				c0,0,63.998-131.624,75.813-159.368c0,0,28.031-61.631,35.803-71.652c0,0,8.749-9.208,26.579-4.269
				C260.897,80.046,298.204,81.589,286.06,105.678z"/>
			<path fill="#5B1E07" d="M270.425,99.631c0,0,3.482,6.755,1.27,13.732c-0.737,2.326-5.174,3.304-7.321,6.456
				c-8.587,12.611-2.757,6.474-2.757,6.474l-4.417,14.39l-3.425,5.473c0,0-8.313,18.565-13.636,27.896
				c-5.323,9.331-17.043,25.44-19.345,31.089s-39.068,72.56-38.218,74.745c0.851,2.184-19.93,39.681-23.334,45.756
				c0,0,1.177,1.148,5.572-4.991c0,0,19.716-42.269,21.485-44.864c1.769-2.594,23.877-42.504,28.292-48.218
				c4.415-5.713,21.974-46.812,26.325-49.879l18.529-36.361L270.425,99.631z"/>
			<path fill="#5B1E07" d="M159.707,311.467c0,0,14.346-37.734,17.035-44.319C179.431,260.563,157.561,305.58,159.707,311.467z"/>
			<path fill="#5B1E07" d="M128.449,323.76c0,0,14.346-37.734,17.035-44.319C148.173,272.856,126.303,317.873,128.449,323.76z"/>
			<path fill="#5B1E07" d="M187.822,207.539c0,0,14.346-37.734,17.035-44.319C207.546,156.635,185.676,201.653,187.822,207.539z"/>
			<path fill="#5B1E07" d="M211.883,165.337c0,0,14.346-37.734,17.035-44.319C231.607,114.433,209.737,159.45,211.883,165.337z"/>
			<path fill="#5B1E07" d="M201.713,224.869c-2.137,11.975,21.983-51.12,24.263-54.449S203.774,213.321,201.713,224.869z"/>
			<path fill="#5B1E07" d="M158.319,272.239c0,0,5.545-5.829,19.149-34.56C191.071,208.948,159.207,265.839,158.319,272.239z"/>
			<path fill="#5B1E07" d="M226.948,157.083c0,0,14.35-36.941,15.48-42.158C243.558,109.708,225.795,154.402,226.948,157.083z"/>
			<path fill="#A0523C" d="M267.632,117.049l-14.16,5.024c0,0-8.296,0.513-13.112-7.403c0,0-19.046-20.98-5.464-30.885
				c0,0,9.068-8.261,33.246-4.417c0,0,28.627,6.964,16.253,26.714l-10.868,5.195l-2.725-11.947c0,0,6.148-1.438,2.498-7.436
				c0,0-4.165-10.771-22.525-5.437c0,0-17.243,7.745-3.116,17.603c0,0,19.099,10.481,14.112-2.684c0,0-8.424-1.259-0.113-9.084
				c3.393-3.195,8.767,7.336,8.767,7.336S275.317,113.173,267.632,117.049z"/>
			<path fill="#5B1E07" d="M261.525,101.509c0,0,5.458,11.62-9.763,4.928c0,0-16.434-7.175-6.921-17.416
				c0,0,28.133-15.072,29.406,8.244l-3.822,2.365c0,0-4.826-7.147-8.767-7.336C261.658,92.295,253.93,99.244,261.525,101.509z"/>
		</g>
		<g clip-path="url(#SVGID_2_)">
			<path fill="#DC7C49" d="M-83.758-136.657L26.304,81.383c0,0,6.709,13.405,15.716,4.448l1.419-2.333
				c0,0,3.887,12.853,15.423,10.399c0,0,5.472,1.02,12.983-3.466c0,0-0.484-3.237,3.285-5.501c0,0,6.557-2.599,4.469-11.93
				c0,0-63.998-131.624-75.813-159.368c0,0-28.031-61.631-35.803-71.652c0,0-8.749-9.208-26.579-4.269
				C-58.595-162.289-95.902-160.746-83.758-136.657z"/>
			<path fill="#5B1E07" d="M-68.123-142.704c0,0-3.482,6.755-1.27,13.732c0.737,2.326,5.174,3.304,7.321,6.456
				c8.587,12.611,2.757,6.474,2.757,6.474l4.417,14.39l3.425,5.473c0,0,8.313,18.565,13.636,27.896s17.043,25.44,19.345,31.089
				s39.068,72.56,38.218,74.745s19.93,39.681,23.334,45.756c0,0-1.177,1.148-5.572-4.991c0,0-19.716-42.269-21.485-44.864
				S-7.876-9.053-12.291-14.767s-21.974-46.812-26.325-49.879l-18.529-36.361L-68.123-142.704z"/>
			<path fill="#5B1E07" d="M42.595,69.132c0,0-14.346-37.734-17.035-44.319S44.741,63.246,42.595,69.132z"/>
			<path fill="#5B1E07" d="M73.853,81.425c0,0-14.346-37.734-17.035-44.319C54.129,30.522,75.999,75.539,73.853,81.425z"/>
			<path fill="#5B1E07" d="M14.48-34.796c0,0-14.346-37.734-17.035-44.319C-5.244-85.699,16.626-40.682,14.48-34.796z"/>
			<path fill="#5B1E07" d="M-9.581-76.998c0,0-14.346-37.734-17.035-44.319C-29.305-127.902-7.435-82.884-9.581-76.998z"/>
			<path fill="#5B1E07" d="M0.589-17.466c2.137,11.975-21.983-51.12-24.263-54.449S-1.472-29.014,0.589-17.466z"/>
			<path fill="#5B1E07" d="M43.984,29.904c0,0-5.545-5.829-19.149-34.56S43.095,23.504,43.984,29.904z"/>
			<path fill="#5B1E07" d="M-24.646-85.252c0,0-14.35-36.941-15.48-42.158S-23.493-87.933-24.646-85.252z"/>
			<path fill="#A0523C" d="M-65.33-125.285l14.16,5.024c0,0,8.296,0.513,13.112-7.403c0,0,19.046-20.98,5.464-30.885
				c0,0-9.068-8.261-33.246-4.417c0,0-28.627,6.964-16.253,26.714l10.868,5.195l2.725-11.947c0,0-6.148-1.438-2.498-7.436
				c0,0,4.165-10.771,22.525-5.437c0,0,17.243,7.745,3.116,17.603c0,0-19.099,10.481-14.112-2.684c0,0,8.424-1.259,0.113-9.084
				c-3.393-3.195-8.767,7.336-8.767,7.336S-73.014-129.161-65.33-125.285z"/>
			<path fill="#5B1E07" d="M-59.223-140.825c0,0-5.458,11.62,9.763,4.928c0,0,16.434-7.175,6.921-17.416
				c0,0-28.133-15.072-29.406,8.244l3.822,2.365c0,0,4.826-7.147,8.767-7.336C-59.356-150.04-51.628-143.09-59.223-140.825z"/>
		</g>
		<g clip-path="url(#SVGID_2_)">
			<path fill="#DC7C49" d="M344.373,612.052l-54.866-234.722c0,0-3.317-14.42-14.262-7.48l-1.947,1.992
				c0,0-0.697-13.316-12.543-13.228c0,0-5.093-2.088-13.502,0.787c0,0-0.308,3.255-4.53,4.711c0,0-7.023,1.226-7.234,10.746
				c0,0,30.737,141.206,35.582,170.636c0,0,12.504,65.731,17.673,77.061c0,0,6.318,10.732,24.904,9.476
				C313.649,632.032,350.419,637.982,344.373,612.052z"/>
			<path fill="#5B1E07" d="M327.662,614.828c0,0,5.024-5.895,4.547-13.143c-0.159-2.416-4.252-4.257-5.587-7.762
				c-5.341-14.02-1.13-6.867-1.13-6.867l-0.844-14.922l-2.024-6.024c0,0-3.639-19.774-6.585-29.941
				c-2.945-10.167-10.5-28.226-11.385-34.197c-0.885-5.971-20.64-78.6-19.284-80.561c1.356-1.961-9.887-42.697-11.745-49.304
				c0,0,1.425-0.885,4.234,5.983c0,0,9.055,45.18,10.156,48.064c1.101,2.885,13.058,46.24,15.99,52.697
				c2.931,6.456,10.164,50.063,13.67,53.925l9.32,39.177L327.662,614.828z"/>
			<path fill="#5B1E07" d="M270.663,386.028c0,0,4.908,39.681,5.945,46.643S267.151,391.342,270.663,386.028z"/>
			<path fill="#5B1E07" d="M243.127,367.788c0,0,4.908,39.681,5.945,46.643C250.111,421.393,239.616,373.102,243.127,367.788z"/>
			<path fill="#5B1E07" d="M273.062,493.042c0,0,4.908,39.681,5.945,46.643C280.045,546.647,269.55,498.356,273.062,493.042z"/>
			<path fill="#5B1E07" d="M286.372,539.024c0,0,4.908,39.681,5.945,46.643C293.355,592.629,282.86,544.338,286.372,539.024z"/>
			<path fill="#5B1E07" d="M290.788,478.91c0.799-12.11,9.135,54.268,10.557,57.971C302.767,540.583,290.018,490.588,290.788,478.91
				z"/>
			<path fill="#5B1E07" d="M259.86,424.022c0,0,4.006,6.795,10.358,37.544S259.186,430.444,259.86,424.022z"/>
			<path fill="#5B1E07" d="M299.082,550.087c0,0,5.103,38.909,4.949,44.225C303.876,599.628,297.311,552.473,299.082,550.087z"/>
			<path fill="#A0523C" d="M329.132,597.276l-12.605-7.731c0,0-7.971-2.158-14.575,4.602c0,0-23.635,16.663-12.77,29.041
				c0,0,6.857,9.871,31.372,10.953c0,0,29.607-1.074,22.291-22.816l-9.351-7.24l-5.536,11.111c0,0,5.652,2.631,0.646,7.754
				c0,0-6.658,9.677-23.285,0.803c0,0-14.957-11.003,1.2-17.797c0,0,21.158-6.409,13.121,5.438c0,0-8.522-0.455-2.298,8.84
				c2.541,3.795,10.321-5.405,10.321-5.405S335.696,602.593,329.132,597.276z"/>
			<path fill="#5B1E07" d="M319.432,611.217c0,0,8.124-10.246-8.338-6.759c0,0-17.762,3.716-10.947,15.609
				c0,0,23.817,20.327,30.675-2.167l-3.159-3.071c0,0-6.43,6.009-10.321,5.405C317.342,620.234,311.476,611.909,319.432,611.217z"/>
		</g>
		<g clip-path="url(#SVGID_2_)">
			<path fill="#DC7C49" d="M358.946,844.217l96.753-223.215c0,0,5.891-13.721,15.424-5.227l1.558,2.258
				c0,0,3.107-13.028,14.773-11.154c0,0,5.402-1.292,13.173,2.811c0,0-0.288,3.257,3.611,5.329c0,0,6.703,2.267,5.182,11.688
				c0,0-55.968,134.626-66.092,162.919c0,0-24.273,62.94-31.43,73.335c0,0-8.181,9.632-26.282,5.591
				C385.616,868.552,348.272,868.878,358.946,844.217z"/>
			<path fill="#5B1E07" d="M374.922,849.474c0,0-3.884-6.571-2.096-13.647c0.596-2.359,4.967-3.557,6.92-6.813
				c7.814-13.022,2.362-6.602,2.362-6.602l3.543-14.589l3.09-5.636c0,0,7.181-18.953,11.934-28.536
				c4.752-9.583,15.483-26.254,17.441-32.01c1.958-5.755,34.636-74.405,33.655-76.543c-0.981-2.138,17.508-40.618,20.541-46.854
				c0,0-1.244-1.088-5.263,5.262c0,0-17.139,43.192-18.749,45.871c-1.61,2.679-21.279,43.634-25.343,49.56
				c-4.064,5.926-19.119,47.84-23.279,51.121L383.37,807.29L374.922,849.474z"/>
			<path fill="#5B1E07" d="M472.703,632.42c0,0-12.049,38.395-14.338,45.104C456.078,684.233,475.202,638.19,472.703,632.42z"/>
			<path fill="#5B1E07" d="M503.173,618.582c0,0-12.049,38.395-14.338,45.104S505.671,624.352,503.173,618.582z"/>
			<path fill="#5B1E07" d="M450.896,737.597c0,0-12.049,38.395-14.338,45.104C434.27,789.41,453.394,743.367,450.896,737.597z"/>
			<path fill="#5B1E07" d="M429.415,780.939c0,0-12.049,38.395-14.338,45.104S431.913,786.709,429.415,780.939z"/>
			<path fill="#5B1E07" d="M435.981,720.988c1.412-12.064-18.869,52.142-20.944,55.58S434.619,732.621,435.981,720.988z"/>
			<path fill="#5B1E07" d="M476.455,671.519c0,0-5.185,6.097-17.036,35.465C447.567,736.352,475.953,677.954,476.455,671.519z"/>
			<path fill="#5B1E07" d="M414.87,789.934c0,0-12.101,37.603-12.915,42.869C401.141,838.068,416.183,792.553,414.87,789.934z"/>
			<path fill="#A0523C" d="M376.661,831.941l13.836-5.725c0,0,8.253-0.927,13.538,6.736c0,0,20.282,19.996,7.318,30.565
				c0,0-8.556,8.702-32.929,6.073c0,0-29.003-5.522-17.838-25.861l10.538-5.731l3.441,11.792c0,0-6.052,1.743-2.046,7.55
				c0,0,4.808,10.547,22.818,4.302c0,0,16.75-8.596,2.05-17.733c0,0-19.702-9.51-13.929,3.386c0,0,8.487,0.835,0.661,9.065
				c-3.195,3.36-9.196-6.887-9.196-6.887S369.221,836.196,376.661,831.941z"/>
			<path fill="#5B1E07" d="M383.695,847.153c0,0-6.15-11.33,9.451-5.409c0,0,16.842,6.342,7.96,17.044
				c0,0-27.182,16.456-29.858-6.761l3.674-2.552c0,0,5.25,6.895,9.196,6.887C384.118,856.36,391.415,849.034,383.695,847.153z"/>
		</g>
		<g clip-path="url(#SVGID_2_)">
			<path fill="#DC7C49" d="M111.741,837.411L-1.307,620.643c0,0-6.988-13.287,6.334-13.836l2.875,0.505
				c0,0-8.332-10.961,1.134-17.448c0,0,2.651-4.478,11.247-6.85c0,0,2.416,2.415,6.741,1.233c0,0,6.395-2.915,12.914,4.529
				c0,0,69.811,129.149,85.6,155.202c0,0,33.929,59.12,37.385,70.979c0,0,2.144,12.02-13.453,21.312
				C149.47,836.268,124.241,861.349,111.741,837.411z"/>
			<path fill="#5B1E07" d="M126.864,830.364c0,0-7.923-1.9-12.38-7.92c-1.486-2.007,0.536-5.734-0.742-9.257
				c-5.114-14.09-3.684-6.079-3.684-6.079l-9.286-12.317l-2.412-5.904c0,0-10.304-17.717-14.749-27.422
				c-4.445-9.705-10.496-28.227-13.777-33.46c-3.281-5.232-36.055-73.843-38.44-74.65c-2.385-0.807-20.638-39.38-23.571-45.655
				c0,0-1.722,0.086,0.629,7.095c0,0,22.955,40.891,24.006,43.791c1.05,2.901,20.484,43.949,22.464,50.699
				c1.98,6.75,25.333,45.382,25.126,50.39l18.74,36.271L126.864,830.364z"/>
			<path fill="#5B1E07" d="M19.461,617.117c0,0,22.58,34.228,26.401,40.331C49.683,663.551,25.795,619.392,19.461,617.117z"/>
			<path fill="#5B1E07" d="M29.156,587.388c0,0,22.58,34.228,26.401,40.331C59.379,633.822,35.491,589.664,29.156,587.388z"/>
			<path fill="#5B1E07" d="M88.961,703.425c0,0,22.58,34.228,26.401,40.331C119.183,749.859,95.295,705.701,88.961,703.425z"/>
			<path fill="#5B1E07" d="M109.072,747.309c0,0,22.58,34.228,26.401,40.331C139.295,793.743,115.407,749.585,109.072,747.309z"/>
			<path fill="#5B1E07" d="M65.455,702.017c-8.715-9.175,28.955,48.152,30.297,51.879C97.093,757.624,73.859,710.864,65.455,702.017
				z"/>
			<path fill="#5B1E07" d="M53.391,641.308c0,0,1.353,7.614,16.826,35.549S58.211,646.034,53.391,641.308z"/>
			<path fill="#5B1E07" d="M106.362,763.13c0,0,21.91,33.723,25.579,37.859C135.61,805.125,109.359,764.044,106.362,763.13z"/>
			<path fill="#A0523C" d="M113.984,817.239l4.851-13.118c0,0,4.889-6.126,14.645-4.414c0,0,29.887,0.148,29.518,15.992
				c0,0,1.141,11.635-17.605,26.065c0,0-24.227,15.538-32.925-5.778l2.595-10.927l11.81,5.759c0,0-2.733,5.218,4.661,6.516
				c0,0,11.744,3.998,19.027-12.253c0,0,4.536-17.018-12.828-13.468c0,0-21.078,6.624-6.791,11.583c0,0,6.464-5.08,7.724,5.747
				c0.514,4.42-11.802,1.421-11.802,1.421S112.32,825.096,113.984,817.239z"/>
			<path fill="#5B1E07" d="M130.99,822.94c0,0-13.288-3.639,2.112-9.984c0,0,16.584-6.882,19.108,6.335
				c0,0-5.351,29.327-25.805,15.261l0.46-4.188c0,0,9.116,1.212,11.802-1.421C138.666,828.943,137.769,819.085,130.99,822.94z"/>
		</g>
		<g clip-path="url(#SVGID_2_)">
			<path fill="#DC7C49" d="M673.917,675.677L513.927,485.01c0,0-9.864-11.676,3.043-14.732l2.928-0.05
				c0,0-10.648-9.146-2.867-17.282c0,0,1.573-4.882,9.44-8.827c0,0,2.914,1.905,6.875-0.068c0,0,5.591-4.06,13.665,1.988
				c0,0,97.725,113.134,119.109,135.633c0,0,46.664,51.415,52.748,62.363c0,0,4.837,11.353-8.303,23.392
				C710.564,667.425,691.601,696.73,673.917,675.677z"/>
			<path fill="#5B1E07" d="M687.104,665.924c0,0-8.183-0.36-13.916-5.406c-1.911-1.682-0.783-5.711-2.836-8.915
				c-8.214-12.816-4.989-5.25-4.989-5.25l-11.891-10.292l-3.705-5.319c0,0-14.118-15.383-20.678-24.035s-16.7-25.628-21.103-30.125
				s-52.1-65.416-54.617-65.754c-2.517-0.338-29.164-34.619-33.463-40.203c0,0-1.665,0.41,2.233,6.821
				c0,0,31.775,35.659,33.463,38.297c1.689,2.639,30.055,39.118,33.53,45.346c3.476,6.228,35.124,39.603,36.063,44.541
				l26.599,31.937L687.104,665.924z"/>
			<path fill="#5B1E07" d="M533.438,477.633c0,0,29.889,29.213,35.018,34.46C573.585,517.34,540.153,478.661,533.438,477.633z"/>
			<path fill="#5B1E07" d="M536.147,446.719c0,0,29.889,29.213,35.018,34.46C576.294,486.426,542.862,447.747,536.147,446.719z"/>
			<path fill="#5B1E07" d="M621.095,548.919c0,0,29.889,29.213,35.018,34.46C661.242,588.626,627.81,549.947,621.095,548.919z"/>
			<path fill="#5B1E07" d="M650.771,588.043c0,0,29.889,29.213,35.018,34.46C690.918,627.75,657.486,589.071,650.771,588.043z"/>
			<path fill="#5B1E07" d="M597.78,551.986c-10.616-7.327,39.299,41.627,41.461,45.02
				C641.403,600.398,608.018,559.051,597.78,551.986z"/>
			<path fill="#5B1E07" d="M572.143,494.881c0,0,3.059,7.192,24.561,31.592S577.935,498.593,572.143,494.881z"/>
			<path fill="#5B1E07" d="M651.725,604.032c0,0,29.118,28.845,33.65,32.197C689.907,639.581,654.866,604.36,651.725,604.032z"/>
			<path fill="#A0523C" d="M671.514,655.521l1.756-13.749c0,0,3.387-6.918,13.32-7.088c0,0,29.269-5.507,32.52,10.061
				c0,0,3.768,11.166-11.28,28.826c0,0-20.158,19.781-33.524,0.574l0.048-11.179l12.865,3.4c0,0-1.484,5.621,6.044,5.492
				c0,0,12.399,1.69,15.82-15.584c0,0,0.559-17.505-15.618-10.749c0,0-19.109,10.465-4.003,12.615c0,0,5.165-6.191,8.865,4.162
				c1.511,4.227-11.221,3.622-11.221,3.622S671.676,663.521,671.514,655.521z"/>
			<path fill="#5B1E07" d="M689.448,657.881c0,0-13.828-1.047-0.21-10.165c0,0,14.654-9.869,20.135,2.583
				c0,0,1.45,29.7-21.765,19.808l-0.505-4.183c0,0,9.193-0.539,11.221-3.622C698.325,662.302,695.201,652.829,689.448,657.881z"/>
		</g>
		<g clip-path="url(#SVGID_2_)">
			<path fill="#DC7C49" d="M376.06,132.802l96.753-223.215c0,0,5.891-13.721,15.424-5.227l1.558,2.258
				c0,0,3.107-13.028,14.773-11.155c0,0,5.402-1.292,13.173,2.811c0,0-0.288,3.257,3.611,5.329c0,0,6.703,2.267,5.182,11.688
				c0,0-55.968,134.626-66.092,162.919c0,0-24.273,62.94-31.43,73.335c0,0-8.181,9.632-26.282,5.591
				C402.73,157.137,365.386,157.463,376.06,132.802z"/>
			<path fill="#5B1E07" d="M392.036,138.058c0,0-3.884-6.571-2.096-13.647c0.596-2.359,4.967-3.557,6.92-6.813
				c7.814-13.022,2.362-6.602,2.362-6.602l3.543-14.589l3.09-5.636c0,0,7.181-18.953,11.934-28.536s15.483-26.254,17.441-32.01
				c1.958-5.756,34.636-74.405,33.655-76.543c-0.981-2.138,17.508-40.618,20.541-46.854c0,0-1.244-1.088-5.263,5.262
				c0,0-17.139,43.192-18.749,45.871c-1.61,2.679-21.279,43.634-25.343,49.56s-19.119,47.84-23.279,51.121l-16.309,37.232
				L392.036,138.058z"/>
			<path fill="#5B1E07" d="M489.818-78.995c0,0-12.049,38.395-14.338,45.104S492.316-73.225,489.818-78.995z"/>
			<path fill="#5B1E07" d="M520.287-92.833c0,0-12.049,38.395-14.338,45.104S522.785-87.063,520.287-92.833z"/>
			<path fill="#5B1E07" d="M468.01,26.182c0,0-12.049,38.395-14.338,45.104S470.508,31.952,468.01,26.182z"/>
			<path fill="#5B1E07" d="M446.529,69.524c0,0-12.049,38.395-14.338,45.104C429.903,121.337,449.027,75.294,446.529,69.524z"/>
			<path fill="#5B1E07" d="M453.095,9.573c1.412-12.064-18.869,52.142-20.944,55.58C430.076,68.59,451.733,21.206,453.095,9.573z"/>
			<path fill="#5B1E07" d="M493.569-39.896c0,0-5.185,6.097-17.036,35.465S493.067-33.461,493.569-39.896z"/>
			<path fill="#5B1E07" d="M431.985,78.518c0,0-12.101,37.603-12.915,42.869C418.255,126.653,433.297,81.138,431.985,78.518z"/>
			<path fill="#A0523C" d="M393.775,120.526l13.836-5.725c0,0,8.253-0.927,13.538,6.736c0,0,20.282,19.996,7.318,30.565
				c0,0-8.556,8.702-32.929,6.073c0,0-29.003-5.522-17.838-25.861l10.538-5.731l3.441,11.792c0,0-6.052,1.743-2.046,7.55
				c0,0,4.808,10.547,22.818,4.302c0,0,16.75-8.596,2.05-17.733c0,0-19.702-9.51-13.929,3.386c0,0,8.487,0.835,0.661,9.065
				c-3.195,3.36-9.196-6.887-9.196-6.887S386.335,124.781,393.775,120.526z"/>
			<path fill="#5B1E07" d="M400.809,135.737c0,0-6.15-11.33,9.451-5.409c0,0,16.842,6.342,7.96,17.044
				c0,0-27.182,16.456-29.858-6.761l3.674-2.552c0,0,5.25,6.895,9.196,6.887C401.232,144.945,408.529,137.619,400.809,135.737z"/>
		</g>
		<g clip-path="url(#SVGID_2_)">
			<path fill="#DC7C49" d="M936.157,131.385l96.753-223.215c0,0,5.891-13.721,15.424-5.227l1.558,2.258
				c0,0,3.107-13.028,14.773-11.155c0,0,5.402-1.292,13.172,2.811c0,0-0.288,3.257,3.611,5.329c0,0,6.703,2.267,5.182,11.688
				c0,0-55.968,134.626-66.092,162.919c0,0-24.273,62.94-31.43,73.335c0,0-8.181,9.632-26.282,5.591
				C962.828,155.72,925.484,156.045,936.157,131.385z"/>
			<path fill="#5B1E07" d="M952.133,136.641c0,0-3.884-6.571-2.096-13.647c0.596-2.359,4.967-3.557,6.92-6.813
				c7.814-13.022,2.362-6.602,2.362-6.602l3.543-14.589l3.09-5.636c0,0,7.181-18.953,11.933-28.536s15.483-26.254,17.442-32.01
				s34.636-74.405,33.654-76.543c-0.981-2.138,17.508-40.618,20.541-46.854c0,0-1.244-1.088-5.263,5.262
				c0,0-17.139,43.192-18.749,45.871c-1.61,2.679-21.279,43.634-25.343,49.56c-4.064,5.926-19.119,47.84-23.279,51.121
				l-16.309,37.232L952.133,136.641z"/>
			<path fill="#5B1E07" d="M1049.915-80.412c0,0-12.049,38.395-14.338,45.104S1052.413-74.642,1049.915-80.412z"/>
			<path fill="#5B1E07" d="M1080.385-94.25c0,0-12.049,38.395-14.338,45.104S1082.883-88.48,1080.385-94.25z"/>
			<path fill="#5B1E07" d="M1028.107,24.764c0,0-12.049,38.395-14.338,45.104C1011.481,76.578,1030.605,30.535,1028.107,24.764z"/>
			<path fill="#5B1E07" d="M1006.626,68.107c0,0-12.049,38.395-14.338,45.104C990.001,119.92,1009.124,73.877,1006.626,68.107z"/>
			<path fill="#5B1E07" d="M1013.193,8.156c1.412-12.064-18.869,52.142-20.944,55.58C990.174,67.173,1011.831,19.789,1013.193,8.156
				z"/>
			<path fill="#5B1E07" d="M1053.666-41.313c0,0-5.185,6.097-17.036,35.465C1024.779,23.52,1053.165-34.879,1053.666-41.313z"/>
			<path fill="#5B1E07" d="M992.082,77.101c0,0-12.101,37.603-12.915,42.869C978.353,125.236,993.395,79.721,992.082,77.101z"/>
			<path fill="#A0523C" d="M953.873,119.109l13.836-5.725c0,0,8.253-0.927,13.538,6.736c0,0,20.282,19.996,7.318,30.565
				c0,0-8.556,8.702-32.929,6.073c0,0-29.003-5.522-17.838-25.861l10.538-5.731l3.441,11.792c0,0-6.052,1.743-2.046,7.55
				c0,0,4.808,10.547,22.818,4.302c0,0,16.75-8.596,2.05-17.733c0,0-19.702-9.51-13.929,3.386c0,0,8.487,0.835,0.661,9.065
				c-3.195,3.36-9.196-6.887-9.196-6.887S946.433,123.364,953.873,119.109z"/>
			<path fill="#5B1E07" d="M960.907,134.32c0,0-6.15-11.33,9.451-5.409c0,0,16.842,6.342,7.96,17.044
				c0,0-27.182,16.456-29.858-6.761l3.674-2.552c0,0,5.25,6.895,9.196,6.887C961.33,143.528,968.627,136.202,960.907,134.32z"/>
		</g>
		<g clip-path="url(#SVGID_2_)">
			<path fill="#DC7C49" d="M1084.35,268.675l248.603-79.46c0,0,15.244-4.923,14.434,7.201l-0.855,2.551
				c0,0,12.847-6.387,18.928,2.873c0,0,4.608,2.875,6.288,10.911c0,0-2.892,1.933-2.06,5.975c0,0,2.505,6.101-6.31,11.218
				c0,0-148.377,49.568-178.488,61.113c0,0-68.13,24.477-81.442,26.352c0,0-13.349,0.67-21.842-14.44
				C1081.606,302.97,1056.895,277.464,1084.35,268.675z"/>
			<path fill="#5B1E07" d="M1090.443,283.118c0,0,2.912-6.975,9.956-10.376c2.348-1.133,6.203,1.092,10.184,0.307
				c15.923-3.141,7.026-2.694,7.026-2.694l14.428-7.108l6.7-1.56c0,0,20.432-7.459,31.496-10.458c11.065-3,31.926-6.52,37.985-8.938
				s84.428-24.844,85.561-26.92c1.133-2.075,45.174-14.527,52.335-16.52c0,0,0.089-1.569-7.812-0.181
				c0,0-47.068,16.466-50.346,17.11c-3.277,0.645-50.146,13.904-57.724,14.983c-7.578,1.08-52.223,18.144-57.668,17.427
				l-41.579,13.137L1090.443,283.118z"/>
			<path fill="#5B1E07" d="M1334.606,208.398c0,0-39.755,16.831-46.822,19.646C1280.717,230.86,1331.451,213.895,1334.606,208.398z"
				/>
			<path fill="#5B1E07" d="M1366.034,220.326c0,0-39.755,16.831-46.822,19.646C1312.145,242.787,1362.88,225.822,1366.034,220.326z"
				/>
			<path fill="#5B1E07" d="M1233.031,262.217c0,0-39.755,16.831-46.822,19.646C1179.142,284.679,1229.876,267.714,1233.031,262.217z
				"/>
			<path fill="#5B1E07" d="M1182.996,275.791c0,0-39.755,16.831-46.822,19.646C1129.107,298.252,1179.841,281.288,1182.996,275.791z
				"/>
			<path fill="#5B1E07" d="M1237.056,241.075c10.938-6.923-55.63,21.132-59.842,21.953
				C1173.003,263.849,1226.508,247.752,1237.056,241.075z"/>
			<path fill="#5B1E07" d="M1304.606,236.572c0,0-8.455,0.42-40.588,11.479C1231.885,259.11,1298.937,240.438,1304.606,236.572z"/>
			<path fill="#5B1E07" d="M1166.01,271.661c0,0-39.133,16.277-44.036,19.163C1117.071,293.71,1164.695,274.28,1166.01,271.661z"/>
			<path fill="#A0523C" d="M1106.134,272.841l13.807,5.782c0,0,6.171,5.077,3.27,13.732c0,0-3.323,27.055-20.581,25.044
				c0,0-12.823-0.197-26.592-18.703c0,0-14.399-23.588,9.791-29.211l11.654,3.507l-7.536,10.088c0,0-5.408-3.027-7.606,3.532
				c0,0-5.607,10.214,11.364,18.53c0,0,18.098,5.909,16.061-10.194c0,0-5.001-19.792-11.926-7.377c0,0,4.861,6.392-7.092,6.388
				c-4.88-0.002-0.303-10.84-0.303-10.84S1097.733,270.502,1106.134,272.841z"/>
			<path fill="#5B1E07" d="M1098.112,287.641c0,0,5.379-11.651,10.676,2.969c0,0,5.759,15.749-8.937,16.637
				c0,0-31.45-7.949-13.93-24.988l4.523,0.859c0,0-2.287,8.128,0.303,10.84C1090.746,293.958,1101.603,294.189,1098.112,287.641z"/>
		</g>
		<g clip-path="url(#SVGID_2_)">
			<path fill="#DC7C49" d="M987.428,419.399l69.313,231.529c0,0,4.204,14.226,14.702,6.736l1.82-2.089
				c0,0,1.521,13.259,13.342,12.562c0,0,5.214,1.823,13.431-1.479c0,0,0.106-3.266,4.231-4.936c0,0,6.936-1.584,6.557-11.1
				c0,0-39.432-139.402-46.091-168.536c0,0-16.554-64.984-22.416-76.031c0,0-6.973-10.39-25.451-8.181
				C1016.866,397.873,979.786,393.822,987.428,419.399z"/>
			<path fill="#5B1E07" d="M1003.941,415.769c0,0-4.651,6.143-3.726,13.356c0.308,2.404,4.509,4.032,6.059,7.463
				c6.2,13.723,1.554,6.798,1.554,6.798l1.767,14.855l2.393,5.91c0,0,4.858,19.555,8.428,29.555s12.231,27.642,13.485,33.558
				c1.254,5.916,25.474,77.414,24.242,79.442c-1.232,2.028,12.516,42.121,14.779,48.622c0,0-1.368,0.957-4.598-5.755
				c0,0-11.838-44.643-13.116-47.466c-1.278-2.824-15.901-45.496-19.227-51.792s-13.248-49.461-16.987-53.137l-11.731-38.636
				L1003.941,415.769z"/>
			<path fill="#5B1E07" d="M1075.017,641.277c0,0-7.357-39.366-8.824-46.263C1064.726,588.116,1078.194,635.791,1075.017,641.277z"
				/>
			<path fill="#5B1E07" d="M1103.638,658.074c0,0-7.357-39.366-8.824-46.263C1093.347,604.913,1106.815,652.588,1103.638,658.074z"
				/>
			<path fill="#5B1E07" d="M1065.995,534.557c0,0-7.357-39.366-8.824-46.263C1055.704,481.396,1069.173,529.071,1065.995,534.557z"
				/>
			<path fill="#5B1E07" d="M1049.859,489.331c0,0-7.357-39.366-8.824-46.263C1039.568,436.171,1053.036,483.845,1049.859,489.331z"
				/>
			<path fill="#5B1E07" d="M1049.172,549.577c-0.048,12.132-12.481-53.712-14.13-57.336S1049.219,537.878,1049.172,549.577z"/>
			<path fill="#5B1E07" d="M1083.45,602.788c0,0-4.42-6.578-12.667-36.952C1062.537,535.462,1083.726,596.342,1083.45,602.788z"/>
			<path fill="#5B1E07" d="M1036.485,478.939c0,0-7.504-38.585-7.679-43.9S1038.105,476.466,1036.485,478.939z"/>
			<path fill="#A0523C" d="M1003.56,433.37l13.064,7.071c0,0,8.092,1.745,14.267-5.343c0,0,22.566-17.851,10.951-29.65
				c0,0-7.457-9.503-32-9.323c0,0-29.493,2.593-20.843,23.925l9.785,6.748l4.839-11.378c0,0-5.806-2.337-1.125-7.709
				c0,0,6.048-10.003,23.199-1.998c0,0,15.615,10.217-0.096,17.83c0,0-20.727,7.486-13.437-4.756c0,0,8.537,0.017,1.747-8.944
				c-2.772-3.658-9.969,5.927-9.969,5.927S996.677,428.398,1003.56,433.37z"/>
			<path fill="#5B1E07" d="M1012.382,418.952c0,0-7.477,10.647,8.744,6.32c0,0,17.504-4.622,9.963-16.146
				c0,0-25.038-19.071-30.492,3.74l3.344,2.904c0,0,6.048-6.329,9.969-5.927C1013.91,409.842,1020.282,417.853,1012.382,418.952z"/>
		</g>
		<g clip-path="url(#SVGID_2_)">
			<path fill="#DC7C49" d="M846.497,392.674l-60.37-233.598c0,0-3.655-14.352-14.434-7.2l-1.899,2.03c0,0-1.01-13.3-12.851-12.98
				c0,0-5.141-1.989-13.48,1.05c0,0-0.231,3.26-4.418,4.798c0,0-6.993,1.362-6.979,10.884c0,0,34.049,140.574,39.585,169.903
				c0,0,14.046,65.472,19.48,76.699c0,0,6.569,10.606,25.121,8.988C816.251,413.248,853.152,418.479,846.497,392.674z"/>
			<path fill="#5B1E07" d="M829.856,395.775c0,0,4.884-5.991,4.237-13.229c-0.216-2.413-4.351-4.173-5.768-7.651
				c-5.669-13.913-1.292-6.843-1.292-6.843l-1.195-14.902l-2.165-5.983c0,0-4.103-19.698-7.287-29.806
				c-3.184-10.108-11.161-28.015-12.187-33.968c-1.026-5.953-22.483-78.179-21.173-80.166s-10.889-42.495-12.901-49.064
				c0,0,1.404-0.913,4.374,5.899c0,0,10.115,44.993,11.284,47.855c1.169,2.863,14.142,45.975,17.225,52.373
				c3.082,6.398,11.338,49.853,14.934,53.646l10.238,38.987L829.856,395.775z"/>
			<path fill="#5B1E07" d="M767.492,168.138c0,0,5.839,39.577,7.04,46.517C775.733,221.595,764.105,173.519,767.492,168.138z"/>
			<path fill="#5B1E07" d="M739.534,150.439c0,0,5.839,39.577,7.04,46.517C747.775,203.896,736.147,155.82,739.534,150.439z"/>
			<path fill="#5B1E07" d="M772.405,275.081c0,0,5.839,39.577,7.04,46.517C780.647,328.537,769.019,280.462,772.405,275.081z"/>
			<path fill="#5B1E07" d="M786.793,320.793c0,0,5.839,39.577,7.04,46.517C795.035,374.25,783.407,326.175,786.793,320.793z"/>
			<path fill="#5B1E07" d="M789.795,260.607c0.514-12.123,10.409,54.077,11.918,57.751
				C803.221,322.032,789.299,272.297,789.795,260.607z"/>
			<path fill="#5B1E07" d="M757.584,206.335c0,0,4.165,6.715,11.238,37.334S757.061,212.768,757.584,206.335z"/>
			<path fill="#5B1E07" d="M799.76,331.606c0,0,6.016,38.8,5.987,44.118C805.718,381.041,798.046,334.025,799.76,331.606z"/>
			<path fill="#A0523C" d="M830.913,378.197l-12.784-7.484c0,0-8.02-2.002-14.464,4.885c0,0-23.238,17.12-12.084,29.283
				c0,0,7.088,9.735,31.622,10.338c0,0,29.575-1.651,21.749-23.245l-9.52-7.056l-5.273,11.217c0,0,5.712,2.52,0.828,7.74
				c0,0-6.429,9.804-23.261,1.257c0,0-15.213-10.708,0.781-17.816c0,0,21.002-6.82,13.246,5.181c0,0-8.531-0.289-2.09,8.883
				c2.63,3.745,10.191-5.605,10.191-5.605S837.6,383.385,830.913,378.197z"/>
			<path fill="#5B1E07" d="M821.542,392.324c0,0,7.881-10.402-8.495-6.595c0,0-17.67,4.061-10.577,15.819
				c0,0,24.29,19.857,30.617-2.765l-3.231-3.009c0,0-6.288,6.133-10.191,5.605C819.665,401.38,813.605,393.171,821.542,392.324z"/>
		</g>
		<g clip-path="url(#SVGID_2_)">
			<path fill="#DC7C49" d="M830.361,932.081l96.753-223.215c0,0,5.891-13.721,15.424-5.227l1.558,2.258
				c0,0,3.107-13.028,14.773-11.154c0,0,5.402-1.292,13.173,2.811c0,0-0.288,3.257,3.611,5.329c0,0,6.703,2.267,5.182,11.688
				c0,0-55.968,134.626-66.092,162.919c0,0-24.273,62.94-31.43,73.335c0,0-8.181,9.632-26.282,5.591
				C857.031,956.416,819.687,956.742,830.361,932.081z"/>
			<path fill="#5B1E07" d="M846.337,937.338c0,0-3.884-6.571-2.096-13.647c0.596-2.359,4.967-3.557,6.92-6.813
				c7.814-13.022,2.362-6.602,2.362-6.602l3.543-14.589l3.09-5.636c0,0,7.181-18.953,11.933-28.536
				c4.752-9.583,15.483-26.254,17.441-32.01c1.958-5.755,34.636-74.405,33.655-76.543s17.508-40.618,20.541-46.854
				c0,0-1.244-1.088-5.263,5.262c0,0-17.139,43.192-18.749,45.871c-1.61,2.679-21.279,43.634-25.343,49.56
				c-4.064,5.926-19.119,47.84-23.279,51.121l-16.309,37.232L846.337,937.338z"/>
			<path fill="#5B1E07" d="M944.119,720.284c0,0-12.049,38.395-14.338,45.104C927.493,772.097,946.617,726.054,944.119,720.284z"/>
			<path fill="#5B1E07" d="M974.589,706.446c0,0-12.049,38.395-14.338,45.104C957.963,758.259,977.087,712.216,974.589,706.446z"/>
			<path fill="#5B1E07" d="M922.311,825.461c0,0-12.049,38.395-14.338,45.104C905.685,877.274,924.809,831.231,922.311,825.461z"/>
			<path fill="#5B1E07" d="M900.83,868.803c0,0-12.049,38.395-14.338,45.104C884.204,920.616,903.328,874.573,900.83,868.803z"/>
			<path fill="#5B1E07" d="M907.397,808.852c1.412-12.064-18.869,52.142-20.944,55.58
				C884.378,867.869,906.035,820.485,907.397,808.852z"/>
			<path fill="#5B1E07" d="M947.87,759.383c0,0-5.185,6.097-17.036,35.465C918.982,824.216,947.368,765.818,947.87,759.383z"/>
			<path fill="#5B1E07" d="M886.286,877.798c0,0-12.101,37.603-12.915,42.869C872.557,925.932,887.599,880.417,886.286,877.798z"/>
			<path fill="#A0523C" d="M848.076,919.805l13.836-5.725c0,0,8.253-0.927,13.538,6.736c0,0,20.282,19.996,7.318,30.565
				c0,0-8.556,8.702-32.929,6.073c0,0-29.003-5.522-17.838-25.861l10.538-5.731l3.441,11.792c0,0-6.052,1.743-2.046,7.55
				c0,0,4.808,10.547,22.818,4.302c0,0,16.75-8.596,2.05-17.733c0,0-19.702-9.51-13.929,3.386c0,0,8.487,0.835,0.661,9.065
				c-3.195,3.36-9.196-6.887-9.196-6.887S840.637,924.06,848.076,919.805z"/>
			<path fill="#5B1E07" d="M855.111,935.017c0,0-6.15-11.33,9.451-5.409c0,0,16.842,6.342,7.96,17.044
				c0,0-27.182,16.456-29.858-6.761l3.674-2.552c0,0,5.25,6.895,9.196,6.887C855.534,944.224,862.831,936.898,855.111,935.017z"/>
		</g>
	</g>
</g>
</svg>
