<?xml version="1.0" encoding="utf-8"?>
<!-- Generator: Adobe Illustrator 17.0.0, SVG Export Plug-In . SVG Version: 6.00 Build 0)  -->
<!DOCTYPE svg PUBLIC "-//W3C//DTD SVG 1.1//EN" "http://www.w3.org/Graphics/SVG/1.1/DTD/svg11.dtd">
<svg version="1.1" id="Layer_1" xmlns="http://www.w3.org/2000/svg" xmlns:xlink="http://www.w3.org/1999/xlink" x="0px" y="0px"
	 width="95px" height="95px" viewBox="0 0 95 95" enable-background="new 0 0 95 95" xml:space="preserve">
<g>
	<g>
		<path fill="#3F1D11" d="M40.936,30.377c0.556-1.481,1.095-3.114,1.808-4.669c0.161-0.352,0.931-0.618,1.408-0.601
			c4.474,0.166,8.946,0.399,13.418,0.618c2.132,0.104,4.263,0.261,6.396,0.309c0.919,0.02,1.507,0.402,1.596,1.245
			c0.182,1.731,0.504,3.509,0.288,5.207c-0.56,4.408-1.959,8.566-4.549,12.25c-0.216,0.308-0.454,0.603-0.705,0.883
			c-1.807,2.027-2.372,1.972-4.582,0.392c-3.157-2.257-6.436-4.344-9.666-6.499c-1.877-1.253-3.746-2.518-5.644-3.738
			c-0.736-0.473-1.022-0.972-0.71-1.868C40.378,32.8,40.606,31.641,40.936,30.377z"/>
		<path fill="#3F1D11" d="M64.407,24.212c-2.991-0.142-5.821-0.275-8.651-0.41c-3.426-0.163-6.851-0.367-10.28-0.463
			c-0.857-0.024-1.218-0.286-1.307-1.1c-0.173-1.58-0.36-3.16-0.581-4.734c-0.112-0.799,0.239-1.119,0.974-1.3
			c4.718-1.16,9.426-2.358,14.145-3.514c0.308-0.075,0.827-0.027,0.995,0.175C62.387,16.087,64.281,19.654,64.407,24.212z"/>
		<path fill="#3F1D11" d="M56.631,48.674c-1.127,0.999-2.111,1.921-3.147,2.779c-2.03,1.682-4.378,2.74-6.904,3.449
			c-0.69,0.194-1.158,0.077-1.631-0.493c-3.044-3.675-6.11-7.332-9.191-10.975c-0.522-0.618-0.614-1.095,0.006-1.713
			c1.125-1.122,2.225-2.274,3.266-3.473c0.544-0.626,0.934-0.555,1.569-0.124c3.482,2.367,6.991,4.695,10.505,7.014
			C52.836,46.28,54.598,47.375,56.631,48.674z"/>
		<path fill="#3F1D11" d="M44.342,6.078c1.262-3.993,3.171-4.206,6.198-1.814c2.047,1.618,3.728,3.704,5.547,5.605
			c0.71,0.742,0.474,1.233-0.491,1.496c-3.598,0.98-7.193,1.97-10.783,2.977c-0.885,0.248-1.331-0.071-1.285-0.949
			c0.129-2.448,0.308-4.893,0.467-7.339C44.111,6.063,44.227,6.07,44.342,6.078z"/>
		<path fill="#3F1D11" d="M29.35,51.211c1.286-2.038,2.554-4.088,3.867-6.109c0.514-0.792,1.052-0.762,1.664,0.017
			c2.278,2.899,4.598,5.765,6.908,8.639c0.493,0.614,0.798,1.287-0.271,1.474c-2.955,0.516-5.925,0.959-8.9,1.344
			c-0.585,0.076-1.242-0.176-1.828-0.383c-1.368-0.485-1.867-1.4-1.611-2.844c0.117-0.659,0.276-1.31,0.416-1.964
			C29.513,51.326,29.431,51.269,29.35,51.211z"/>
	</g>
	<g>
		<path fill="#3F1D11" d="M9.409,76.7h2.48c2.74,0,5.041,1,5.041,4.081c0,1.22-0.46,2.26-1.48,2.94
			c1.8,0.439,2.861,2.061,2.861,3.86c0,3.001-2.42,4.201-5.401,4.201h-3.5V76.7z M11.089,83.341h0.64c1.9,0,3.521-0.221,3.521-2.561
			c0-2.281-1.44-2.521-3.5-2.521h-0.66V83.341z M11.089,90.222h1.68c1.88,0,3.861-0.46,3.861-2.761c0-2.34-2.24-2.681-4.081-2.681
			h-1.46V90.222z"/>
		<path fill="#3F1D11" d="M22.289,83.401h0.04c0.56-0.74,1.041-1.28,2.081-1.28c0.54,0,0.98,0.18,1.44,0.44l-0.76,1.46
			c-0.32-0.22-0.54-0.42-0.96-0.42c-1.76,0-1.84,2.261-1.84,3.48v4.701h-1.6v-9.402h1.6V83.401z"/>
		<path fill="#3F1D11" d="M28.268,87.422c0.02,1.741,1.26,3.141,3.081,3.141c1.36,0,2.24-0.819,2.86-1.94l1.36,0.78
			c-0.9,1.681-2.42,2.641-4.341,2.641c-2.801,0-4.601-2.141-4.601-4.841c0-2.78,1.62-5.081,4.561-5.081
			c3.021,0,4.621,2.501,4.461,5.301H28.268z M33.969,86.061c-0.22-1.359-1.36-2.46-2.76-2.46c-1.38,0-2.661,1.101-2.861,2.46H33.969
			z"/>
		<path fill="#3F1D11" d="M46.43,91.783h-1.6v-1.3h-0.04c-0.82,1.04-1.92,1.56-3.241,1.56c-2.761,0-4.501-2.34-4.501-4.94
			c0-2.681,1.7-4.981,4.521-4.981c1.28,0,2.44,0.601,3.221,1.601h0.04v-1.341h1.6V91.783z M38.688,86.982
			c0,1.84,1.081,3.58,3.081,3.58c2.06,0,3.141-1.66,3.141-3.561c0-1.88-1.181-3.4-3.161-3.4
			C39.888,83.601,38.688,85.221,38.688,86.982z"/>
		<path fill="#3F1D11" d="M50.908,85.862l3.42-3.481h2.141l-4.021,4.001l4.78,5.401H55.11l-3.781-4.281l-0.42,0.421v3.86h-1.6
			V75.279h1.6V85.862z"/>
		<path fill="#3F1D11" d="M60.528,91.783h-1.6v-7.922h-0.881v-1.48h0.881v-3.74c0-0.78,0-1.761,0.42-2.44
			c0.52-0.841,1.46-1.181,2.42-1.181c0.381,0,0.761,0.08,1.141,0.2v1.62c-0.359-0.12-0.68-0.22-1.08-0.22
			c-1.301,0-1.301,0.92-1.301,2.58v3.181h2.381v1.48h-2.381V91.783z"/>
		<path fill="#3F1D11" d="M72.849,91.783h-1.601v-1.3h-0.039c-0.82,1.04-1.921,1.56-3.241,1.56c-2.761,0-4.501-2.34-4.501-4.94
			c0-2.681,1.7-4.981,4.521-4.981c1.279,0,2.439,0.601,3.221,1.601h0.039v-1.341h1.601V91.783z M65.108,86.982
			c0,1.84,1.08,3.58,3.08,3.58c2.061,0,3.141-1.66,3.141-3.561c0-1.88-1.18-3.4-3.16-3.4C66.307,83.601,65.108,85.221,65.108,86.982
			z"/>
		<path fill="#3F1D11" d="M79.608,84.561c-0.22-0.5-0.699-0.96-1.279-0.96c-0.561,0-1.161,0.44-1.161,1.04
			c0,0.86,1.081,1.181,2.181,1.641s2.181,1.12,2.181,2.7c0,1.78-1.44,3.061-3.181,3.061c-1.58,0-2.82-0.9-3.32-2.38l1.42-0.601
			c0.4,0.88,0.859,1.5,1.92,1.5c0.86,0,1.521-0.58,1.521-1.439c0-2.101-4.241-1.381-4.241-4.342c0-1.58,1.281-2.66,2.801-2.66
			c1.08,0,2.08,0.76,2.501,1.74L79.608,84.561z"/>
		<path fill="#3F1D11" d="M85.467,91.783h-1.6v-7.922h-0.98v-1.48h0.98V79h1.6v3.381h1.681v1.48h-1.681V91.783z"/>
	</g>
</g>
</svg>
