<?xml version="1.0" encoding="utf-8"?>
<!-- Generator: Adobe Illustrator 17.0.0, SVG Export Plug-In . SVG Version: 6.00 Build 0)  -->
<!DOCTYPE svg PUBLIC "-//W3C//DTD SVG 1.1//EN" "http://www.w3.org/Graphics/SVG/1.1/DTD/svg11.dtd">
<svg version="1.1" id="Layer_1" xmlns="http://www.w3.org/2000/svg" xmlns:xlink="http://www.w3.org/1999/xlink" x="0px" y="0px"
	 width="95px" height="95px" viewBox="0 0 95 95" enable-background="new 0 0 95 95" xml:space="preserve">
<g>
	<g>
		<path fill="#3F1D11" d="M65.808,44.902c-1.256,0.28-2.512,0.561-4.009,0.895c-0.051,0.887-0.12,1.979-0.176,3.072
			c-0.094,1.839-1.157,2.967-3.016,2.972c-9.814,0.027-19.628,0.029-29.442,0.003c-1.96-0.005-2.912-1.07-3.072-3.299
			c-0.243-3.384-0.43-6.773-0.659-10.158c-0.39-5.765-0.775-11.53-1.201-17.292c-0.256-3.461,0.579-4.406,4.079-4.409
			c6.79-0.006,13.58-0.004,20.371-0.005c0.519,0,1.038,0,1.665,0c0,4.624,0,9.092,0,13.737c-1.286-0.256-2.531-0.452-3.749-0.761
			c-1.068-0.271-1.631,0.121-1.837,1.139c-0.609,3.007-1.21,6.016-1.811,9.024c-0.175,0.877,0.118,1.424,1.053,1.607
			c3.064,0.599,6.123,1.229,9.185,1.839c0.968,0.193,1.469-0.203,1.646-1.197c0.325-1.822,0.718-3.634,1.131-5.439
			c0.08-0.351,0.381-0.651,0.58-0.974C59.634,38.737,62.721,41.819,65.808,44.902z M36.85,19.384
			c0.003-0.181,0.006-0.362,0.009-0.542c-2.881,0-5.766-0.08-8.642,0.045c-0.965,0.042-1.778,0.72-1.693,1.933
			c0.431,6.16,0.862,12.32,1.293,18.48c0.378-1.429,0.319-2.844,0.389-4.252c0.21-4.218,0.45-8.435,0.727-12.649
			c0.066-0.999,0.646-1.536,1.729-1.715C32.74,20.34,34.789,19.826,36.85,19.384z"/>
		<path fill="#3F1D11" d="M65.808,44.902c-3.087-3.082-6.174-6.165-9.261-9.247c-0.009-0.711-0.115-1.438-0.005-2.13
			c0.183-1.156,0.093-1.847-1.347-2.098c-3.83-0.669-3.817-0.743-3.817-4.61c0-2.918,0.048-5.836-0.024-8.752
			c-0.029-1.179,0.457-1.429,1.508-1.404c2.386,0.057,4.774,0.004,7.161,0.023c2.629,0.021,3.593,1.062,3.519,3.733
			c-0.016,0.575-0.002,1.152-0.002,1.817c2.962,0.469,5.669,1.344,7.819,3.539c5.671,5.79,3.517,16.015-4.024,18.859
			C66.86,44.812,66.318,44.816,65.808,44.902z M63.164,27.408c-0.347,4.381-0.687,8.67-1.027,12.955
			c4.308,0.372,7.232-2.08,7.424-6.005C69.758,30.346,67.24,27.499,63.164,27.408z"/>
		<path fill="#3F1D11" d="M66.659,53.568c0.019,2.484-0.855,3.384-3.19,3.384c-12.986,0.003-25.972,0.003-38.958,0.001
			c-2.238,0-3.131-0.881-3.342-3.386C36.301,53.568,51.422,53.568,66.659,53.568z"/>
		<path fill="#3F1D11" d="M53.797,2.343c3.122,0.311,4.288,2.528,2.637,4.962c-0.945,1.392-2.126,2.622-3.145,3.968
			c-0.387,0.511-0.618,1.14-0.924,1.722c-1.031-0.503-1.332-1.491-0.599-2.895c0.609-1.166,1.327-2.289,2.106-3.351
			C55.314,4.785,55.353,4.283,53.797,2.343z"/>
		<path fill="#3F1D11" d="M46.908,2.371c2.982,0.231,4.183,2.478,2.542,4.917c-0.82,1.219-1.89,2.266-2.797,3.43
			c-0.54,0.692-0.986,1.459-1.543,2.297c-1.099-0.833-0.799-1.93-0.336-2.893c0.545-1.133,1.247-2.204,1.986-3.226
			C48.347,4.697,48.384,4.459,46.908,2.371z"/>
		<path fill="#3F1D11" d="M39.816,2.298c3.269,0.497,4.311,2.752,2.505,5.199c-1.358,1.841-2.841,3.589-4.322,5.447
			c-0.911-0.82-0.705-1.861-0.243-2.782c0.586-1.168,1.308-2.283,2.079-3.342C41.328,4.768,41.367,4.331,39.816,2.298z"/>
	</g>
	<g>
		<path fill="#3F1D11" d="M23.904,78.318h2.7c2.148,0,3.898,0.285,5.59,1.729c1.635,1.407,2.376,3.327,2.376,5.457
			c0,2.091-0.76,3.936-2.338,5.342c-1.711,1.521-3.422,1.807-5.666,1.807h-2.662V78.318z M26.661,91.17
			c1.749,0,3.213-0.247,4.525-1.482c1.179-1.103,1.787-2.604,1.787-4.202c0-1.635-0.627-3.213-1.863-4.297
			c-1.312-1.159-2.757-1.388-4.449-1.388h-1.16V91.17H26.661z"/>
		<path fill="#3F1D11" d="M38.245,84.687h0.038c0.533-0.704,0.989-1.217,1.978-1.217c0.513,0,0.932,0.171,1.369,0.418l-0.722,1.388
			c-0.304-0.209-0.514-0.399-0.913-0.399c-1.673,0-1.749,2.148-1.749,3.309v4.468h-1.521v-8.936h1.521V84.687z"/>
		<path fill="#3F1D11" d="M45.3,80.352c0,0.608-0.494,1.083-1.083,1.083s-1.084-0.475-1.084-1.083c0-0.59,0.495-1.084,1.084-1.084
			S45.3,79.762,45.3,80.352z M44.977,92.653h-1.521v-8.936h1.521V92.653z"/>
		<path fill="#3F1D11" d="M49.675,84.8h0.038c0.627-0.855,1.445-1.33,2.547-1.33c2.472,0,3.042,1.787,3.042,3.878v5.305h-1.521
			v-5.038c0-1.445-0.114-2.738-1.882-2.738c-2.091,0-2.225,1.939-2.225,3.536v4.24h-1.521v-8.936h1.521V84.8z"/>
		<path fill="#3F1D11" d="M59.641,87.025l3.251-3.308h2.035l-3.822,3.802l4.544,5.134h-2.015l-3.594-4.068l-0.399,0.399v3.669
			h-1.521V76.967h1.521V87.025z"/>
		<path fill="#3F1D11" d="M70.749,85.79c-0.209-0.476-0.666-0.913-1.217-0.913c-0.532,0-1.104,0.419-1.104,0.989
			c0,0.817,1.027,1.121,2.073,1.559c1.045,0.438,2.072,1.064,2.072,2.566c0,1.692-1.369,2.909-3.023,2.909
			c-1.502,0-2.681-0.855-3.156-2.263l1.351-0.57c0.38,0.837,0.817,1.426,1.825,1.426c0.817,0,1.444-0.551,1.444-1.368
			c0-1.997-4.03-1.312-4.03-4.126c0-1.502,1.217-2.528,2.661-2.528c1.027,0,1.978,0.722,2.377,1.653L70.749,85.79z"/>
	</g>
</g>
</svg>
