<?xml version="1.0" encoding="utf-8"?>
<!-- Generator: Adobe Illustrator 17.0.0, SVG Export Plug-In . SVG Version: 6.00 Build 0)  -->
<!DOCTYPE svg PUBLIC "-//W3C//DTD SVG 1.1//EN" "http://www.w3.org/Graphics/SVG/1.1/DTD/svg11.dtd">
<svg version="1.1" id="Layer_1" xmlns="http://www.w3.org/2000/svg" xmlns:xlink="http://www.w3.org/1999/xlink" x="0px" y="0px"
	 width="95px" height="95px" viewBox="0 0 95 95" enable-background="new 0 0 95 95" xml:space="preserve">
<g>
	<g>
		<path fill="#3F1D11" d="M80.006,35.287c-5.967,2.461-11.941,4.906-17.898,7.391c-1.861,0.776-4.064,1.256-5.436,2.574
			c-3.084,2.963-5.736,3.128-8.976,0.304c-3.099-2.7-6.658-4.092-11.033-3.237c-1.47,0.287-3.946-0.461-4.729-1.591
			c-1.922-2.772-4.397-3.822-7.486-4.418c-2.208-0.426-4.863-1.732-3.588-4.276c0.664-1.326,4.214-2.448,5.783-1.859
			c6.292,2.363,12.469,5.15,18.398,8.322c5.298,2.835,9.623,2.638,14.016-1.67c4.763-4.671,11.585-3.745,17.404-5.571
			c0.929-0.291,2.351,0.991,3.546,1.546C80.006,33.63,80.006,34.458,80.006,35.287z"/>
		<path fill="#3F1D11" d="M80.006,22.031c-1.711,3.679-4.669,5.686-8.631,6.047c-5.561,0.507-10.253,2.784-14.389,6.436
			c-2.614,2.308-5.468,2.778-8.756,1.235c-7.714-3.62-15.509-7.07-23.245-10.645c-0.803-0.371-1.432-1.119-2.725-2.163
			c3.979-2.698,7.633-5.055,11.138-7.616c1.245-0.91,2.722-2.16,3.073-3.518c1.271-4.916,4.672-7.511,9.164-8.532
			c10.359-2.356,20.031-0.147,28.543,6.012c2.506,1.813,3.916,5.14,5.828,7.773C80.006,18.717,80.006,20.374,80.006,22.031z
			 M27.148,23.151c8.278,3.648,15.727,7.062,23.313,10.137c1.189,0.482,3.404-0.111,4.461-1.01
			c4.878-4.149,10.359-6.391,16.721-7.273c5.113-0.709,6.802-4.637,4.257-9.172c-1.163-2.073-2.957-4.092-4.961-5.339
			C64.06,6.213,56.369,4.359,48.413,5.779c-3.024,0.54-7.246,2.741-8.109,5.18c-1.52,4.297-4.401,6.343-7.706,8.494
			C31.027,20.476,29.493,21.557,27.148,23.151z"/>
		<path fill="#3F1D11" d="M23.209,40.878c1.3,0.274,2.696,0.332,3.883,0.859c6.909,3.072,13.829,6.133,20.621,9.452
			c3.246,1.587,6.087,1.69,8.569-1.011c4.899-5.331,11.877-5.256,18.102-7.12c0.555-0.166,1.355,0.483,2.04,0.753
			c-0.367,0.644-0.584,1.62-1.13,1.865c-1.361,0.61-2.848,1.089-4.326,1.261c-4.918,0.572-9.317,2.191-12.971,5.65
			c-3.279,3.104-6.884,3.456-10.989,1.506c-8.036-3.819-16.168-7.438-24.26-11.139C22.903,42.262,23.056,41.57,23.209,40.878z"/>
	</g>
	<g>
		<path fill="#3F1D11" d="M29.277,91.278h4.161v1.561h-5.841V77.756h1.68V91.278z"/>
		<path fill="#3F1D11" d="M36.577,88.677c0,1.581,0.18,2.94,2.121,2.94s2.121-1.359,2.121-2.94v-5.241h1.6v5.422
			c0,2.5-0.94,4.24-3.721,4.24s-3.721-1.74-3.721-4.24v-5.422h1.6V88.677z"/>
		<path fill="#3F1D11" d="M46.937,84.577h0.04c0.66-0.9,1.521-1.4,2.681-1.4c2.601,0,3.2,1.881,3.2,4.081v5.581h-1.6v-5.301
			c0-1.521-0.12-2.881-1.98-2.881c-2.2,0-2.34,2.04-2.34,3.721v4.461h-1.6v-9.402h1.6V84.577z"/>
		<path fill="#3F1D11" d="M62.878,86.237h-0.04c-0.74-0.94-1.66-1.58-2.921-1.58c-1.94,0-3.32,1.601-3.32,3.48
			c0,1.86,1.28,3.48,3.24,3.48c1.341,0,2.28-0.6,3.062-1.62h0.039v2.141c-0.92,0.62-1.859,0.96-2.98,0.96
			c-2.84,0-5.001-2.12-5.001-4.961c0-2.801,2.261-4.961,5.021-4.961c1.021,0,2.061,0.34,2.901,0.94V86.237z"/>
		<path fill="#3F1D11" d="M67.017,76.335v8.202l0.04,0.04c0.66-0.9,1.521-1.4,2.681-1.4c2.601,0,3.2,1.881,3.2,4.081v5.581h-1.6
			v-5.301c0-1.521-0.12-2.881-1.98-2.881c-2.201,0-2.341,2.04-2.341,3.721v4.461h-1.601V76.335H67.017z"/>
	</g>
</g>
</svg>
