<?xml version="1.0" encoding="utf-8"?>
<!-- Generator: Adobe Illustrator 17.0.0, SVG Export Plug-In . SVG Version: 6.00 Build 0)  -->
<!DOCTYPE svg PUBLIC "-//W3C//DTD SVG 1.1//EN" "http://www.w3.org/Graphics/SVG/1.1/DTD/svg11.dtd">
<svg version="1.1" id="Layer_1" xmlns="http://www.w3.org/2000/svg" xmlns:xlink="http://www.w3.org/1999/xlink" x="0px" y="0px"
	 width="95px" height="95px" viewBox="0 0 95 95" enable-background="new 0 0 95 95" xml:space="preserve">
<g>
	<g>
		<path fill="#3F1D11" d="M34.137,10.657c4.479-2.63,7.331-7.241,13.73-7.207c6.372,0.033,9.369,4.383,13.959,7.335
			c0.843-1.797,1.481-3.631,2.525-5.195c0.566-0.849,1.776-1.636,2.776-1.751c2.111-0.242,4.275,0.015,6.417-0.005
			c2.064-0.019,2.588,0.767,1.609,2.623c-1.207,2.287-2.163,4.724-3.53,6.907c-3.847,6.144-5.322,12.893-5.877,20.018
			c-0.485,6.223-1.466,12.406-2.124,18.617c-0.178,1.68-0.827,2.303-2.527,2.292c-8.75-0.058-17.501-0.074-26.251,0.01
			c-1.909,0.018-2.432-0.816-2.622-2.506c-0.947-8.424-1.883-16.85-3.03-25.248c-0.342-2.502-1.091-5.031-2.122-7.338
			c-1.927-4.312-4.17-8.484-6.336-12.687c-0.997-1.935-0.596-2.881,1.677-2.76c0.089,0.005,0.179-0.002,0.268,0
			c2.584,0.05,5.664-0.747,7.609,0.393C32.165,5.255,32.871,8.354,34.137,10.657z M31.388,20.619c11.143,0,22.159,0,33.116,0
			c0.648-2.708,0.007-4.564-2.203-6.149c-2.969-2.13-5.673-4.631-8.496-6.965c-2.436-2.014-9.307-2.021-11.737-0.01
			c-2.823,2.335-5.535,4.819-8.488,6.975C31.418,16.05,30.561,17.835,31.388,20.619z M23.534,6.526
			c1.621,3.228,3.197,6.369,4.727,9.416c1.287-1.184,2.455-2.258,3.607-3.318C28.883,5.256,30.02,5.707,23.534,6.526z M72.405,6.391
			c-5.406-0.652-5.437-0.642-6.664,1.961c-1.859,3.943-1.859,3.943,1.888,7.53C69.193,12.774,70.732,9.716,72.405,6.391z"/>
	</g>
	<g>
		<path fill="#3F1D11" d="M9.946,91.839h-1.68V78.316H4.625v-1.561h9.002v1.561H9.946V91.839z"/>
		<path fill="#3F1D11" d="M21.927,91.839h-1.6v-1.3h-0.04c-0.82,1.04-1.92,1.56-3.241,1.56c-2.761,0-4.501-2.34-4.501-4.94
			c0-2.681,1.7-4.981,4.521-4.981c1.28,0,2.44,0.601,3.221,1.601h0.04v-1.341h1.6V91.839z M14.186,87.038
			c0,1.84,1.081,3.58,3.081,3.58c2.061,0,3.141-1.66,3.141-3.561c0-1.88-1.181-3.4-3.161-3.4
			C15.386,83.657,14.186,85.277,14.186,87.038z"/>
		<path fill="#3F1D11" d="M26.406,85.918l3.421-3.481h2.141l-4.021,4.001l4.781,5.401h-2.12l-3.781-4.281l-0.42,0.421v3.86h-1.6
			V75.335h1.6V85.918z"/>
		<path fill="#3F1D11" d="M35.085,87.477c0.02,1.741,1.26,3.141,3.081,3.141c1.36,0,2.24-0.819,2.86-1.94l1.36,0.78
			c-0.9,1.681-2.42,2.641-4.341,2.641c-2.801,0-4.601-2.141-4.601-4.841c0-2.78,1.62-5.081,4.561-5.081
			c3.021,0,4.621,2.501,4.461,5.301H35.085z M40.786,86.117c-0.22-1.359-1.36-2.46-2.76-2.46c-1.38,0-2.661,1.101-2.861,2.46H40.786
			z"/>
		<path fill="#3F1D11" d="M53.247,91.839h-1.6v-1.3h-0.04c-0.82,1.04-1.92,1.56-3.241,1.56c-2.761,0-4.501-2.34-4.501-4.94
			c0-2.681,1.7-4.981,4.521-4.981c1.28,0,2.44,0.601,3.221,1.601h0.04v-1.341h1.6V91.839z M45.505,87.038
			c0,1.84,1.081,3.58,3.081,3.58c2.06,0,3.141-1.66,3.141-3.561c0-1.88-1.181-3.4-3.161-3.4
			C46.706,83.657,45.505,85.277,45.505,87.038z"/>
		<path fill="#3F1D11" d="M59.346,88.797l2.92-7.081l2.941,7.081l2.8-6.361h1.82l-4.661,10.062l-2.9-7.002l-2.9,7.002l-4.621-10.062
			h1.82L59.346,88.797z"/>
		<path fill="#3F1D11" d="M79.987,91.839h-1.6v-1.3h-0.041c-0.82,1.04-1.92,1.56-3.24,1.56c-2.761,0-4.501-2.34-4.501-4.94
			c0-2.681,1.7-4.981,4.521-4.981c1.281,0,2.441,0.601,3.221,1.601h0.041v-1.341h1.6V91.839z M72.245,87.038
			c0,1.84,1.081,3.58,3.081,3.58c2.061,0,3.142-1.66,3.142-3.561c0-1.88-1.182-3.4-3.161-3.4
			C73.446,83.657,72.245,85.277,72.245,87.038z"/>
		<path fill="#3F1D11" d="M81.384,82.436h1.86l3.32,6.742l3.041-6.742h1.82L84.485,97.12h-1.82l3.041-6.161L81.384,82.436z"/>
	</g>
</g>
</svg>
