<?xml version="1.0" encoding="utf-8"?>
<!-- Generator: Adobe Illustrator 17.0.0, SVG Export Plug-In . SVG Version: 6.00 Build 0)  -->
<!DOCTYPE svg PUBLIC "-//W3C//DTD SVG 1.1//EN" "http://www.w3.org/Graphics/SVG/1.1/DTD/svg11.dtd">
<svg version="1.1"
	 id="svg5535" sodipodi:docname="Héraldique meuble Cerbère.svg" inkscape:version="0.48.2 r9819" xmlns:svg="http://www.w3.org/2000/svg" xmlns:cc="http://creativecommons.org/ns#" xmlns:dc="http://purl.org/dc/elements/1.1/" xmlns:rdf="http://www.w3.org/1999/02/22-rdf-syntax-ns#" xmlns:sodipodi="http://sodipodi.sourceforge.net/DTD/sodipodi-0.dtd" xmlns:inkscape="http://www.inkscape.org/namespaces/inkscape"
	 xmlns="http://www.w3.org/2000/svg" xmlns:xlink="http://www.w3.org/1999/xlink" x="0px" y="0px" width="508.068px"
	 height="401.217px" viewBox="0 0 508.068 401.217" enable-background="new 0 0 508.068 401.217" xml:space="preserve">
<sodipodi:namedview  inkscape:window-maximized="1" inkscape:window-y="0" inkscape:window-x="511" inkscape:window-height="722" inkscape:window-width="688" fit-margin-bottom="0" inkscape:current-layer="layer1" inkscape:pageshadow="2" inkscape:document-units="px" inkscape:pageopacity="0.0" fit-margin-right="0" fit-margin-top="0" fit-margin-left="0" inkscape:cx="277.84191" inkscape:zoom="0.98994949" inkscape:cy="160.5152" id="base" pagecolor="#ffffff" showgrid="false" borderopacity="1.0" bordercolor="#666666">
	</sodipodi:namedview>
<g id="layer1" transform="translate(-153.19535,-102.60312)" inkscape:groupmode="layer" inkscape:label="Calque 1">
	<g id="g4173">
		
			<path id="path2030" sodipodi:nodetypes="csscscscssccccsccccssccccsscccscccccsccscccccsssccsccccscccscccccsssscsccscccccsccccccsssssssssssccccccsssccccccccscsc" inkscape:connector-curvature="0" stroke="#313131" stroke-width="3" d="
			M169.709,326.03c15.127,23.347,49.955,2.021,82.641-15.387c-5.215,4.941-15.087,7.949-20.091,16.146
			c-5.003,8.197-7.873,16.643-8.367,21.444c0.643-1.696,1.693-2.853,3.129-3.807c1.069,1.069,1.113,5.964,1.033,8.025
			c-2.15,3.249-3.529,9.568-3.878,14.868c2.714-3.729,5.589-5.458,7.482-6.751c1.239,4.267,2.514,10.064,2.061,17.928
			c-0.611,10.76-10.008,11.91-15.769,11.91c-11.653-0.978-17.811-8.416-28.192-11.823c1.274,4.894-1.111,8.98-3.154,13.065
			c-3.081,6.162-5.832,12.59-10.813,17.571c-3.055,3.055-14.408,14.328-19.348,19.141c-1.875,1.826-2.465,7.62-0.657,11.236
			c1.204-2.051,2.211-2.777,4.237-3.796c4.107,2.054,6.197,6.972,8.615,11.002c0.217,5.043-1.503,12.67,2.562,17.507
			c1.068-2.368,2.377-4.483,3.559-6.089c10.482,11.778,8.014,34.076,20.411,36.844c0.601-0.15,1.802-0.451,1.802-0.451
			c1.532-1.294,12.445,7.238,26.221,7.238h18.727c2.667,0,8.719-2.103,8.719-5.961c0-3.437,0.406-8.287-0.451-11.714
			c-0.15-0.601-0.3-1.201-0.451-1.802c-0.527-2.109-2.952-11.015-6.307-7.659c-2.854,2.854-3.779,4.055-9.011,4.28
			c-12.878,0.553-20.295-0.987-29.623-14.417c-3.588-5.167-9.818-19.708-10.024-29.059c-0.136-6.186,18.384-22.076,27.933-22.076
			c13.499,0,7.636,9.742,28.1,9.742c36.779-5.031,58.663-51.992,55.192-75.256c3.884,28.769-18.425,66.407-54.016,75.965
			c9.167,3.986,18.882,15.734,23.241,23.205c-0.335,5.175,0.745,11.688,3.266,15.994c0.788-2.271,2.94-3.75,4.787-4.336
			c5.796,4.47,10.231,10.988,12.944,15.438c1.278,2.096,0.997,8.188,7.499,11.313c0-1.021,0.456-3.57,2.027-4.336
			c3.296,1.577,7.689,7.181,11.415,13.516c1.135,1.12,11.108,6.854,13.597,7.164h57.121c2.397-0.799,5.714-12.643,4.957-14.916
			c-1.135-3.405-2.649-9.143-5.744-11.207c-2.169-0.845-3.317-1.693-5.688-2.872c-3.487-0.438-17.317,5.744-21.795,5.744
			c-3.357,0-8.331,0.272-11.263-0.901c-17.478-6.498-41.933-35.133-41.9-46.856c0.049-17.261,34.635-19.02,36.043-40.999
			c0.792-12.363-2.841-20.079-9.219-29.794c-3.831-5.836,1.08-15.801,13.019-13.88c44.29,7.124,79.857,39.244,103.396,29.951
			c-5.139,16.296-11.866,2.229-14.789,21.856c1.853-3.923,5.961-5.372,10.423-8.728c-0.102,1.853-0.576,6.69,0.012,8.725
			c1.305-2.706,4.061-5.267,7.106-6.67c-0.075,11.052-7.232,33.304-7.645,35.872c-3.374,20.984-6.068,24.811-5.086,37.674
			c1.388-2.853,3.133-5.667,5.216-8.124c0.277,3.432,1.431,7.452,2.988,9.439c0.277-2.558,1.133-6.622,1.195-6.531
			c5.755,8.509,13.478,21.874,18.493,31.897c7.934,5.007,6.246,3.461,18.161,9.958c17.254-0.2,35.911,0.38,50.658,0.361
			c0.292-2.679,3.365-14.859,2.802-17.513c-0.17-1.36-2.672-4.677-2.939-6.013c-0.149-0.743-0.442-1.28-0.908-1.901
			c-1.188-1.664-2.901-4.125-3.207-5.031c-9.317-0.691-13.254,6.387-25.23,6.307c-24.037-0.159-31.335-28.535-30.636-35.592
			c2.081-21.003,10.961-39.98,19.148-51.136c8.379-11.418,2.635-2.964,9.132-11.024c3.667,6.593,13.3,16.656,11.572,31.131
			c4.209-6.062,5.956-17.832,9.123-26.244c3.073,2.958,5.314,7.464,5.519,12.728c1.945-5.527,1.063-11.431,1.732-16.769
			c0.546-0.109,13.603-8.172,20.735-10.975c6.57-2.582,24.748-4.913,31.87-6.547c-3.122-0.597-3.96-2.461-8.455-3.543
			c8.268-5.833,14.17-6.791,21.853-7.121c7.461-0.321,8.613,2.406,12.037,6.032c2.684-0.956,8.487,2.531,12.435,5.906
			c1.592,5.173,4.536-6.115,8.782-2.645c1.966-0.34,3.994-0.814,5.942-2.245c1.115-2.261,2.063-4.79,5.94-4.62
			c-0.239-2.272-0.645-6.312,1.562-8.188c1.091-0.927,1.562-1.512,2.615-2.698c-0.037-2.19-1.748-4.361-3.421-6.034
			c-3.61-4.112-8.743-3.406-13.932-3.046c-0.429-0.344-17.858-11.43-25.685-11.768c-3.353-0.145-19.018,3.65-26.888,5.977
			c-12.827,3.793-25.534,6.664-38.435,9.295c-1.989-66.332-20.478-66.913-18.415-92.789c-18.887-3.124-40.058-7.53-64.139-3.04h0
			c-11.251,17.787-65.267,35.467-83.574,38.746c-13.874,2.485-47.283,2.633-61.047,4.055c-20.684,2.136-43.895,6.39-60.675,13.532
			c-8.592,3.122-44.375,32.056-67.712,25.156c-11.696-3.381-6.162-45.347,26.777-36.313c-6.961-2.866-11.816-8.052-23.479-5.739
			c0,0,4.182-6.118,10.838-10.307s15.773-1.887,15.773-1.887c-9.649-3.673-18.478-6.089-23.602-2.824
			c10.887-13.906,27.697-18.255,46.273-19.755c-13.739-3.588-27.356-5.38-40.499-0.255c18.511-25.873,71.343-1.902,105.732,8.608
			c25.81,7.888,34.618-1.452,31.257-14.082c-4.115-15.462-15.122-23.688-25.529-29.758c0,0,3.801-14.141-7.964-14.166
			c-13.645-0.029-21.636-1.818-31.411,7.848c1.033-2.561,18.78,5.342,25.215,15.786c5.181,8.408,11.616-3.711,11.616-3.711
			c18.931,11.226,33.581,37.195-1.711,29.057c-41.08-9.473-91.901-39.749-116.958,2.377
			C172.012,273.04,160.845,312.349,169.709,326.03L169.709,326.03z"/>
		<path id="path13548-8" sodipodi:nodetypes="ccccc" inkscape:connector-curvature="0" stroke="#313131" stroke-width="3" d="
			M350.694,346.712c-22.262-9.192-24.85-12.176-44.612-1.217c0.021,2.261,0.687,10.35,0.149,12.886
			c7.424,1.838,16.071-4.42,12.514-9.252C325.996,346.265,322.022,341.919,350.694,346.712L350.694,346.712z"/>
		<path id="path12605-5" inkscape:connector-curvature="0" fill="#FF9900" stroke="#313131" stroke-width="3" d="M650.317,360.73
			c-0.229-4.236-3.858-11.18-6.448-11.883c0.566-2.191,2.258-3.162,3.998-4.59C651.132,348.961,653.18,355.471,650.317,360.73z"/>
		<path id="path13492-5" inkscape:connector-curvature="0" fill="#FF9900" stroke="#313131" stroke-width="3" d="M643.645,354.95
			c2.289,5.248,3.061,12.145-0.769,16.747c0.598-4.2-2.2-11.958-4.604-13.151C639.252,356.507,640.421,354.914,643.645,354.95
			L643.645,354.95z"/>
		<path id="path13494-1" inkscape:connector-curvature="0" fill="#FF9900" stroke="#313131" stroke-width="3" d="M637.715,359.653
			c0.741,5.677,0.046,14.15-4.912,17.508c1.741-3.868,0.982-13.408-0.997-15.222C633.734,361.427,635.225,361.112,637.715,359.653
			L637.715,359.653z"/>
		
			<path id="path13496-7" sodipodi:nodetypes="cccc" inkscape:connector-curvature="0" fill="#FF9900" stroke="#313131" stroke-width="3" d="
			M610.512,358.592c2.014,4.86,5.929,9.696,11.007,9.909c-2.99-2.203-5.773-6.142-5.162-8.554
			C614.354,358.859,612.597,358.205,610.512,358.592L610.512,358.592z"/>
		
			<path id="path13506-1" sodipodi:nodetypes="cccc" inkscape:connector-curvature="0" fill="#FF9900" stroke="#313131" stroke-width="3" d="
			M533.732,472.058c5.439-1.79,15.655,1.851,15.417,7.701c-3.233-3.844-10.745-4.844-12.156-2.561
			C535.054,476.031,534.604,474.133,533.732,472.058L533.732,472.058z"/>
		
			<path id="path13508-5" sodipodi:nodetypes="cccc" inkscape:connector-curvature="0" fill="#FF9900" stroke="#313131" stroke-width="3" d="
			M539.176,482.451c6.383,0.246,16.66,4.555,13.304,12.014c-3.521-5.787-9.668-7.216-11.933-5.568
			C538.876,487.11,537.744,485.351,539.176,482.451L539.176,482.451z"/>
		
			<path id="path13510-2" sodipodi:nodetypes="ccccc" inkscape:connector-curvature="0" fill="#FF9900" stroke="#313131" stroke-width="3" d="
			M537.468,494.165c5.557,1.381,11.902,0.12,13.219,5.962c-2.966-3.032-10.996-0.488-13.406,0.692
			C537.508,498.838,537.68,495.941,537.468,494.165L537.468,494.165z"/>
		<g id="g4119" transform="translate(2.0203051,13.131983)">
			
				<path id="path3715-3-7" inkscape:transform-center-y="0.22988637" inkscape:transform-center-x="2.1074982" inkscape:connector-curvature="0" fill="#F7CF6D" stroke="#313131" stroke-width="1.8821" d="
				M368.619,174.68l2.867,1.152l0,0l0.433-2.196l0.216-7.267l-0.035-0.081l-0.035-0.081c0,0,0,0-0.083,0.036c0,0,0,0-0.048,0.117
				c-2.364,0.926-4.61,1.897-6.537,2.921L368.619,174.68L368.619,174.68z"/>
			<path id="path3719-5-6" inkscape:connector-curvature="0" fill="#F7CF6D" stroke="#313131" stroke-width="1.6244" d="
				M388.183,182.262l2.641,2.583c-2.188-0.201-4.766,0.058-7.595,0.673l0.247-2.053l0.981-4.892L388.183,182.262L388.183,182.262z"
				/>
			<path id="path3719-5-9-3" inkscape:connector-curvature="0" fill="#F7CF6D" stroke="#313131" stroke-width="1.8022" d="
				M375.505,168.648l-2.462-3.277c2.366,0.588,5.237,0.738,8.442,0.54l-0.616,2.209l-1.898,5.2L375.505,168.648L375.505,168.648z"/>
			
				<path id="path3715-3" inkscape:transform-center-y="2.4905895" inkscape:transform-center-x="-3.1132408" inkscape:connector-curvature="0" fill="#F7CF6D" stroke="#313131" stroke-width="1.8821" d="
				M572.93,119.392l-1.547,2.675l0,0l-1.695-1.462l-4.652-5.588l-0.022-0.085l-0.022-0.085c0,0,0,0,0.088-0.023c0,0,0,0,0.11,0.062
				c2.432-0.729,4.799-1.35,6.948-1.732L572.93,119.392L572.93,119.392z"/>
			<path id="path3719-5" inkscape:connector-curvature="0" fill="#F7CF6D" stroke="#313131" stroke-width="1.6244" d="
				M562.206,137.426l-0.486,3.662c1.598-1.508,3.787-2.894,6.394-4.155l-1.46-1.463l-3.789-3.246L562.206,137.426L562.206,137.426z"
				/>
			<path id="path3719-5-9" inkscape:connector-curvature="0" fill="#F7CF6D" stroke="#313131" stroke-width="1.8022" d="
				M563.79,118.891l-0.083-4.098c-1.499,1.922-3.667,3.811-6.313,5.631l1.847,1.359l4.701,2.922L563.79,118.891L563.79,118.891z"/>
			
				<path id="path3715-3-8" inkscape:transform-center-y="-2.2257067" inkscape:transform-center-x="-2.4447333" inkscape:connector-curvature="0" fill="#F7CF6D" stroke="#313131" stroke-width="1.8821" d="
				M629.271,252.568l-3.046-0.522l0,0l0.782-2.097l3.626-6.302l0.072-0.05l0.072-0.051c0,0,0,0,0.052,0.074c0,0,0,0-0.02,0.125
				c1.528,2.028,2.932,4.032,4.036,5.915L629.271,252.568L629.271,252.568z"/>
			<path id="path3719-5-4" inkscape:connector-curvature="0" fill="#F7CF6D" stroke="#313131" stroke-width="1.6244" d="
				M608.636,248.769l-3.603,0.816c1.969,0.976,4.029,2.548,6.116,4.554l0.866-1.877l1.729-4.68L608.636,248.769L608.636,248.769z"/>
			<path id="path3719-5-9-0" inkscape:connector-curvature="0" fill="#F7CF6D" stroke="#313131" stroke-width="1.8022" d="
				M626.569,243.821l3.814-1.5c-2.323-0.739-4.846-2.116-7.472-3.966l-0.634,2.204l-1.109,5.423L626.569,243.821L626.569,243.821z"
				/>
			
				<path id="path1888-1-0" sodipodi:nodetypes="cscsssscc" inkscape:connector-curvature="0" fill="#910909" stroke="#590606" stroke-miterlimit="10" d="
				M550.365,149.827c3.65-4.028,6.519-11.546,15.491-17.788c22.326-15.535,24.112,1.639,40.113-5.198
				c8.274-3.535,12.61-11.342,11.708-15.008c-0.603-2.449-3.201-2.475-5.569-1.211c-1.023,0.546-3.517,5.741-6.39,6.976
				c-15.305,6.582-16.289-4.366-40.669,12.598C558.39,134.829,548.171,147.437,550.365,149.827L550.365,149.827z"/>
			
				<path id="path4571-9-6" sodipodi:nodetypes="ccscccssccccccc" inkscape:connector-curvature="0" fill="#606060" stroke="#313131" stroke-width="3" d="
				M466.246,221.407c-19.397,7.05-2.613-50.996,24.987-80.085c-2.843-7.655-8.794-14.676-16.56-24.237
				c12.336,0.482,25.747-0.204,31.816,0.589c9.337-5.994,35.941-24.998,42.628-17.867c12.959-6.296,16.937-5.589,31.142-8.837
				c1.789,6.447,4.915,19.631-3.108,22.355c-7.319-1.126-16.665,2.01-22.019,8.365c-6.344,7.53-17.266,16.669-14.143,23.507
				c3.243,7.101,3.746,9.826,10.528,4.205c6.118-4.67,11.764-10.031,18.268-13.945c0.651-4.918,5.974-4.451,9.539-1.223
				c4.257,7.581-7.879,11.789-12.801,15.214c-25.076,17.448-26,30.199-41.206,20.09c-8.885,19.177,11.722,42.18,2.613,45.491"/>
			
				<path id="path1888-1" sodipodi:nodetypes="cscssssc" inkscape:connector-curvature="0" fill="#910909" stroke="#590606" stroke-miterlimit="10" d="
				M616.77,252.524c19.701,16.543,6.492,32.279,19.096,42.862c6.518,5.473,14.7,4.785,17.233,1.768
				c1.693-2.016,0.556-4.412-1.512-5.828c-0.893-0.612-6.163,0.205-8.433-1.691c-12.089-10.097-3.481-20.604-24.994-38.669
				c-5.876-4.934-19.701-10.312-21.189-7.123C601.494,245.954,608.853,245.876,616.77,252.524z"/>
			
				<path id="path4571-9" sodipodi:nodetypes="ccccccccccccscccsscccccccccccccccsscccsccccccccc" inkscape:connector-curvature="0" fill="#606060" stroke="#313131" stroke-width="3" d="
				M476.299,250.212c-6.974,1.528-13.598,29.251-17.257,40.495c-0.935-6.492-4.916-8.731-9.138-20.263
				c1.259,10.143-6.977,16.884-19.495,22.58c1.709-3.154,9.646-22.431,9.152-26.683c-4.065,6.155-24.161,8.342-30.455,8.177
				c12.655-4.451,22.25-12.7,27.05-21.807c-3.492,1.839-33.311,2.965-36.474,3.189c49.82-13.235,34.414-47.478,29.378-66.146
				c-8.395,15.897-8.684,1.684-36.815,5.861c-5.521,0.82-16.593,6.24-18.146-2.928c0.573-5.173,4.041-9.406,7.451-5.933
				c6.929-1.574,14.123-1.366,21.234-2.054c8.15-0.406,5.481-3.338,4.89-11.004c-0.767-9.945-14.522-7.919-24.069-8.609
				c-7.675-0.554-16.048,3.04-20.526,9.248c-7.284,3.63-16.804-5.657-19.415-12.126c11.952-7.69,18.136-14.696,31.04-19.038
				c0.428-10.568,30.568-14.603,40.741-16.563c3.798-5.035,13.652-14.205,22.05-23.533c0.27,13.299,0.295,23.246,2.887,31.448
				c28.863,11.9,47.171,37.966,56.843,59.31c3.37-0.841,8.955-1.612,12.029-2.328c-1.758-0.988-5.477-2.285-7.768-2.703
				c19.043-4.727,67.446-14.182,86.72-8.587c5.914-5.95,10.423-14.814,16.655-26.54c2.959,12.758,7.233,26.145,8.203,32.643
				c7.799,7.12,31.706,26.635,27.303,36.292c9.056,10.688,10.646,14.198,17.379,27.372c-5.147,4.395-16.937,13.663-21.517,6.577
				c-1.021-7.905-7.945-13.777-13.348-19.091c-15.214-14.963-24.902-20.685-24.43-5.026c0.222,7.363-7.565,7.737-0.792,12.402
				c5.76,4.369,11.994,7.981,17.199,13.044c4.478-1.299,5.529,4.309,3.683,9.229c-5.462,7.361-12.467-3.322-16.81-6.968
				c-22.127-18.58-29.741-12.078-29.734-30.698c-3.06,7.018-35.594,16.233-37.469,23.79c-1.124,8.144,5.199,20.097,7.1,28.11
				c-2.599-1.871-13.862-9.709-16.013-13.194c-0.013,10.661,7.781,25.464,12.315,36.146c-5.447-3.176-20.717-16.39-21.409-24.029
				c-2.341,3.534-6.721,27.549-6.686,31.267c-8.115-11.692-18.709-24.664-13.058-33.05c-8.807,8.062-7.629,11.23-8.458,16.553
				c-5.15-8.011-8.982-20.453-4.867-29.014c-5.883,3.857-8.486,12.361-10.795,19.544
				C471.378,277.848,467.986,255.438,476.299,250.212L476.299,250.212z"/>
			
				<path id="path1888-1-6" sodipodi:nodetypes="cscssssc" inkscape:connector-curvature="0" fill="#910909" stroke="#590606" stroke-miterlimit="10" d="
				M403.848,184.207c-4.988-0.586-11.521-4.538-21.585-3.044c-25.046,3.719-25.645,25.505-41.028,20.432
				c-7.955-2.623-11.997-10.149-11.043-14.048c0.637-2.605,3.159-2.955,5.431-1.944c0.981,0.436,3.291,5.493,6.053,6.412
				c14.713,4.896,12.699-8.855,40.049-12.916C389.194,177.99,403.958,180.699,403.848,184.207L403.848,184.207z"/>
			<path id="path4571-9-3" sodipodi:nodetypes="cc" inkscape:connector-curvature="0" stroke="#313131" stroke-width="3" d="
				M517.859,234.28c-16.264-23.436-17.033-27.044-20.117-39.092"/>
			
				<path id="path11634-8" sodipodi:nodetypes="ccssscc" inkscape:connector-curvature="0" fill="#AF0808" stroke="#313131" stroke-width="3" d="
				M634.999,224.213c-2.359-0.07-3.127-1.43-4.397-1.507c-1.27-0.077-3.04,1.13-4.502,1.106c-1.969-0.033-3.213-2.618-3.635-4.753
				c-0.691-3.501-6.107-9.034-9.216-11.407C619.989,213.702,626.492,220.233,634.999,224.213L634.999,224.213z"/>
			
				<path id="path11634-8-2" inkscape:transform-center-y="-16.071429" inkscape:transform-center-x="-23.571429" sodipodi:nodetypes="ccssscc" inkscape:connector-curvature="0" fill="#AF0808" stroke="#313131" stroke-width="3" d="
				M550.77,104.759L550.77,104.759c-1.369,1.922-2.927,1.806-3.696,2.819c-0.769,1.013-0.75,3.156-1.582,4.357
				c-1.121,1.619-3.962,1.217-5.971,0.382c-3.295-1.37-10.904,0.058-14.604,1.325C533.691,111.4,542.735,109.622,550.77,104.759
				L550.77,104.759z"/>
			
				<path id="path11634-8-9" sodipodi:nodetypes="ccssscc" inkscape:connector-curvature="0" fill="#AF0808" stroke="#313131" stroke-width="3" d="
				M378.781,147.085L378.781,147.085c2.28,0.607,3.406-0.477,4.644-0.188c1.239,0.289,2.591,1.952,3.998,2.346
				c1.896,0.531,3.827-1.591,4.841-3.516c1.662-3.158,8.433-6.913,12.09-8.298C396.168,141.301,388.07,145.703,378.781,147.085
				L378.781,147.085z"/>
		</g>
		
			<path id="path13506-1-1" sodipodi:nodetypes="cccc" inkscape:connector-curvature="0" fill="#FF9900" stroke="#313131" stroke-width="3" d="
			M402.669,479.301c-4.243-3.087-10.745-4.844-12.156-2.561c-1.939-1.167-6.176-2.434-7.049-4.509
			C393.827,467.285,402.907,473.451,402.669,479.301z"/>
		
			<path id="path13508-5-7" sodipodi:nodetypes="cccc" inkscape:connector-curvature="0" fill="#FF9900" stroke="#313131" stroke-width="3" d="
			M390.423,479.846c6.383,0.246,18.175,6.954,14.819,14.413c-3.521-5.787-9.668-7.216-11.933-5.568
			C392.581,486.734,391.583,482.275,390.423,479.846L390.423,479.846z"/>
		
			<path id="path13510-2-4" sodipodi:nodetypes="cccc" inkscape:connector-curvature="0" fill="#FF9900" stroke="#313131" stroke-width="3" d="
			M392.125,493.707c5.653,0.547,9.16,2.355,11.83,8.613c-2.966-3.032-12.637-2.761-15.047-1.581
			C389.135,498.759,392.337,495.483,392.125,493.707L392.125,493.707z"/>
		
			<path id="path13506-1-1-0" sodipodi:nodetypes="cccc" inkscape:connector-curvature="0" fill="#FF9900" stroke="#313131" stroke-width="3" d="
			M246.874,474.379c10.363-4.947,19.443,1.22,19.205,7.07c-4.243-3.087-14.237-5.04-15.648-2.758
			C248.492,477.525,247.746,476.455,246.874,474.379L246.874,474.379z"/>
		
			<path id="path13508-5-7-9" sodipodi:nodetypes="cccc" inkscape:connector-curvature="0" fill="#FF9900" stroke="#313131" stroke-width="3" d="
			M264.908,495.201c-3.521-5.787-9.668-7.216-11.933-5.568c-0.729-1.958-1.727-6.417-2.886-8.845
			C256.471,481.034,268.264,487.742,264.908,495.201z"/>
		
			<path id="path13510-2-4-4" sodipodi:nodetypes="cccc" inkscape:connector-curvature="0" fill="#FF9900" stroke="#313131" stroke-width="3" d="
			M252.295,493.386c5.653,0.547,9.16,2.355,11.83,8.613c-2.966-3.032-12.637-2.761-15.047-1.581
			C249.305,498.438,252.507,495.161,252.295,493.386L252.295,493.386z"/>
		<path id="path4117" sodipodi:nodetypes="cc" inkscape:connector-curvature="0" fill="none" stroke="#313131" stroke-width="3" d="
			M504.69,380.582c29.968-15.068,30.243-28.652,34.345-42.426"/>
	</g>
</g>
</svg>
